<svg width="46" height="46" viewBox="0 0 46 46" fill="none" xmlns="http://www.w3.org/2000/svg">
<circle opacity="0.3" cx="23" cy="23" r="22.5" stroke="white"/>
<g clip-path="url(#clip0_808_94)">
<path d="M14 14H32C32.2652 14 32.5196 14.1054 32.7071 14.2929C32.8946 14.4804 33 14.7348 33 15V31C33 31.2652 32.8946 31.5196 32.7071 31.7071C32.5196 31.8946 32.2652 32 32 32H14C13.7348 32 13.4804 31.8946 13.2929 31.7071C13.1054 31.5196 13 31.2652 13 31V15C13 14.7348 13.1054 14.4804 13.2929 14.2929C13.4804 14.1054 13.7348 14 14 14V14ZM31 18.238L23.072 25.338L15 18.216V30H31V18.238ZM15.511 16L23.061 22.662L30.502 16H15.511Z" fill="white"/>
</g>
<defs>
<clipPath id="clip0_808_94">
<rect width="24" height="24" fill="white" transform="translate(11 11)"/>
</clipPath>
</defs>
</svg>
