<svg width="61" height="61" viewBox="0 0 61 61" fill="none" xmlns="http://www.w3.org/2000/svg">
<rect width="61" height="61" rx="8" fill="#0A0A0A"/>
<g clip-path="url(#clip0_614_90)">
<path d="M28.667 43C28.667 42.4696 28.4563 41.9609 28.0812 41.5858C27.7061 41.2107 27.1974 41 26.667 41C26.1366 41 25.6279 41.2107 25.2528 41.5858C24.8777 41.9609 24.667 42.4696 24.667 43H18.0003C17.6467 43 17.3076 42.8595 17.0575 42.6095C16.8075 42.3594 16.667 42.0203 16.667 41.6667V20.3333C16.667 19.9797 16.8075 19.6406 17.0575 19.3905C17.3076 19.1405 17.6467 19 18.0003 19H24.667C24.667 19.5304 24.8777 20.0391 25.2528 20.4142C25.6279 20.7893 26.1366 21 26.667 21C27.1974 21 27.7061 20.7893 28.0812 20.4142C28.4563 20.0391 28.667 19.5304 28.667 19H42.0003C42.3539 19 42.6931 19.1405 42.9431 19.3905C43.1932 19.6406 43.3337 19.9797 43.3337 20.3333V27.6667C42.4496 27.6667 41.6018 28.0179 40.9766 28.643C40.3515 29.2681 40.0003 30.1159 40.0003 31C40.0003 31.8841 40.3515 32.7319 40.9766 33.357C41.6018 33.9821 42.4496 34.3333 43.3337 34.3333V41.6667C43.3337 42.0203 43.1932 42.3594 42.9431 42.6095C42.6931 42.8595 42.3539 43 42.0003 43H28.667ZM26.667 29C27.1974 29 27.7061 28.7893 28.0812 28.4142C28.4563 28.0391 28.667 27.5304 28.667 27C28.667 26.4696 28.4563 25.9609 28.0812 25.5858C27.7061 25.2107 27.1974 25 26.667 25C26.1366 25 25.6279 25.2107 25.2528 25.5858C24.8777 25.9609 24.667 26.4696 24.667 27C24.667 27.5304 24.8777 28.0391 25.2528 28.4142C25.6279 28.7893 26.1366 29 26.667 29ZM26.667 37C27.1974 37 27.7061 36.7893 28.0812 36.4142C28.4563 36.0391 28.667 35.5304 28.667 35C28.667 34.4696 28.4563 33.9609 28.0812 33.5858C27.7061 33.2107 27.1974 33 26.667 33C26.1366 33 25.6279 33.2107 25.2528 33.5858C24.8777 33.9609 24.667 34.4696 24.667 35C24.667 35.5304 24.8777 36.0391 25.2528 36.4142C25.6279 36.7893 26.1366 37 26.667 37Z" fill="#FFC500"/>
<path fill-rule="evenodd" clip-rule="evenodd" d="M26.7832 20.9966C26.7446 20.9989 26.7059 21 26.667 21C26.1366 21 25.6279 20.7893 25.2528 20.4142C24.8777 20.0391 24.667 19.5304 24.667 19H18.0003C17.6467 19 17.3076 19.1405 17.0575 19.3905C16.8075 19.6406 16.667 19.9797 16.667 20.3333V41.6667C16.667 42.0203 16.8075 42.3594 17.0575 42.6095C17.3076 42.8595 17.6467 43 18.0003 43H24.667C24.667 42.4696 24.8777 41.9609 25.2528 41.5858C25.6279 41.2107 26.1366 41 26.667 41C26.7059 41 26.7446 41.0011 26.7832 41.0034V36.9966C26.7446 36.9989 26.7059 37 26.667 37C26.1366 37 25.6279 36.7893 25.2528 36.4142C24.8777 36.0391 24.667 35.5304 24.667 35C24.667 34.4696 24.8777 33.9609 25.2528 33.5858C25.6279 33.2107 26.1366 33 26.667 33C26.7059 33 26.7446 33.0011 26.7832 33.0034V28.9966C26.7446 28.9989 26.7059 29 26.667 29C26.1366 29 25.6279 28.7893 25.2528 28.4142C24.8777 28.0391 24.667 27.5304 24.667 27C24.667 26.4696 24.8777 25.9609 25.2528 25.5858C25.6279 25.2107 26.1366 25 26.667 25C26.7059 25 26.7446 25.0011 26.7832 25.0034V20.9966Z" fill="white"/>
</g>
<defs>
<clipPath id="clip0_614_90">
<rect width="32" height="32" fill="white" transform="translate(14 15)"/>
</clipPath>
</defs>
</svg>
