<svg width="61" height="61" viewBox="0 0 61 61" fill="none" xmlns="http://www.w3.org/2000/svg">
<path d="M0 8C0 3.58172 3.58172 0 8 0H53C57.4183 0 61 3.58172 61 8V53C61 57.4183 57.4183 61 53 61H8C3.58172 61 0 57.4183 0 53V8Z" fill="#F4F4F4"/>
<path d="M30 16.3333L40.956 18.768C41.5653 18.904 42 19.444 42 20.0693V33.3853C42 36.06 40.6627 38.5587 38.4373 40.0413L30 45.6667L21.5627 40.0413C19.336 38.5573 18 36.06 18 33.3867V20.0693C18 19.444 18.4347 18.904 19.044 18.768L30 16.3333ZM35.936 25.9627L29.336 32.5613L25.5653 28.7907L23.68 30.676L29.3373 36.3333L37.8227 27.848L35.936 25.9627Z" fill="#FFC500"/>
<path d="M29.8327 45.555L30 45.6667L38.4373 40.0413C40.6627 38.5587 42 36.06 42 33.3853V20.0693C42 19.444 41.5653 18.904 40.956 18.768L30 16.3333L29.8961 16.3563V32.0013L35.936 25.9627L37.8227 27.848L29.8961 35.7745V45.555H29.8327Z" fill="#0A0A0A"/>
</svg>
