<svg width="46" height="46" viewBox="0 0 46 46" fill="none" xmlns="http://www.w3.org/2000/svg">
<g clip-path="url(#clip0_808_95)">
<path d="M20.366 21.682C21.3043 23.3305 22.6695 24.6957 24.318 25.634L25.202 24.396C25.3442 24.1969 25.5543 24.0569 25.7928 24.0023C26.0313 23.9478 26.2814 23.9825 26.496 24.1C27.9103 24.8729 29.4722 25.3378 31.079 25.464C31.3298 25.4839 31.5638 25.5975 31.7345 25.7823C31.9052 25.9671 32 26.2094 32 26.461V30.923C32.0001 31.1706 31.9083 31.4094 31.7424 31.5932C31.5765 31.777 31.3483 31.8927 31.102 31.918C30.572 31.973 30.038 32 29.5 32C20.94 32 14 25.06 14 16.5C14 15.962 14.027 15.428 14.082 14.898C14.1073 14.6517 14.223 14.4235 14.4068 14.2576C14.5906 14.0917 14.8294 13.9999 15.077 14H19.539C19.7906 14 20.0329 14.0948 20.2177 14.2655C20.4025 14.4361 20.5161 14.6702 20.536 14.921C20.6622 16.5278 21.1271 18.0897 21.9 19.504C22.0175 19.7186 22.0522 19.9687 21.9977 20.2072C21.9431 20.4456 21.8031 20.6558 21.604 20.798L20.366 21.682ZM17.844 21.025L19.744 19.668C19.2048 18.5041 18.8354 17.2688 18.647 16H16.01C16.004 16.166 16.001 16.333 16.001 16.5C16 23.956 22.044 30 29.5 30C29.667 30 29.834 29.997 30 29.99V27.353C28.7312 27.1646 27.4959 26.7952 26.332 26.256L24.975 28.156C24.4287 27.9437 23.898 27.6931 23.387 27.406L23.329 27.373C21.3676 26.2567 19.7433 24.6324 18.627 22.671L18.594 22.613C18.3069 22.102 18.0563 21.5713 17.844 21.025Z" fill="white"/>
</g>
<circle opacity="0.3" cx="23" cy="23" r="22.5" stroke="white"/>
<defs>
<clipPath id="clip0_808_95">
<rect width="24" height="24" fill="white" transform="translate(11 11)"/>
</clipPath>
</defs>
</svg>
