<svg width="24" height="24" viewBox="0 0 24 24" fill="none" xmlns="http://www.w3.org/2000/svg">
<g clip-path="url(#clip0_245_195)">
<path d="M12 18.4852L16.243 14.2432C17.082 13.404 17.6534 12.3349 17.8848 11.1711C18.1162 10.0072 17.9973 8.80088 17.5432 7.70458C17.089 6.60828 16.32 5.67127 15.3333 5.01203C14.3466 4.35278 13.1866 4.00092 12 4.00092C10.8134 4.00092 9.65336 4.35278 8.66669 5.01203C7.68002 5.67127 6.91098 6.60828 6.45682 7.70458C6.00267 8.80088 5.88379 10.0072 6.11522 11.1711C6.34665 12.3349 6.91799 13.404 7.757 14.2432L12 18.4852ZM17.657 15.6572L12 21.3142L6.343 15.6572C5.22422 14.5384 4.46234 13.1129 4.15369 11.5611C3.84504 10.0092 4.00349 8.40071 4.60901 6.93893C5.21452 5.47714 6.2399 4.22774 7.55548 3.3487C8.87107 2.46967 10.4178 2.00049 12 2.00049C13.5822 2.00049 15.1289 2.46967 16.4445 3.3487C17.7601 4.22774 18.7855 5.47714 19.391 6.93893C19.9965 8.40071 20.155 10.0092 19.8463 11.5611C19.5377 13.1129 18.7758 14.5384 17.657 15.6572V15.6572ZM5 22.0002H19V24.0002H5V22.0002Z" fill="#0A0A0A"/>
</g>
<defs>
<clipPath id="clip0_245_195">
<rect width="24" height="24" fill="white"/>
</clipPath>
</defs>
</svg>
