<svg width="23" height="23" viewBox="0 0 23 23" fill="none" xmlns="http://www.w3.org/2000/svg">
<g clip-path="url(#clip0_200_1033)">
<path d="M11.5 1.04211L19.3746 2.71595C19.8126 2.80945 20.125 3.1807 20.125 3.61061V12.7654C20.125 14.6042 19.1638 16.322 17.5643 17.3414L11.5 21.2088L5.43567 17.3414C3.83525 16.3211 2.875 14.6042 2.875 12.7663V3.61061C2.875 3.1807 3.18742 2.80945 3.62538 2.71595L11.5 1.04211ZM15.7665 7.66228L11.0228 12.1989L8.31258 9.60653L6.9575 10.9027L11.0237 14.7921L17.1225 8.95845L15.7665 7.66228Z" fill="#FFC500"/>
<path fill-rule="evenodd" clip-rule="evenodd" d="M11.3799 21.132L11.5 21.2087L17.5644 17.3412C19.1638 16.3219 20.125 14.6041 20.125 12.7652V3.61049C20.125 3.18058 19.8126 2.80933 19.3747 2.71583L11.5 1.04199L11.425 1.05795V11.8141L15.7665 7.66216L17.1226 8.95832L11.425 14.4082V21.132H11.3799Z" fill="#FFC500"/>
</g>
<defs>
<clipPath id="clip0_200_1033">
<rect width="23" height="22" fill="white" transform="translate(0 0.125488)"/>
</clipPath>
</defs>
</svg>
