<svg width="148" height="42" viewBox="0 0 148 42" fill="none" xmlns="http://www.w3.org/2000/svg">
<rect x="0.5" y="0.5" width="147" height="41" rx="19.5" stroke="url(#paint0_linear_809_96)"/>
<path d="M51.5966 27L48.3125 15.3636H50.5795L52.6761 23.9148H52.7841L55.0227 15.3636H57.0852L59.3295 23.9205H59.4318L61.5284 15.3636H63.7955L60.5114 27H58.4318L56.1023 18.8352H56.0114L53.6761 27H51.5966ZM67.223 21.8864V27H65.1662V15.3636H67.1776V19.7557H67.2798C67.4844 19.2633 67.8007 18.875 68.2287 18.5909C68.6605 18.303 69.2098 18.1591 69.8764 18.1591C70.4825 18.1591 71.0109 18.286 71.4616 18.5398C71.9124 18.7936 72.2609 19.1648 72.5071 19.6534C72.7571 20.142 72.8821 20.7386 72.8821 21.4432V27H70.8253V21.7614C70.8253 21.1742 70.6738 20.7178 70.3707 20.392C70.0715 20.0625 69.651 19.8977 69.1094 19.8977C68.7457 19.8977 68.42 19.9773 68.1321 20.1364C67.848 20.2917 67.6245 20.517 67.4616 20.8125C67.3026 21.108 67.223 21.4659 67.223 21.8864ZM77.4901 27.1761C76.937 27.1761 76.4389 27.0777 75.9957 26.8807C75.5563 26.6799 75.2079 26.3845 74.9503 25.9943C74.6965 25.6042 74.5696 25.1231 74.5696 24.5511C74.5696 24.0587 74.6605 23.6515 74.8423 23.3295C75.0241 23.0076 75.2723 22.75 75.5866 22.5568C75.901 22.3636 76.2552 22.2178 76.6491 22.1193C77.0469 22.017 77.4579 21.9432 77.8821 21.8977C78.3935 21.8447 78.8082 21.7973 79.1264 21.7557C79.4446 21.7102 79.6757 21.642 79.8196 21.5511C79.9673 21.4564 80.0412 21.3106 80.0412 21.1136V21.0795C80.0412 20.6515 79.9143 20.3201 79.6605 20.0852C79.4067 19.8504 79.0412 19.733 78.5639 19.733C78.0601 19.733 77.6605 19.8428 77.3651 20.0625C77.0734 20.2822 76.8764 20.5417 76.7741 20.8409L74.8537 20.5682C75.0052 20.0379 75.2552 19.5947 75.6037 19.2386C75.9522 18.8788 76.3783 18.6098 76.8821 18.4318C77.3859 18.25 77.9427 18.1591 78.5526 18.1591C78.973 18.1591 79.3916 18.2083 79.8082 18.3068C80.2249 18.4053 80.6056 18.5682 80.9503 18.7955C81.295 19.0189 81.5715 19.3239 81.7798 19.7102C81.992 20.0966 82.098 20.5795 82.098 21.1591V27H80.1207V25.8011H80.0526C79.9276 26.0436 79.7514 26.2708 79.5241 26.483C79.3007 26.6913 79.0185 26.8598 78.6776 26.9886C78.3404 27.1136 77.9446 27.1761 77.4901 27.1761ZM78.0241 25.6648C78.437 25.6648 78.795 25.5833 79.098 25.4205C79.401 25.2538 79.634 25.0341 79.7969 24.7614C79.9635 24.4886 80.0469 24.1913 80.0469 23.8693V22.8409C79.9825 22.8939 79.8726 22.9432 79.7173 22.9886C79.5658 23.0341 79.3954 23.0739 79.206 23.108C79.0166 23.142 78.8291 23.1723 78.6435 23.1989C78.4579 23.2254 78.2969 23.2481 78.1605 23.267C77.8537 23.3087 77.5791 23.3769 77.3366 23.4716C77.0942 23.5663 76.9029 23.6989 76.7628 23.8693C76.6226 24.036 76.5526 24.2519 76.5526 24.517C76.5526 24.8958 76.6908 25.1818 76.9673 25.375C77.2438 25.5682 77.5961 25.6648 78.0241 25.6648ZM88.5241 18.2727V19.8636H83.5071V18.2727H88.5241ZM84.7457 16.1818H86.8026V24.375C86.8026 24.6515 86.8442 24.8636 86.9276 25.0114C87.0147 25.1553 87.1283 25.2538 87.2685 25.3068C87.4086 25.3598 87.5639 25.3864 87.7344 25.3864C87.8632 25.3864 87.9806 25.3769 88.0866 25.358C88.1965 25.339 88.2798 25.322 88.3366 25.3068L88.6832 26.9148C88.5734 26.9527 88.4162 26.9943 88.2116 27.0398C88.0109 27.0852 87.7647 27.1117 87.473 27.1193C86.9579 27.1345 86.4938 27.0568 86.081 26.8864C85.6681 26.7121 85.3404 26.4432 85.098 26.0795C84.8594 25.7159 84.742 25.2614 84.7457 24.7159V16.1818ZM97.017 20.5795L95.142 20.7841C95.089 20.5947 94.9962 20.4167 94.8636 20.25C94.7348 20.0833 94.5606 19.9489 94.3409 19.8466C94.1212 19.7443 93.8523 19.6932 93.5341 19.6932C93.1061 19.6932 92.7462 19.786 92.4545 19.9716C92.1667 20.1572 92.0246 20.3977 92.0284 20.6932C92.0246 20.947 92.1174 21.1534 92.3068 21.3125C92.5 21.4716 92.8182 21.6023 93.2614 21.7045L94.75 22.0227C95.5758 22.2008 96.1894 22.483 96.5909 22.8693C96.9962 23.2557 97.2008 23.7614 97.2045 24.3864C97.2008 24.9356 97.0398 25.4205 96.7216 25.8409C96.4072 26.2576 95.9697 26.5833 95.4091 26.8182C94.8485 27.053 94.2045 27.1705 93.4773 27.1705C92.4091 27.1705 91.5492 26.947 90.8977 26.5C90.2462 26.0492 89.858 25.4223 89.733 24.6193L91.7386 24.4261C91.8295 24.8201 92.0227 25.1174 92.3182 25.3182C92.6136 25.5189 92.9981 25.6193 93.4716 25.6193C93.9602 25.6193 94.3523 25.5189 94.6477 25.3182C94.947 25.1174 95.0966 24.8693 95.0966 24.5739C95.0966 24.3239 95 24.1174 94.8068 23.9545C94.6174 23.7917 94.322 23.6667 93.9205 23.5795L92.4318 23.267C91.5947 23.0928 90.9754 22.7992 90.5739 22.3864C90.1723 21.9697 89.9735 21.4432 89.9773 20.8068C89.9735 20.2689 90.1193 19.803 90.4148 19.4091C90.714 19.0114 91.1288 18.7045 91.6591 18.4886C92.1932 18.2689 92.8087 18.1591 93.5057 18.1591C94.5284 18.1591 95.3333 18.3769 95.9205 18.8125C96.5114 19.2481 96.8769 19.8371 97.017 20.5795ZM100.486 27H98.2358L102.332 15.3636H104.935L109.037 27H106.787L103.679 17.75H103.588L100.486 27ZM100.56 22.4375H106.696V24.1307H100.56V22.4375ZM110.479 30.2727V18.2727H112.501V19.7159H112.621C112.727 19.5038 112.876 19.2784 113.07 19.0398C113.263 18.7973 113.524 18.5909 113.854 18.4205C114.183 18.2462 114.604 18.1591 115.115 18.1591C115.789 18.1591 116.397 18.3314 116.939 18.6761C117.484 19.017 117.916 19.5227 118.234 20.1932C118.556 20.8598 118.717 21.678 118.717 22.6477C118.717 23.6061 118.56 24.4205 118.246 25.0909C117.931 25.7614 117.503 26.2727 116.962 26.625C116.42 26.9773 115.806 27.1534 115.121 27.1534C114.621 27.1534 114.206 27.0701 113.876 26.9034C113.547 26.7367 113.282 26.536 113.081 26.3011C112.884 26.0625 112.731 25.8371 112.621 25.625H112.536V30.2727H110.479ZM112.496 22.6364C112.496 23.2008 112.575 23.6951 112.734 24.1193C112.897 24.5436 113.13 24.875 113.433 25.1136C113.74 25.3485 114.111 25.4659 114.547 25.4659C115.001 25.4659 115.382 25.3447 115.689 25.1023C115.996 24.8561 116.227 24.5208 116.382 24.0966C116.541 23.6686 116.621 23.1818 116.621 22.6364C116.621 22.0947 116.543 21.6136 116.388 21.1932C116.232 20.7727 116.001 20.4432 115.695 20.2045C115.388 19.9659 115.005 19.8466 114.547 19.8466C114.107 19.8466 113.734 19.9621 113.428 20.1932C113.121 20.4242 112.888 20.7481 112.729 21.1648C112.573 21.5814 112.496 22.072 112.496 22.6364ZM120.479 30.2727V18.2727H122.501V19.7159H122.621C122.727 19.5038 122.876 19.2784 123.07 19.0398C123.263 18.7973 123.524 18.5909 123.854 18.4205C124.183 18.2462 124.604 18.1591 125.115 18.1591C125.789 18.1591 126.397 18.3314 126.939 18.6761C127.484 19.017 127.916 19.5227 128.234 20.1932C128.556 20.8598 128.717 21.678 128.717 22.6477C128.717 23.6061 128.56 24.4205 128.246 25.0909C127.931 25.7614 127.503 26.2727 126.962 26.625C126.42 26.9773 125.806 27.1534 125.121 27.1534C124.621 27.1534 124.206 27.0701 123.876 26.9034C123.547 26.7367 123.282 26.536 123.081 26.3011C122.884 26.0625 122.731 25.8371 122.621 25.625H122.536V30.2727H120.479ZM122.496 22.6364C122.496 23.2008 122.575 23.6951 122.734 24.1193C122.897 24.5436 123.13 24.875 123.433 25.1136C123.74 25.3485 124.111 25.4659 124.547 25.4659C125.001 25.4659 125.382 25.3447 125.689 25.1023C125.996 24.8561 126.227 24.5208 126.382 24.0966C126.541 23.6686 126.621 23.1818 126.621 22.6364C126.621 22.0947 126.543 21.6136 126.388 21.1932C126.232 20.7727 126.001 20.4432 125.695 20.2045C125.388 19.9659 125.005 19.8466 124.547 19.8466C124.107 19.8466 123.734 19.9621 123.428 20.1932C123.121 20.4242 122.888 20.7481 122.729 21.1648C122.573 21.5814 122.496 22.072 122.496 22.6364Z" fill="url(#paint1_linear_809_96)"/>
<g clip-path="url(#clip0_809_96)">
<path d="M22.0435 26.4115L22.6469 26.764C23.6643 27.3574 24.8215 27.6689 25.9994 27.6665C27.3179 27.6665 28.6068 27.2755 29.7032 26.543C30.7995 25.8104 31.654 24.7692 32.1586 23.5511C32.6631 22.3329 32.7952 20.9924 32.5379 19.6992C32.2807 18.406 31.6458 17.2181 30.7134 16.2858C29.7811 15.3534 28.5932 14.7185 27.3 14.4613C26.0068 14.204 24.6663 14.3361 23.4481 14.8406C22.23 15.3452 21.1888 16.1997 20.4562 17.296C19.7237 18.3924 19.3327 19.6813 19.3327 20.9998C19.3327 22.1965 19.6469 23.344 20.236 24.3532L20.5877 24.9565L20.0435 26.9573L22.0435 26.4115ZM17.6694 29.3332L18.796 25.1932C18.0536 23.9205 17.6636 22.4732 17.666 20.9998C17.666 16.3973 21.3969 12.6665 25.9994 12.6665C30.6019 12.6665 34.3327 16.3973 34.3327 20.9998C34.3327 25.6023 30.6019 29.3332 25.9994 29.3332C24.5267 29.3355 23.0799 28.9458 21.8077 28.204L17.6694 29.3332ZM22.9919 17.0898C23.1035 17.0815 23.216 17.0815 23.3277 17.0865C23.3727 17.0898 23.4177 17.0948 23.4627 17.0998C23.5952 17.1148 23.741 17.1957 23.7902 17.3073C24.0385 17.8707 24.2802 18.4382 24.5135 19.0073C24.5652 19.134 24.5344 19.2965 24.436 19.4548C24.3684 19.5619 24.2952 19.6654 24.2169 19.7648C24.1227 19.8857 23.9202 20.1073 23.9202 20.1073C23.9202 20.1073 23.8377 20.2057 23.8694 20.3282C23.881 20.3748 23.9194 20.4423 23.9544 20.499L24.0035 20.5782C24.2169 20.934 24.5035 21.2948 24.8535 21.6348C24.9535 21.7315 25.051 21.8307 25.156 21.9232C25.546 22.2673 25.9877 22.5482 26.4644 22.7565L26.4685 22.7582C26.5394 22.789 26.5752 22.8057 26.6785 22.8498C26.7302 22.8715 26.7835 22.8907 26.8377 22.9048C26.8937 22.9191 26.9526 22.9164 27.0071 22.8971C27.0615 22.8778 27.109 22.8428 27.1435 22.7965C27.7469 22.0657 27.8019 22.0182 27.8069 22.0182V22.0198C27.8488 21.9807 27.8986 21.9511 27.9529 21.9328C28.0072 21.9146 28.0648 21.9081 28.1219 21.914C28.1719 21.9173 28.2227 21.9265 28.2694 21.9473C28.7119 22.1498 29.436 22.4657 29.436 22.4657L29.921 22.6832C30.0027 22.7223 30.0769 22.8148 30.0794 22.904C30.0827 22.9598 30.0877 23.0498 30.0685 23.2148C30.0419 23.4307 29.9769 23.6898 29.9119 23.8257C29.8673 23.9184 29.8083 24.0033 29.7369 24.0773C29.6528 24.1656 29.5607 24.246 29.4619 24.3173C29.4277 24.3431 29.3929 24.3681 29.3577 24.3923C29.254 24.4581 29.1476 24.5193 29.0385 24.5757C28.824 24.6896 28.587 24.7551 28.3444 24.7673C28.1902 24.7757 28.036 24.7873 27.881 24.779C27.8744 24.779 27.4077 24.7065 27.4077 24.7065C26.2229 24.3949 25.1272 23.8111 24.2077 23.0015C24.0194 22.8357 23.8452 22.6573 23.6669 22.4798C22.9252 21.7423 22.3652 20.9465 22.0252 20.1948C21.8512 19.8259 21.7572 19.4243 21.7494 19.0165C21.7459 18.5105 21.9113 18.0179 22.2194 17.6165C22.2802 17.5382 22.3377 17.4565 22.4369 17.3623C22.5427 17.2623 22.6094 17.209 22.6819 17.1723C22.7783 17.124 22.8834 17.0957 22.991 17.089L22.9919 17.0898Z" fill="url(#paint2_linear_809_96)"/>
</g>
<defs>
<linearGradient id="paint0_linear_809_96" x1="160.241" y1="-3.70474" x2="136.107" y2="89.033" gradientUnits="userSpaceOnUse">
<stop stop-color="#FFC500"/>
<stop offset="1" stop-color="#FFD500"/>
</linearGradient>
<linearGradient id="paint1_linear_809_96" x1="136.782" y1="8.05942" x2="124.749" y2="56.9658" gradientUnits="userSpaceOnUse">
<stop stop-color="#FFC500"/>
<stop offset="1" stop-color="#FFD500"/>
</linearGradient>
<linearGradient id="paint2_linear_809_96" x1="35.7112" y1="11.1964" x2="16.1381" y2="32.54" gradientUnits="userSpaceOnUse">
<stop stop-color="#FFC500"/>
<stop offset="1" stop-color="#FFD500"/>
</linearGradient>
<clipPath id="clip0_809_96">
<rect width="20" height="20" fill="white" transform="translate(16 11)"/>
</clipPath>
</defs>
</svg>
