<svg width="40" height="40" viewBox="0 0 40 40" fill="none" xmlns="http://www.w3.org/2000/svg">
<rect width="40" height="40" rx="8" fill="#FFC500" fill-opacity="0.1"/>
<path d="M10 22.25C10 18.1 13.3375 13.1875 20 7.5C26.6625 13.1875 30 18.1 30 22.25C30 28.475 25.25 32.5 20 32.5C14.75 32.5 10 28.475 10 22.25Z" fill="#FFC500"/>
<path fill-rule="evenodd" clip-rule="evenodd" d="M17.5 32.1894C18.308 32.3939 19.1474 32.5 20 32.5C25.25 32.5 30 28.475 30 22.25C30 18.1 26.6625 13.1875 20 7.5C19.1069 8.26239 18.2736 9.01086 17.5 9.74543C22.4973 14.4908 25 18.6563 25 22.25C25 27.4641 21.6675 31.1347 17.5 32.1894Z" fill="#0A0A0A"/>
</svg>
