<svg width="40" height="40" viewBox="0 0 40 40" fill="none" xmlns="http://www.w3.org/2000/svg">
<rect width="40" height="40" rx="8" fill="#FFC500" fill-opacity="0.1"/>
<path d="M26.25 21.25C27.5761 21.25 28.8479 21.7768 29.7855 22.7145C30.7232 23.6521 31.25 24.9239 31.25 26.25C31.25 27.5761 30.7232 28.8479 29.7855 29.7855C28.8479 30.7232 27.5761 31.25 26.25 31.25C23.5725 31.25 21.25 29.0125 21.25 26.25H18.75C18.7495 27.4631 18.3081 28.6346 17.5079 29.5463C16.7077 30.458 15.6034 31.0477 14.4006 31.2055C13.1979 31.3634 11.9788 31.0786 10.9704 30.4043C9.9621 29.7299 9.2333 28.712 8.91983 27.5401C8.60636 26.3683 8.7296 25.1224 9.26658 24.0347C9.80357 22.947 10.7177 22.0916 11.8386 21.6278C12.9595 21.1641 14.2108 21.1237 15.3593 21.5141C16.5078 21.9045 17.4752 22.6992 18.0813 23.75H21.9187C22.3575 22.9896 22.9888 22.3581 23.7492 21.9193C24.5095 21.4804 25.3721 21.2495 26.25 21.25ZM7.5 20V17.5H10V13.75C10 12.4239 10.5268 11.1521 11.4645 10.2145C12.4021 9.27678 13.6739 8.75 15 8.75H25C26.3261 8.75 27.5979 9.27678 28.5355 10.2145C29.4732 11.1521 30 12.4239 30 13.75V17.5H32.5V20H7.5Z" fill="#FFC500"/>
<path d="M25 17.5C25 14.5 25.2083 10.4167 22.5 8.75H25C28.75 8.75 30 11.875 30 13.125V17.5H32.5V20H25C26.25 20 25 20 25 17.5Z" fill="#0A0A0A"/>
<path fill-rule="evenodd" clip-rule="evenodd" d="M25 31.0925C27.1565 30.5374 28.75 28.5798 28.75 26.25C28.75 23.9202 27.1565 21.9626 25 21.4075C25.3995 21.3047 25.8184 21.25 26.25 21.25C29.0114 21.25 31.25 23.4886 31.25 26.25C31.25 29.0114 29.0114 31.25 26.25 31.25C25.8184 31.25 25.3995 31.1953 25 31.0925Z" fill="#0A0A0A"/>
<path fill-rule="evenodd" clip-rule="evenodd" d="M25 31.0925C27.1565 30.5374 28.75 28.5798 28.75 26.25C28.75 23.9202 27.1565 21.9626 25 21.4075C25.3995 21.3047 25.8184 21.25 26.25 21.25C29.0114 21.25 31.25 23.4886 31.25 26.25C31.25 29.0114 29.0114 31.25 26.25 31.25C25.8184 31.25 25.3995 31.1953 25 31.0925Z" fill="#0A0A0A"/>
</svg>
