<svg width="40" height="40" viewBox="0 0 40 40" fill="none" xmlns="http://www.w3.org/2000/svg">
<rect width="40" height="40" rx="8" fill="#FFC500" fill-opacity="0.1"/>
<path d="M24.8249 27.5L20.8836 23.5587C20.6492 23.3244 20.3313 23.1928 19.9999 23.1928C19.6684 23.1928 19.3505 23.3244 19.1161 23.5587L15.2249 27.45C13.5167 27.2736 11.8828 26.6603 10.4804 25.6693C9.07798 24.6783 7.95438 23.3428 7.21778 21.7916C6.48119 20.2404 6.15642 18.5256 6.27475 16.8125C6.39308 15.0993 6.95053 13.4455 7.8934 12.0103C8.83627 10.5751 10.1328 9.4068 11.6581 8.61799C13.1835 7.82918 14.8862 7.4464 16.6024 7.50653C18.3186 7.56666 19.9904 8.06766 21.4568 8.96128C22.9232 9.85491 24.1348 11.1111 24.9749 12.6087C25.9984 12.4325 27.0475 12.4708 28.0555 12.7212C29.0635 12.9716 30.0085 13.4286 30.8306 14.0633C31.6528 14.698 32.3341 15.4966 32.8315 16.4084C33.3289 17.3202 33.6315 18.3253 33.7201 19.3602C33.8087 20.395 33.6814 21.437 33.3462 22.4201C33.0111 23.4032 32.4754 24.3059 31.7731 25.0711C31.0709 25.8364 30.2173 26.4474 29.2665 26.8655C28.3158 27.2836 27.2885 27.4997 26.2499 27.5H24.8261H24.8249ZM17.7899 28.415L19.9999 26.205L22.2099 28.415C22.6468 28.8521 22.9444 29.4089 23.0649 30.0151C23.1854 30.6212 23.1235 31.2495 22.8869 31.8205C22.6504 32.3915 22.2498 32.8795 21.7359 33.2228C21.2221 33.5662 20.6179 33.7494 19.9999 33.7494C19.3818 33.7494 18.7777 33.5662 18.2638 33.2228C17.7499 32.8795 17.3494 32.3915 17.1128 31.8205C16.8763 31.2495 16.8143 30.6212 16.9349 30.0151C17.0554 29.4089 17.3529 28.8521 17.7899 28.415Z" fill="#FFC500"/>
<path d="M17.79 28.415L20 26.205L22.21 28.415C22.647 28.8521 22.9445 29.4089 23.065 30.015C23.1855 30.6212 23.1236 31.2495 22.887 31.8205C22.6505 32.3914 22.25 32.8795 21.7361 33.2228C21.2222 33.5661 20.618 33.7494 20 33.7494C19.382 33.7494 18.7778 33.5661 18.2639 33.2228C17.75 32.8795 17.3495 32.3914 17.113 31.8205C16.8764 31.2495 16.8145 30.6212 16.935 30.015C17.0555 29.4089 17.353 28.8521 17.79 28.415Z" fill="#0A0A0A"/>
<path d="M23.0644 18.2247C23.0027 15.8562 21.9441 9.44938 13.3037 7.9504C19.758 6.17549 23.8457 10.317 25.0186 12.6323C24.1018 15.4466 23.2523 16.2538 23.0644 18.2247C23.0809 18.859 23.0259 19.2037 23.0259 19.0869C23.0259 18.7735 23.0392 18.4887 23.0644 18.2247Z" fill="#0A0A0A"/>
<path d="M31.3197 25.4246C33.0224 23.1589 33.8833 16.7868 27.2715 12.6095C29.8258 12.8604 32.057 14.3971 33.0977 16.8494C34.8579 20.9971 33.1316 23.6011 31.3197 25.4246C31.0996 25.7176 30.8654 25.9419 30.6314 26.0839C30.8576 25.8757 31.0894 25.6565 31.3197 25.4246Z" fill="#0A0A0A"/>
</svg>
