<svg width="40" height="40" viewBox="0 0 40 40" fill="none" xmlns="http://www.w3.org/2000/svg">
<rect width="40" height="40" rx="8" fill="#FFC500" fill-opacity="0.1"/>
<path d="M20.0002 33.75C18.1216 33.7498 16.2864 33.1853 14.7326 32.1296C13.1787 31.074 11.9778 29.5758 11.2856 27.8294C10.5934 26.083 10.4418 24.169 10.8505 22.3354C11.2592 20.5018 12.2093 18.8333 13.5777 17.5462C15.2552 15.9675 19.3752 13.125 18.7502 6.875C26.2502 11.875 30.0002 16.875 22.5002 24.375C23.7502 24.375 25.6252 24.375 28.7502 21.2875C29.0877 22.2537 29.3752 23.2925 29.3752 24.375C29.3752 26.8614 28.3875 29.246 26.6293 31.0041C24.8712 32.7623 22.4866 33.75 20.0002 33.75Z" fill="#FFC500"/>
<path fill-rule="evenodd" clip-rule="evenodd" d="M18.6334 10.1382C22.9708 14.1502 24.007 18.494 18.126 24.375C19.376 24.375 21.251 24.375 24.376 21.2875C24.4533 21.5087 24.5279 21.7337 24.5971 21.9621C29.1215 15.7629 25.4179 11.319 18.752 6.875C18.873 8.08535 18.8161 9.16791 18.6334 10.1382ZM24.9876 23.9645C24.9964 24.1006 25.001 24.2374 25.001 24.375C25.001 26.8614 24.0133 29.246 22.2551 31.0041C21.0225 32.2367 19.4821 33.0906 17.8145 33.491C18.5272 33.6621 19.2612 33.7499 20.002 33.75C22.4884 33.75 24.873 32.7623 26.6311 31.0041C28.3893 29.246 29.377 26.8614 29.377 24.375C29.377 23.2925 29.0895 22.2537 28.752 21.2875C27.222 22.7991 25.9916 23.5707 24.9876 23.9645Z" fill="#0A0A0A"/>
</svg>
