<svg width="40" height="41" viewBox="0 0 40 41" fill="none" xmlns="http://www.w3.org/2000/svg">
<rect y="0.512695" width="40" height="40" rx="8" fill="#FFC500" fill-opacity="0.1"/>
<path d="M28.75 30.5127H11.25V31.7627C11.25 32.0942 11.1183 32.4122 10.8839 32.6466C10.6495 32.881 10.3315 33.0127 10 33.0127H8.75C8.41848 33.0127 8.10054 32.881 7.86612 32.6466C7.6317 32.4122 7.5 32.0942 7.5 31.7627V20.5127L10.6413 12.1352C10.8199 11.6586 11.1398 11.2478 11.5582 10.9579C11.9766 10.668 12.4735 10.5126 12.9825 10.5127H27.0175C27.5265 10.5126 28.0234 10.668 28.4418 10.9579C28.8602 11.2478 29.1801 11.6586 29.3587 12.1352L32.5 20.5127V31.7627C32.5 32.0942 32.3683 32.4122 32.1339 32.6466C31.8995 32.881 31.5815 33.0127 31.25 33.0127H30C29.6685 33.0127 29.3505 32.881 29.1161 32.6466C28.8817 32.4122 28.75 32.0942 28.75 31.7627V30.5127ZM10.17 20.5127H29.83L27.0175 13.0127H12.9825L10.17 20.5127ZM13.125 26.7627C13.6223 26.7627 14.0992 26.5652 14.4508 26.2135C14.8025 25.8619 15 25.385 15 24.8877C15 24.3904 14.8025 23.9135 14.4508 23.5619C14.0992 23.2102 13.6223 23.0127 13.125 23.0127C12.6277 23.0127 12.1508 23.2102 11.7992 23.5619C11.4475 23.9135 11.25 24.3904 11.25 24.8877C11.25 25.385 11.4475 25.8619 11.7992 26.2135C12.1508 26.5652 12.6277 26.7627 13.125 26.7627ZM26.875 26.7627C27.3723 26.7627 27.8492 26.5652 28.2008 26.2135C28.5525 25.8619 28.75 25.385 28.75 24.8877C28.75 24.3904 28.5525 23.9135 28.2008 23.5619C27.8492 23.2102 27.3723 23.0127 26.875 23.0127C26.3777 23.0127 25.9008 23.2102 25.5492 23.5619C25.1975 23.9135 25 24.3904 25 24.8877C25 25.385 25.1975 25.8619 25.5492 26.2135C25.9008 26.5652 26.3777 26.7627 26.875 26.7627Z" fill="#0A0A0A"/>
<rect x="7.50391" y="20.5127" width="24.9922" height="10" fill="#FFC500"/>
<circle cx="13.0935" cy="24.9556" r="1.89431" fill="#0A0A0A"/>
<circle cx="26.8377" cy="24.9556" r="1.89431" fill="#0A0A0A"/>
<path d="M25.4414 7.56989L26.5381 9.56352" stroke="#FFC500" stroke-width="1.3"/>
<path d="M32.0215 10.5127L29.5893 10.8499" stroke="#FFC500" stroke-width="1.3"/>
<path d="M29.3799 7.56989L28.2937 9.56352" stroke="#FFC500" stroke-width="1.3"/>
</svg>
