<svg width="40" height="40" viewBox="0 0 40 40" fill="none" xmlns="http://www.w3.org/2000/svg">
<rect width="40" height="40" rx="8" fill="#FFC500" fill-opacity="0.1"/>
<path d="M28.7539 7.5V18.75H27.4988L27.5 20C27.5 22.7625 25.2625 25 22.5 25H20.7763L20.01 28.8888L21.1487 30.54C21.5412 31.1087 21.3987 31.8875 20.83 32.2787C20.6212 32.4225 20.3737 32.5 20.12 32.5H8.75L11.6413 19.97L8.75 18.75L13.75 7.5H28.7539ZM24.9987 18.75H22.0062L21.2675 22.5H22.5C23.8813 22.5 25 21.3813 25 20L24.9987 18.75Z" fill="#FFC500"/>
<path d="M22.5333 15H28.731V18.75H21.9922L22.5333 15Z" fill="#0A0A0A"/>
<path d="M26.249 14.5V17.0448V18.75H28.7918C29.3441 18.75 29.7918 18.3023 29.7918 17.75V12.5H28.249C27.1445 12.5 26.249 13.3954 26.249 14.5Z" fill="#0A0A0A"/>
<path d="M16.25 32.5L20 15H23.125L20.0324 28.7853L21.243 30.6684C21.243 30.6684 21.4683 30.989 21.3526 31.4755C21.1219 32.4453 20.4708 32.5 20 32.5H16.25Z" fill="#0A0A0A"/>
<rect x="26.249" y="7.5" width="6.65573" height="5" fill="#FFC500"/>
</svg>
