<svg width="40" height="41" viewBox="0 0 40 41" fill="none" xmlns="http://www.w3.org/2000/svg">
<rect y="0.512695" width="40" height="40" rx="8" fill="#FFC500" fill-opacity="0.1"/>
<path d="M25.7042 23.3537C24.2174 23.3537 22.7915 22.7631 21.7402 21.7118C20.6888 20.6605 20.0982 19.2346 20.0982 17.7478C20.0982 16.261 20.6888 14.8351 21.7402 13.7838C22.7915 12.7324 24.2174 12.1418 25.7042 12.1418C27.191 12.1418 28.6169 12.7324 29.6682 13.7838C30.7195 14.8351 31.3101 16.261 31.3101 17.7478C31.3101 19.2346 30.7195 20.6605 29.6682 21.7118C28.6169 22.7631 27.191 23.3537 25.7042 23.3537ZM29.2079 31.7627V31.0619C29.2079 30.1327 28.8388 29.2415 28.1817 28.5844C27.5246 27.9274 26.6047 25.7065 27.8885 26.8393C26.9593 26.8393 30.8208 27.4641 30.1637 28.1212C29.5066 28.7782 30.1637 28.7251 30.1637 29.6544L29.2079 31.7627H19.3975V31.0619C19.3975 30.2337 19.5606 29.4136 19.8775 28.6485C20.1945 27.8833 20.659 27.1881 21.2447 26.6024C21.8303 26.0168 22.5255 25.5522 23.2907 25.2353C24.0559 24.9184 24.876 24.7552 25.7042 24.7552C26.5324 24.7552 27.3525 24.9184 28.1176 25.2353C28.8828 25.5522 29.5781 26.0168 30.1637 26.6024C30.7493 27.1881 31.2139 27.8833 31.5308 28.6485C31.8478 29.4136 32.0109 30.2337 32.0109 31.0619V31.7627H29.2079Z" fill="#0A0A0A"/>
<path d="M14.25 19.2627C13.5113 19.2627 12.7799 19.1172 12.0974 18.8345C11.4149 18.5518 10.7949 18.1375 10.2725 17.6152C9.75019 17.0928 9.33586 16.4727 9.05318 15.7903C8.77049 15.1078 8.625 14.3764 8.625 13.6377C8.625 12.899 8.77049 12.1676 9.05318 11.4851C9.33586 10.8026 9.75019 10.1825 10.2725 9.66022C10.7949 9.13789 11.4149 8.72356 12.0974 8.44087C12.7799 8.15819 13.5113 8.0127 14.25 8.0127C15.7418 8.0127 17.1726 8.60533 18.2275 9.66022C19.2824 10.7151 19.875 12.1459 19.875 13.6377C19.875 15.1295 19.2824 16.5603 18.2275 17.6152C17.1726 18.6701 15.7418 19.2627 14.25 19.2627ZM18 31.7627V26.7627C18 25.7681 17.6049 24.8143 16.9017 24.111C16.1984 23.4078 14.7535 22.7982 13.759 22.7982C12.7644 22.7982 17.6049 21.64 16.9017 22.3433C16.1984 23.0465 19.0452 26.377 19.0452 27.3715L18 31.7627H8V26.7627C8 25.1051 8.65848 23.5154 9.83058 22.3433C11.0027 21.1712 12.5924 20.5127 14.25 20.5127C15.9076 20.5127 17.4973 21.1712 18.6694 22.3433C19.8415 23.5154 20.5 25.1051 20.5 26.7627V31.7627H18Z" fill="#FFC500"/>
</svg>
