<svg width="40" height="41" viewBox="0 0 40 41" fill="none" xmlns="http://www.w3.org/2000/svg">
<rect y="0.512695" width="40" height="40" rx="8" fill="#FFC500" fill-opacity="0.1"/>
<path d="M32.5 21.7614V30.5127C32.5 30.8442 32.3683 31.1622 32.1339 31.3966C31.8995 31.631 31.5815 31.7627 31.25 31.7627H21.25V21.7614H32.5ZM18.75 21.7614V31.7627H8.75C8.41848 31.7627 8.10054 31.631 7.86612 31.3966C7.6317 31.1622 7.5 30.8442 7.5 30.5127V21.7614H18.75ZM18.75 9.2627V19.2614H7.5V10.5127C7.5 10.1812 7.6317 9.86323 7.86612 9.62881C8.10054 9.39439 8.41848 9.2627 8.75 9.2627H18.75Z" fill="#FFC500"/>
<path d="M31.25 9.2627C31.5815 9.2627 31.8995 9.39439 32.1339 9.62881C32.3683 9.86323 32.5 10.1812 32.5 10.5127V19.2614H21.25V9.2627H31.25Z" fill="#0A0A0A"/>
</svg>
