<svg width="40" height="41" viewBox="0 0 40 41" fill="none" xmlns="http://www.w3.org/2000/svg">
<rect y="0.0656738" width="40" height="40" rx="8" fill="#FFC500" fill-opacity="0.1"/>
<rect x="14.2939" y="11.9297" width="10.8766" height="17.2579" fill="#0A0A0A"/>
<path d="M16.25 10.0657V8.81567C16.25 8.48415 16.3817 8.16621 16.6161 7.93179C16.8505 7.69737 17.1685 7.56567 17.5 7.56567H22.5C22.8315 7.56567 23.1495 7.69737 23.3839 7.93179C23.6183 8.16621 23.75 8.48415 23.75 8.81567V10.0657H27.5C27.8315 10.0657 28.1495 10.1974 28.3839 10.4318C28.6183 10.6662 28.75 10.9842 28.75 11.3157V31.3157C28.75 31.6472 28.6183 31.9651 28.3839 32.1996C28.1495 32.434 27.8315 32.5657 27.5 32.5657H12.5C12.1685 32.5657 11.8505 32.434 11.6161 32.1996C11.3817 31.9651 11.25 31.6472 11.25 31.3157V11.3157C11.25 10.9842 11.3817 10.6662 11.6161 10.4318C11.8505 10.1974 12.1685 10.0657 12.5 10.0657H16.25ZM21.25 20.0657V13.8157L15 22.5657H18.75V28.8157L25 20.0657H21.25Z" fill="#FFC500"/>
</svg>
