<svg width="40" height="40" viewBox="0 0 40 40" fill="none" xmlns="http://www.w3.org/2000/svg">
<rect width="40" height="40" rx="8" fill="#FFC500" fill-opacity="0.1"/>
<path d="M26.2502 22.5H20.824C20.2343 24.168 19.0738 25.5739 17.5478 26.4691C16.0218 27.3643 14.2284 27.6912 12.4847 27.392C10.7409 27.0928 9.15909 26.1868 8.01873 24.8342C6.87838 23.4815 6.25293 21.7692 6.25293 20C6.25293 18.2308 6.87838 16.5185 8.01873 15.1659C9.15909 13.8132 10.7409 12.9072 12.4847 12.608C14.2284 12.3088 16.0218 12.6357 17.5478 13.5309C19.0738 14.4261 20.2343 15.832 20.824 17.5H33.7502V22.5H31.2502V27.5H26.2502V22.5ZM13.7502 22.5C14.4133 22.5 15.0492 22.2366 15.518 21.7678C15.9869 21.2989 16.2502 20.663 16.2502 20C16.2502 19.337 15.9869 18.7011 15.518 18.2322C15.0492 17.7634 14.4133 17.5 13.7502 17.5C13.0872 17.5 12.4513 17.7634 11.9825 18.2322C11.5136 18.7011 11.2502 19.337 11.2502 20C11.2502 20.663 11.5136 21.2989 11.9825 21.7678C12.4513 22.2366 13.0872 22.5 13.7502 22.5Z" fill="#FFC500"/>
<rect x="26.25" y="20" width="3.75" height="7.5" fill="#0A0A0A"/>
<rect x="21.25" y="20" width="7.5" height="2.5" fill="#0A0A0A"/>
</svg>
