<svg width="40" height="41" viewBox="0 0 40 41" fill="none" xmlns="http://www.w3.org/2000/svg">
<rect y="0.0656738" width="40" height="40" rx="8" fill="#FFC500" fill-opacity="0.1"/>
<path d="M8.95108 10.6507C10.2445 9.3574 11.9364 8.53815 13.753 8.32538C15.5697 8.11262 17.405 8.51877 18.9623 9.47817L14.6961 13.7457C13.7721 14.6678 13.2454 15.9148 13.2285 17.2201C13.2116 18.5254 13.7059 19.7856 14.6058 20.7313C15.5057 21.6771 16.7397 22.2334 18.0443 22.2814C19.3488 22.3293 20.6204 21.8652 21.5873 20.9882L21.7673 20.8169L27.0711 26.1194L21.7673 31.4232C21.2985 31.8919 20.6627 32.1551 19.9998 32.1551C19.3369 32.1551 18.7011 31.8919 18.2323 31.4232L8.94983 22.1407C7.42624 20.617 6.57031 18.5504 6.57031 16.3957C6.57031 14.2409 7.42624 12.1744 8.94983 10.6507H8.95108Z" fill="#FFC500"/>
<path d="M22.6511 18.1657C22.4167 17.9313 22.0988 17.7997 21.7673 17.7997C21.4359 17.7997 21.118 17.9313 20.8836 18.1657L19.9998 19.0482C19.7692 19.2869 19.4933 19.4774 19.1883 19.6084C18.8833 19.7394 18.5553 19.8084 18.2233 19.8113C17.8914 19.8142 17.5622 19.7509 17.2549 19.6252C16.9477 19.4995 16.6686 19.3139 16.4338 19.0792C16.1991 18.8444 16.0135 18.5653 15.8878 18.2581C15.7621 17.9508 15.6988 17.6216 15.7017 17.2897C15.7046 16.9577 15.7736 16.6297 15.9046 16.3247C16.0356 16.0197 16.2261 15.7438 16.4648 15.5132L23.5023 8.47317C25.1685 8.09421 26.9117 8.25017 28.4841 8.91889C30.0565 9.58761 31.3781 10.735 32.2609 12.198C33.1437 13.661 33.5428 15.3651 33.4015 17.068C33.2601 18.7708 32.5855 20.3858 31.4736 21.6832L28.8386 24.3519L22.6511 18.1644V18.1657Z" fill="#0A0A0A"/>
</svg>
