<svg width="40" height="41" viewBox="0 0 40 41" fill="none" xmlns="http://www.w3.org/2000/svg">
<rect y="0.0656738" width="40" height="40" rx="8" fill="#FFC500" fill-opacity="0.1"/>
<path d="M8.75 28.8157V10.0657C8.75 9.73415 8.8817 9.41621 9.11612 9.18179C9.35054 8.94737 9.66848 8.81567 10 8.81567H21.25C21.5815 8.81567 21.8995 8.94737 22.1339 9.18179C22.3683 9.41621 22.5 9.73415 22.5 10.0657V20.0657H25C25.663 20.0657 26.2989 20.3291 26.7678 20.7979C27.2366 21.2667 27.5 21.9026 27.5 22.5657V27.5657C27.5 27.8972 27.6317 28.2151 27.8661 28.4496C28.1005 28.684 28.4185 28.8157 28.75 28.8157C29.0815 28.8157 29.3995 28.684 29.6339 28.4496C29.8683 28.2151 30 27.8972 30 27.5657V18.8157H27.5C27.1685 18.8157 26.8505 18.684 26.6161 18.4496C26.3817 18.2151 26.25 17.8972 26.25 17.5657V13.0832L24.1788 11.0119L25.9463 9.24442L32.1338 15.4319C32.25 15.5478 32.3422 15.6856 32.405 15.8373C32.4679 15.9889 32.5002 16.1515 32.5 16.3157V27.5657C32.5 28.5602 32.1049 29.5141 31.4017 30.2173C30.6984 30.9206 29.7446 31.3157 28.75 31.3157C27.7554 31.3157 26.8016 30.9206 26.0983 30.2173C25.3951 29.5141 25 28.5602 25 27.5657V22.5657H22.5V28.8157H23.75V31.3157H7.5V28.8157H8.75ZM11.25 11.3157V18.8157H20V11.3157H11.25Z" fill="#0A0A0A"/>
<path fill-rule="evenodd" clip-rule="evenodd" d="M22.5 20.0657H22.5068V22.5657H22.5V28.8157H23.75V31.3157H7.5V28.8157H8.75V10.0657C8.75 9.73415 8.8817 9.41621 9.11612 9.18179C9.35054 8.94737 9.66848 8.81567 10 8.81567H21.25C21.5815 8.81567 21.8995 8.94737 22.1339 9.18179C22.3683 9.41621 22.5 9.73415 22.5 10.0657V20.0657ZM11.25 11.3157V18.8157H20V11.3157H11.25Z" fill="#FFC500"/>
</svg>
