<svg width="40" height="41" viewBox="0 0 40 41" fill="none" xmlns="http://www.w3.org/2000/svg">
<rect y="0.565674" width="40" height="40" rx="8" fill="#FFC500" fill-opacity="0.1"/>
<rect x="13.1221" y="12.4632" width="14.2629" height="15.6005" fill="#0A0A0A"/>
<path d="M31.25 30.5657H33.75V33.0657H6.25V30.5657H8.75V9.31567C8.75 8.98415 8.8817 8.66621 9.11612 8.43179C9.35054 8.19737 9.66848 8.06567 10 8.06567H30C30.3315 8.06567 30.6495 8.19737 30.8839 8.43179C31.1183 8.66621 31.25 8.98415 31.25 9.31567V30.5657ZM15 19.3157V21.8157H18.75V19.3157H15ZM15 14.3157V16.8157H18.75V14.3157H15ZM15 24.3157V26.8157H18.75V24.3157H15ZM21.25 24.3157V26.8157H25V24.3157H21.25ZM21.25 19.3157V21.8157H25V19.3157H21.25ZM21.25 14.3157V16.8157H25V14.3157H21.25Z" fill="#FFC500"/>
</svg>
