<svg width="40" height="41" viewBox="0 0 40 41" fill="none" xmlns="http://www.w3.org/2000/svg">
<rect y="0.0656738" width="40" height="40" rx="8" fill="#FFC500" fill-opacity="0.1"/>
<path d="M20 12.5657V16.3157L25 11.3157L20 6.31567V10.0657C17.3478 10.0657 14.8043 11.1192 12.9289 12.9946C11.0536 14.87 10 17.4135 10 20.0657C10 22.0282 10.575 23.8532 11.55 25.3907L13.375 23.5657C12.7981 22.4894 12.4974 21.2868 12.5 20.0657C12.5 18.0766 13.2902 16.1689 14.6967 14.7624C16.1032 13.3559 18.0109 12.5657 20 12.5657Z" fill="#FFC500"/>
<path d="M28.45 14.7407L26.625 16.5657C27.175 17.6157 27.5 18.8157 27.5 20.0657C27.5 22.0548 26.7098 23.9625 25.3033 25.369C23.8968 26.7755 21.9891 27.5657 20 27.5657V23.8157L15 28.8157L20 33.8157V30.0657C22.6522 30.0657 25.1957 29.0121 27.0711 27.1367C28.9464 25.2614 30 22.7178 30 20.0657C30 18.1032 29.425 16.2782 28.45 14.7407Z" fill="#0A0A0A"/>
</svg>
