<svg width="40" height="41" viewBox="0 0 40 41" fill="none" xmlns="http://www.w3.org/2000/svg">
<rect y="0.0656738" width="40" height="40" rx="8" fill="#FFC500" fill-opacity="0.1"/>
<path d="M22.715 8.81567C23.3775 8.81567 24.0138 9.07817 24.4825 9.54817L30.5175 15.5832C30.9862 16.0519 31.25 16.6882 31.25 17.3507V26.3157H33.75V28.8157H23.5925C23.0362 30.9732 21.08 32.5657 18.75 32.5657C16.42 32.5657 14.4625 30.9732 13.9075 28.8157H8.75C8.06 28.8157 7.5 28.2557 7.5 27.5657V11.3157C7.5 9.93442 8.61875 8.81567 10 8.81567H22.715ZM18.75 25.0657C17.3687 25.0657 16.25 26.1844 16.25 27.5657C16.25 28.9469 17.3687 30.0657 18.75 30.0657C20.1313 30.0657 21.25 28.9469 21.25 27.5657C21.25 26.1844 20.1313 25.0657 18.75 25.0657ZM22.5 13.8157H12.5V21.3157H22.5V13.8157Z" fill="#FFC500"/>
<rect x="15.0479" y="16.3426" width="4.95215" height="2.50517" fill="#0A0A0A"/>
<circle cx="18.7287" cy="27.8459" r="3.5" stroke="#0A0A0A" stroke-width="2.81685"/>
</svg>
