<svg width="40" height="41" viewBox="0 0 40 41" fill="none" xmlns="http://www.w3.org/2000/svg">
<rect y="0.0656738" width="40" height="40" rx="8" fill="#FFC500" fill-opacity="0.1"/>
<path d="M11.25 7.56567H28.75C29.0815 7.56567 29.3995 7.69737 29.6339 7.93179C29.8683 8.16621 30 8.48415 30 8.81567V32.7444C30.0001 32.8562 29.9703 32.9659 29.9136 33.0622C29.8569 33.1586 29.7755 33.2379 29.6777 33.292C29.5799 33.3462 29.4694 33.3731 29.3577 33.37C29.246 33.3669 29.1371 33.3339 29.0425 33.2744L20 27.6032L10.9575 33.2732C10.863 33.3326 10.7542 33.3656 10.6426 33.3687C10.531 33.3719 10.4206 33.3451 10.3229 33.2911C10.2251 33.2371 10.1436 33.1579 10.0869 33.0618C10.0301 32.9657 10.0001 32.8561 10 32.7444V8.81567C10 8.48415 10.1317 8.16621 10.3661 7.93179C10.6005 7.69737 10.9185 7.56567 11.25 7.56567Z" fill="#0A0A0A"/>
<path fill-rule="evenodd" clip-rule="evenodd" d="M20.0361 7.56567H11.25C10.9185 7.56567 10.6005 7.69737 10.3661 7.93179C10.1317 8.16621 10 8.48415 10 8.81567V32.7444C10.0001 32.8561 10.0301 32.9657 10.0869 33.0618C10.1436 33.1579 10.2251 33.2371 10.3229 33.2911C10.4206 33.3451 10.531 33.3719 10.6426 33.3687C10.7542 33.3656 10.863 33.3326 10.9575 33.2732L20 27.6032L20.0361 27.6258V7.56567Z" fill="#FFC500"/>
</svg>
