<svg width="40" height="40" viewBox="0 0 40 40" fill="none" xmlns="http://www.w3.org/2000/svg">
<rect width="40" height="40" rx="8" fill="#FFC500" fill-opacity="0.1"/>
<path d="M32.5 20V31.25C32.5 31.5815 32.3683 31.8995 32.1339 32.1339C31.8995 32.3683 31.5815 32.5 31.25 32.5H30C29.6685 32.5 29.3505 32.3683 29.1161 32.1339C28.8817 31.8995 28.75 31.5815 28.75 31.25V30H11.25V31.25C11.25 31.5815 11.1183 31.8995 10.8839 32.1339C10.6495 32.3683 10.3315 32.5 10 32.5H8.75C8.41848 32.5 8.10054 32.3683 7.86612 32.1339C7.6317 31.8995 7.5 31.5815 7.5 31.25V20L10.6 12.765C10.7929 12.315 11.1137 11.9315 11.5226 11.6622C11.9314 11.3929 12.4104 11.2496 12.9 11.25H16.25V8.75H23.75V11.25H27.1012C27.5904 11.2501 28.0688 11.3936 28.4772 11.6629C28.8856 11.9322 29.206 12.3154 29.3987 12.765L32.5 20ZM10.22 20H29.78L27.1012 13.75H12.9L10.2213 20H10.22ZM13.125 26.25C13.6223 26.25 14.0992 26.0525 14.4508 25.7008C14.8025 25.3492 15 24.8723 15 24.375C15 23.8777 14.8025 23.4008 14.4508 23.0492C14.0992 22.6975 13.6223 22.5 13.125 22.5C12.6277 22.5 12.1508 22.6975 11.7992 23.0492C11.4475 23.4008 11.25 23.8777 11.25 24.375C11.25 24.8723 11.4475 25.3492 11.7992 25.7008C12.1508 26.0525 12.6277 26.25 13.125 26.25ZM26.875 26.25C27.3723 26.25 27.8492 26.0525 28.2008 25.7008C28.5525 25.3492 28.75 24.8723 28.75 24.375C28.75 23.8777 28.5525 23.4008 28.2008 23.0492C27.8492 22.6975 27.3723 22.5 26.875 22.5C26.3777 22.5 25.9008 22.6975 25.5492 23.0492C25.1975 23.4008 25 23.8777 25 24.375C25 24.8723 25.1975 25.3492 25.5492 25.7008C25.9008 26.0525 26.3777 26.25 26.875 26.25Z" fill="#0A0A0A"/>
<rect x="7.5" y="20" width="25" height="10" fill="#FFC500"/>
<circle cx="13.1665" cy="24.369" r="1.90674" fill="#0A0A0A"/>
<circle cx="26.8569" cy="24.369" r="1.90674" fill="#0A0A0A"/>
<rect x="16.0898" y="8.68184" width="8.0233" height="2.61122" fill="#FFC500"/>
</svg>
