<svg width="290" height="88" viewBox="0 0 290 88" fill="none" xmlns="http://www.w3.org/2000/svg">
<rect x="10" y="10" width="270" height="68" rx="34" fill="white"/>
<rect x="5" y="5" width="280" height="78" rx="39" stroke="url(#paint0_linear_200_1091)" stroke-opacity="0.3" stroke-width="10"/>
<path d="M69.642 40H67.392L71.4886 28.3636H74.0909L78.1932 40H75.9432L72.8352 30.75H72.7443L69.642 40ZM69.7159 35.4375H75.8523V37.1307H69.7159V35.4375ZM83.1761 40.1705C82.3049 40.1705 81.5568 39.9792 80.9318 39.5966C80.3106 39.214 79.8314 38.6856 79.4943 38.0114C79.161 37.3333 78.9943 36.553 78.9943 35.6705C78.9943 34.7841 79.1648 34.0019 79.5057 33.3239C79.8466 32.642 80.3277 32.1117 80.9489 31.733C81.5739 31.3504 82.3125 31.1591 83.1648 31.1591C83.8731 31.1591 84.5 31.2898 85.0455 31.5511C85.5947 31.8087 86.0322 32.1742 86.358 32.6477C86.6837 33.1174 86.8693 33.6667 86.9148 34.2955H84.9489C84.8693 33.875 84.6799 33.5246 84.3807 33.2443C84.0852 32.9602 83.6894 32.8182 83.1932 32.8182C82.7727 32.8182 82.4034 32.9318 82.0852 33.1591C81.767 33.3826 81.5189 33.7045 81.3409 34.125C81.1667 34.5455 81.0795 35.0492 81.0795 35.6364C81.0795 36.2311 81.1667 36.7424 81.3409 37.1705C81.5152 37.5947 81.7595 37.9223 82.0739 38.1534C82.392 38.3807 82.7652 38.4943 83.1932 38.4943C83.4962 38.4943 83.767 38.4375 84.0057 38.3239C84.2481 38.2064 84.4508 38.0379 84.6136 37.8182C84.7765 37.5985 84.8883 37.3314 84.9489 37.017H86.9148C86.8655 37.6345 86.6837 38.1818 86.3693 38.6591C86.0549 39.1326 85.6269 39.5038 85.0852 39.7727C84.5436 40.0379 83.9072 40.1705 83.1761 40.1705ZM92.4673 40.1705C91.5923 40.1705 90.8366 39.9886 90.2003 39.625C89.5677 39.2576 89.081 38.7386 88.7401 38.0682C88.3991 37.3939 88.2287 36.6004 88.2287 35.6875C88.2287 34.7898 88.3991 34.0019 88.7401 33.3239C89.0848 32.642 89.5658 32.1117 90.1832 31.733C90.8007 31.3504 91.526 31.1591 92.3594 31.1591C92.8973 31.1591 93.4048 31.2462 93.8821 31.4205C94.3632 31.5909 94.7874 31.8561 95.1548 32.2159C95.526 32.5758 95.8177 33.0341 96.0298 33.5909C96.242 34.1439 96.348 34.803 96.348 35.5682V36.1989H89.1946V34.8125H94.3764C94.3726 34.4186 94.2874 34.0682 94.1207 33.7614C93.9541 33.4508 93.7211 33.2064 93.4219 33.0284C93.1264 32.8504 92.7817 32.7614 92.3878 32.7614C91.9673 32.7614 91.598 32.8636 91.2798 33.0682C90.9616 33.2689 90.7135 33.5341 90.5355 33.8636C90.3613 34.1894 90.2723 34.5473 90.2685 34.9375V36.1477C90.2685 36.6553 90.3613 37.0909 90.5469 37.4545C90.7325 37.8144 90.992 38.0909 91.3253 38.2841C91.6586 38.4735 92.0488 38.5682 92.4957 38.5682C92.795 38.5682 93.0658 38.5265 93.3082 38.4432C93.5507 38.3561 93.7609 38.2292 93.9389 38.0625C94.117 37.8958 94.2514 37.6894 94.3423 37.4432L96.2628 37.6591C96.1416 38.1667 95.9105 38.6098 95.5696 38.9886C95.2325 39.3636 94.8007 39.6553 94.2741 39.8636C93.7476 40.0682 93.1454 40.1705 92.4673 40.1705ZM104.986 33.5795L103.111 33.7841C103.058 33.5947 102.965 33.4167 102.832 33.25C102.704 33.0833 102.529 32.9489 102.31 32.8466C102.09 32.7443 101.821 32.6932 101.503 32.6932C101.075 32.6932 100.715 32.786 100.423 32.9716C100.135 33.1572 99.9934 33.3977 99.9972 33.6932C99.9934 33.947 100.086 34.1534 100.276 34.3125C100.469 34.4716 100.787 34.6023 101.23 34.7045L102.719 35.0227C103.545 35.2008 104.158 35.483 104.56 35.8693C104.965 36.2557 105.17 36.7614 105.173 37.3864C105.17 37.9356 105.009 38.4205 104.69 38.8409C104.376 39.2576 103.938 39.5833 103.378 39.8182C102.817 40.053 102.173 40.1705 101.446 40.1705C100.378 40.1705 99.518 39.947 98.8665 39.5C98.215 39.0492 97.8267 38.4223 97.7017 37.6193L99.7074 37.4261C99.7983 37.8201 99.9915 38.1174 100.287 38.3182C100.582 38.5189 100.967 38.6193 101.44 38.6193C101.929 38.6193 102.321 38.5189 102.616 38.3182C102.916 38.1174 103.065 37.8693 103.065 37.5739C103.065 37.3239 102.969 37.1174 102.776 36.9545C102.586 36.7917 102.291 36.6667 101.889 36.5795L100.401 36.267C99.5634 36.0928 98.9441 35.7992 98.5426 35.3864C98.1411 34.9697 97.9422 34.4432 97.946 33.8068C97.9422 33.2689 98.0881 32.803 98.3835 32.4091C98.6828 32.0114 99.0975 31.7045 99.6278 31.4886C100.162 31.2689 100.777 31.1591 101.474 31.1591C102.497 31.1591 103.302 31.3769 103.889 31.8125C104.48 32.2481 104.846 32.8371 104.986 33.5795ZM113.767 33.5795L111.892 33.7841C111.839 33.5947 111.746 33.4167 111.614 33.25C111.485 33.0833 111.311 32.9489 111.091 32.8466C110.871 32.7443 110.602 32.6932 110.284 32.6932C109.856 32.6932 109.496 32.786 109.205 32.9716C108.917 33.1572 108.775 33.3977 108.778 33.6932C108.775 33.947 108.867 34.1534 109.057 34.3125C109.25 34.4716 109.568 34.6023 110.011 34.7045L111.5 35.0227C112.326 35.2008 112.939 35.483 113.341 35.8693C113.746 36.2557 113.951 36.7614 113.955 37.3864C113.951 37.9356 113.79 38.4205 113.472 38.8409C113.157 39.2576 112.72 39.5833 112.159 39.8182C111.598 40.053 110.955 40.1705 110.227 40.1705C109.159 40.1705 108.299 39.947 107.648 39.5C106.996 39.0492 106.608 38.4223 106.483 37.6193L108.489 37.4261C108.58 37.8201 108.773 38.1174 109.068 38.3182C109.364 38.5189 109.748 38.6193 110.222 38.6193C110.71 38.6193 111.102 38.5189 111.398 38.3182C111.697 38.1174 111.847 37.8693 111.847 37.5739C111.847 37.3239 111.75 37.1174 111.557 36.9545C111.367 36.7917 111.072 36.6667 110.67 36.5795L109.182 36.267C108.345 36.0928 107.725 35.7992 107.324 35.3864C106.922 34.9697 106.723 34.4432 106.727 33.8068C106.723 33.2689 106.869 32.803 107.165 32.4091C107.464 32.0114 107.879 31.7045 108.409 31.4886C108.943 31.2689 109.559 31.1591 110.256 31.1591C111.278 31.1591 112.083 31.3769 112.67 31.8125C113.261 32.2481 113.627 32.8371 113.767 33.5795ZM119.514 40.1705C118.639 40.1705 117.884 39.9886 117.247 39.625C116.615 39.2576 116.128 38.7386 115.787 38.0682C115.446 37.3939 115.276 36.6004 115.276 35.6875C115.276 34.7898 115.446 34.0019 115.787 33.3239C116.132 32.642 116.613 32.1117 117.23 31.733C117.848 31.3504 118.573 31.1591 119.406 31.1591C119.944 31.1591 120.452 31.2462 120.929 31.4205C121.41 31.5909 121.834 31.8561 122.202 32.2159C122.573 32.5758 122.865 33.0341 123.077 33.5909C123.289 34.1439 123.395 34.803 123.395 35.5682V36.1989H116.241V34.8125H121.423C121.42 34.4186 121.334 34.0682 121.168 33.7614C121.001 33.4508 120.768 33.2064 120.469 33.0284C120.173 32.8504 119.829 32.7614 119.435 32.7614C119.014 32.7614 118.645 32.8636 118.327 33.0682C118.009 33.2689 117.76 33.5341 117.582 33.8636C117.408 34.1894 117.319 34.5473 117.315 34.9375V36.1477C117.315 36.6553 117.408 37.0909 117.594 37.4545C117.779 37.8144 118.039 38.0909 118.372 38.2841C118.705 38.4735 119.096 38.5682 119.543 38.5682C119.842 38.5682 120.113 38.5265 120.355 38.4432C120.598 38.3561 120.808 38.2292 120.986 38.0625C121.164 37.8958 121.298 37.6894 121.389 37.4432L123.31 37.6591C123.188 38.1667 122.957 38.6098 122.616 38.9886C122.279 39.3636 121.848 39.6553 121.321 39.8636C120.795 40.0682 120.192 40.1705 119.514 40.1705ZM133.462 31.2727V32.8636H128.445V31.2727H133.462ZM129.683 29.1818H131.74V37.375C131.74 37.6515 131.782 37.8636 131.865 38.0114C131.952 38.1553 132.066 38.2538 132.206 38.3068C132.346 38.3598 132.501 38.3864 132.672 38.3864C132.801 38.3864 132.918 38.3769 133.024 38.358C133.134 38.339 133.217 38.322 133.274 38.3068L133.621 39.9148C133.511 39.9527 133.354 39.9943 133.149 40.0398C132.948 40.0852 132.702 40.1117 132.411 40.1193C131.895 40.1345 131.431 40.0568 131.018 39.8864C130.606 39.7121 130.278 39.4432 130.036 39.0795C129.797 38.7159 129.679 38.2614 129.683 37.7159V29.1818ZM140.744 36.3295V31.2727H142.801V40H140.807V38.4489H140.716C140.519 38.9375 140.195 39.3371 139.744 39.6477C139.297 39.9583 138.746 40.1136 138.091 40.1136C137.519 40.1136 137.013 39.9867 136.574 39.733C136.138 39.4754 135.797 39.1023 135.551 38.6136C135.305 38.1212 135.182 37.5265 135.182 36.8295V31.2727H137.239V36.5114C137.239 37.0644 137.39 37.5038 137.693 37.8295C137.996 38.1553 138.394 38.3182 138.886 38.3182C139.189 38.3182 139.483 38.2443 139.767 38.0966C140.051 37.9489 140.284 37.7292 140.466 37.4375C140.652 37.142 140.744 36.7727 140.744 36.3295ZM148.155 40.1534C147.469 40.1534 146.856 39.9773 146.314 39.625C145.772 39.2727 145.344 38.7614 145.03 38.0909C144.715 37.4205 144.558 36.6061 144.558 35.6477C144.558 34.678 144.717 33.8598 145.036 33.1932C145.357 32.5227 145.791 32.017 146.337 31.6761C146.882 31.3314 147.49 31.1591 148.161 31.1591C148.672 31.1591 149.092 31.2462 149.422 31.4205C149.751 31.5909 150.013 31.7973 150.206 32.0398C150.399 32.2784 150.549 32.5038 150.655 32.7159H150.74V28.3636H152.803V40H150.78V38.625H150.655C150.549 38.8371 150.395 39.0625 150.195 39.3011C149.994 39.536 149.729 39.7367 149.399 39.9034C149.07 40.0701 148.655 40.1534 148.155 40.1534ZM148.729 38.4659C149.164 38.4659 149.536 38.3485 149.842 38.1136C150.149 37.875 150.382 37.5436 150.541 37.1193C150.7 36.6951 150.78 36.2008 150.78 35.6364C150.78 35.072 150.7 34.5814 150.541 34.1648C150.386 33.7481 150.155 33.4242 149.848 33.1932C149.545 32.9621 149.172 32.8466 148.729 32.8466C148.27 32.8466 147.888 32.9659 147.581 33.2045C147.274 33.4432 147.043 33.7727 146.888 34.1932C146.732 34.6136 146.655 35.0947 146.655 35.6364C146.655 36.1818 146.732 36.6686 146.888 37.0966C147.047 37.5208 147.28 37.8561 147.587 38.1023C147.897 38.3447 148.278 38.4659 148.729 38.4659ZM158.801 40.1705C157.949 40.1705 157.21 39.983 156.585 39.608C155.96 39.233 155.475 38.7083 155.131 38.0341C154.79 37.3598 154.619 36.572 154.619 35.6705C154.619 34.7689 154.79 33.9792 155.131 33.3011C155.475 32.6231 155.96 32.0966 156.585 31.7216C157.21 31.3466 157.949 31.1591 158.801 31.1591C159.653 31.1591 160.392 31.3466 161.017 31.7216C161.642 32.0966 162.125 32.6231 162.466 33.3011C162.811 33.9792 162.983 34.7689 162.983 35.6705C162.983 36.572 162.811 37.3598 162.466 38.0341C162.125 38.7083 161.642 39.233 161.017 39.608C160.392 39.983 159.653 40.1705 158.801 40.1705ZM158.812 38.5227C159.275 38.5227 159.661 38.3958 159.972 38.142C160.282 37.8845 160.513 37.5398 160.665 37.108C160.82 36.6761 160.898 36.1951 160.898 35.6648C160.898 35.1307 160.82 34.6477 160.665 34.2159C160.513 33.7803 160.282 33.4337 159.972 33.1761C159.661 32.9186 159.275 32.7898 158.812 32.7898C158.339 32.7898 157.945 32.9186 157.631 33.1761C157.32 33.4337 157.087 33.7803 156.932 34.2159C156.78 34.6477 156.705 35.1307 156.705 35.6648C156.705 36.1951 156.78 36.6761 156.932 37.108C157.087 37.5398 157.32 37.8845 157.631 38.142C157.945 38.3958 158.339 38.5227 158.812 38.5227ZM174.521 43.2727V38.625H174.436C174.33 38.8371 174.177 39.0625 173.976 39.3011C173.775 39.536 173.51 39.7367 173.18 39.9034C172.851 40.0701 172.436 40.1534 171.936 40.1534C171.25 40.1534 170.637 39.9773 170.095 39.625C169.554 39.2727 169.125 38.7614 168.811 38.0909C168.497 37.4205 168.339 36.6061 168.339 35.6477C168.339 34.678 168.499 33.8598 168.817 33.1932C169.139 32.5227 169.572 32.017 170.118 31.6761C170.663 31.3314 171.271 31.1591 171.942 31.1591C172.453 31.1591 172.874 31.2462 173.203 31.4205C173.533 31.5909 173.794 31.7973 173.987 32.0398C174.18 32.2784 174.33 32.5038 174.436 32.7159H174.561V31.2727H176.584V43.2727H174.521ZM172.51 38.4659C172.946 38.4659 173.317 38.3485 173.624 38.1136C173.93 37.875 174.163 37.5436 174.322 37.1193C174.482 36.6951 174.561 36.2008 174.561 35.6364C174.561 35.072 174.482 34.5814 174.322 34.1648C174.167 33.7481 173.936 33.4242 173.629 33.1932C173.326 32.9621 172.953 32.8466 172.51 32.8466C172.052 32.8466 171.669 32.9659 171.362 33.2045C171.055 33.4432 170.824 33.7727 170.669 34.1932C170.514 34.6136 170.436 35.0947 170.436 35.6364C170.436 36.1818 170.514 36.6686 170.669 37.0966C170.828 37.5208 171.061 37.8561 171.368 38.1023C171.679 38.3447 172.059 38.4659 172.51 38.4659ZM184.26 36.3295V31.2727H186.317V40H184.322V38.4489H184.232C184.035 38.9375 183.711 39.3371 183.26 39.6477C182.813 39.9583 182.262 40.1136 181.607 40.1136C181.035 40.1136 180.529 39.9867 180.089 39.733C179.654 39.4754 179.313 39.1023 179.067 38.6136C178.821 38.1212 178.697 37.5265 178.697 36.8295V31.2727H180.754V36.5114C180.754 37.0644 180.906 37.5038 181.209 37.8295C181.512 38.1553 181.91 38.3182 182.402 38.3182C182.705 38.3182 182.999 38.2443 183.283 38.0966C183.567 37.9489 183.8 37.7292 183.982 37.4375C184.167 37.142 184.26 36.7727 184.26 36.3295ZM192.295 40.1705C191.42 40.1705 190.665 39.9886 190.028 39.625C189.396 39.2576 188.909 38.7386 188.568 38.0682C188.227 37.3939 188.057 36.6004 188.057 35.6875C188.057 34.7898 188.227 34.0019 188.568 33.3239C188.913 32.642 189.394 32.1117 190.011 31.733C190.629 31.3504 191.354 31.1591 192.188 31.1591C192.725 31.1591 193.233 31.2462 193.71 31.4205C194.191 31.5909 194.616 31.8561 194.983 32.2159C195.354 32.5758 195.646 33.0341 195.858 33.5909C196.07 34.1439 196.176 34.803 196.176 35.5682V36.1989H189.023V34.8125H194.205C194.201 34.4186 194.116 34.0682 193.949 33.7614C193.782 33.4508 193.549 33.2064 193.25 33.0284C192.955 32.8504 192.61 32.7614 192.216 32.7614C191.795 32.7614 191.426 32.8636 191.108 33.0682C190.79 33.2689 190.542 33.5341 190.364 33.8636C190.189 34.1894 190.1 34.5473 190.097 34.9375V36.1477C190.097 36.6553 190.189 37.0909 190.375 37.4545C190.561 37.8144 190.82 38.0909 191.153 38.2841C191.487 38.4735 191.877 38.5682 192.324 38.5682C192.623 38.5682 192.894 38.5265 193.136 38.4432C193.379 38.3561 193.589 38.2292 193.767 38.0625C193.945 37.8958 194.08 37.6894 194.17 37.4432L196.091 37.6591C195.97 38.1667 195.739 38.6098 195.398 38.9886C195.061 39.3636 194.629 39.6553 194.102 39.8636C193.576 40.0682 192.973 40.1705 192.295 40.1705ZM201.885 43.2727V31.2727H203.908V32.7159H204.027C204.133 32.5038 204.283 32.2784 204.476 32.0398C204.669 31.7973 204.93 31.5909 205.26 31.4205C205.589 31.2462 206.01 31.1591 206.521 31.1591C207.196 31.1591 207.804 31.3314 208.345 31.6761C208.891 32.017 209.322 32.5227 209.641 33.1932C209.963 33.8598 210.124 34.678 210.124 35.6477C210.124 36.6061 209.966 37.4205 209.652 38.0909C209.338 38.7614 208.91 39.2727 208.368 39.625C207.826 39.9773 207.213 40.1534 206.527 40.1534C206.027 40.1534 205.612 40.0701 205.283 39.9034C204.953 39.7367 204.688 39.536 204.487 39.3011C204.29 39.0625 204.137 38.8371 204.027 38.625H203.942V43.2727H201.885ZM203.902 35.6364C203.902 36.2008 203.982 36.6951 204.141 37.1193C204.304 37.5436 204.536 37.875 204.839 38.1136C205.146 38.3485 205.518 38.4659 205.953 38.4659C206.408 38.4659 206.788 38.3447 207.095 38.1023C207.402 37.8561 207.633 37.5208 207.788 37.0966C207.947 36.6686 208.027 36.1818 208.027 35.6364C208.027 35.0947 207.949 34.6136 207.794 34.1932C207.639 33.7727 207.408 33.4432 207.101 33.2045C206.794 32.9659 206.411 32.8466 205.953 32.8466C205.514 32.8466 205.141 32.9621 204.834 33.1932C204.527 33.4242 204.294 33.7481 204.135 34.1648C203.98 34.5814 203.902 35.072 203.902 35.6364ZM211.885 40V31.2727H213.879V32.7273H213.97C214.129 32.2235 214.402 31.8352 214.788 31.5625C215.179 31.286 215.624 31.1477 216.124 31.1477C216.237 31.1477 216.364 31.1534 216.504 31.1648C216.648 31.1723 216.768 31.1856 216.862 31.2045V33.0966C216.775 33.0663 216.637 33.0398 216.447 33.017C216.262 32.9905 216.082 32.9773 215.908 32.9773C215.533 32.9773 215.196 33.0587 214.896 33.2216C214.601 33.3807 214.368 33.6023 214.197 33.8864C214.027 34.1705 213.942 34.4981 213.942 34.8693V40H211.885ZM221.733 40.1705C220.858 40.1705 220.102 39.9886 219.466 39.625C218.833 39.2576 218.347 38.7386 218.006 38.0682C217.665 37.3939 217.494 36.6004 217.494 35.6875C217.494 34.7898 217.665 34.0019 218.006 33.3239C218.35 32.642 218.831 32.1117 219.449 31.733C220.066 31.3504 220.792 31.1591 221.625 31.1591C222.163 31.1591 222.67 31.2462 223.148 31.4205C223.629 31.5909 224.053 31.8561 224.42 32.2159C224.792 32.5758 225.083 33.0341 225.295 33.5909C225.508 34.1439 225.614 34.803 225.614 35.5682V36.1989H218.46V34.8125H223.642C223.638 34.4186 223.553 34.0682 223.386 33.7614C223.22 33.4508 222.987 33.2064 222.688 33.0284C222.392 32.8504 222.047 32.7614 221.653 32.7614C221.233 32.7614 220.864 32.8636 220.545 33.0682C220.227 33.2689 219.979 33.5341 219.801 33.8636C219.627 34.1894 219.538 34.5473 219.534 34.9375V36.1477C219.534 36.6553 219.627 37.0909 219.812 37.4545C219.998 37.8144 220.258 38.0909 220.591 38.2841C220.924 38.4735 221.314 38.5682 221.761 38.5682C222.061 38.5682 222.331 38.5265 222.574 38.4432C222.816 38.3561 223.027 38.2292 223.205 38.0625C223.383 37.8958 223.517 37.6894 223.608 37.4432L225.528 37.6591C225.407 38.1667 225.176 38.6098 224.835 38.9886C224.498 39.3636 224.066 39.6553 223.54 39.8636C223.013 40.0682 222.411 40.1705 221.733 40.1705ZM231.161 40.1705C230.289 40.1705 229.541 39.9792 228.916 39.5966C228.295 39.214 227.816 38.6856 227.479 38.0114C227.145 37.3333 226.979 36.553 226.979 35.6705C226.979 34.7841 227.149 34.0019 227.49 33.3239C227.831 32.642 228.312 32.1117 228.933 31.733C229.558 31.3504 230.297 31.1591 231.149 31.1591C231.857 31.1591 232.484 31.2898 233.03 31.5511C233.579 31.8087 234.017 32.1742 234.342 32.6477C234.668 33.1174 234.854 33.6667 234.899 34.2955H232.933C232.854 33.875 232.664 33.5246 232.365 33.2443C232.07 32.9602 231.674 32.8182 231.178 32.8182C230.757 32.8182 230.388 32.9318 230.07 33.1591C229.751 33.3826 229.503 33.7045 229.325 34.125C229.151 34.5455 229.064 35.0492 229.064 35.6364C229.064 36.2311 229.151 36.7424 229.325 37.1705C229.5 37.5947 229.744 37.9223 230.058 38.1534C230.376 38.3807 230.75 38.4943 231.178 38.4943C231.481 38.4943 231.751 38.4375 231.99 38.3239C232.232 38.2064 232.435 38.0379 232.598 37.8182C232.761 37.5985 232.873 37.3314 232.933 37.017H234.899C234.85 37.6345 234.668 38.1818 234.354 38.6591C234.039 39.1326 233.611 39.5038 233.07 39.7727C232.528 40.0379 231.892 40.1705 231.161 40.1705ZM236.588 40V31.2727H238.645V40H236.588ZM237.622 30.0341C237.296 30.0341 237.016 29.9261 236.781 29.7102C236.546 29.4905 236.429 29.2273 236.429 28.9205C236.429 28.6098 236.546 28.3466 236.781 28.1307C237.016 27.911 237.296 27.8011 237.622 27.8011C237.952 27.8011 238.232 27.911 238.463 28.1307C238.698 28.3466 238.815 28.6098 238.815 28.9205C238.815 29.2273 238.698 29.4905 238.463 29.7102C238.232 29.9261 237.952 30.0341 237.622 30.0341ZM247.658 33.5795L245.783 33.7841C245.73 33.5947 245.637 33.4167 245.504 33.25C245.375 33.0833 245.201 32.9489 244.982 32.8466C244.762 32.7443 244.493 32.6932 244.175 32.6932C243.747 32.6932 243.387 32.786 243.095 32.9716C242.807 33.1572 242.665 33.3977 242.669 33.6932C242.665 33.947 242.758 34.1534 242.947 34.3125C243.141 34.4716 243.459 34.6023 243.902 34.7045L245.391 35.0227C246.216 35.2008 246.83 35.483 247.232 35.8693C247.637 36.2557 247.841 36.7614 247.845 37.3864C247.841 37.9356 247.68 38.4205 247.362 38.8409C247.048 39.2576 246.61 39.5833 246.05 39.8182C245.489 40.053 244.845 40.1705 244.118 40.1705C243.05 40.1705 242.19 39.947 241.538 39.5C240.887 39.0492 240.499 38.4223 240.374 37.6193L242.379 37.4261C242.47 37.8201 242.663 38.1174 242.959 38.3182C243.254 38.5189 243.639 38.6193 244.112 38.6193C244.601 38.6193 244.993 38.5189 245.288 38.3182C245.588 38.1174 245.737 37.8693 245.737 37.5739C245.737 37.3239 245.641 37.1174 245.447 36.9545C245.258 36.7917 244.963 36.6667 244.561 36.5795L243.072 36.267C242.235 36.0928 241.616 35.7992 241.214 35.3864C240.813 34.9697 240.614 34.4432 240.618 33.8068C240.614 33.2689 240.76 32.803 241.055 32.4091C241.355 32.0114 241.769 31.7045 242.3 31.4886C242.834 31.2689 243.449 31.1591 244.146 31.1591C245.169 31.1591 245.974 31.3769 246.561 31.8125C247.152 32.2481 247.518 32.8371 247.658 33.5795ZM252.053 40.1761C251.5 40.1761 251.001 40.0777 250.558 39.8807C250.119 39.6799 249.77 39.3845 249.513 38.9943C249.259 38.6042 249.132 38.1231 249.132 37.5511C249.132 37.0587 249.223 36.6515 249.405 36.3295C249.587 36.0076 249.835 35.75 250.149 35.5568C250.464 35.3636 250.818 35.2178 251.212 35.1193C251.609 35.017 252.02 34.9432 252.445 34.8977C252.956 34.8447 253.371 34.7973 253.689 34.7557C254.007 34.7102 254.238 34.642 254.382 34.5511C254.53 34.4564 254.604 34.3106 254.604 34.1136V34.0795C254.604 33.6515 254.477 33.3201 254.223 33.0852C253.969 32.8504 253.604 32.733 253.126 32.733C252.623 32.733 252.223 32.8428 251.928 33.0625C251.636 33.2822 251.439 33.5417 251.337 33.8409L249.416 33.5682C249.568 33.0379 249.818 32.5947 250.166 32.2386C250.515 31.8788 250.941 31.6098 251.445 31.4318C251.948 31.25 252.505 31.1591 253.115 31.1591C253.536 31.1591 253.954 31.2083 254.371 31.3068C254.787 31.4053 255.168 31.5682 255.513 31.7955C255.857 32.0189 256.134 32.3239 256.342 32.7102C256.554 33.0966 256.661 33.5795 256.661 34.1591V40H254.683V38.8011H254.615C254.49 39.0436 254.314 39.2708 254.087 39.483C253.863 39.6913 253.581 39.8598 253.24 39.9886C252.903 40.1136 252.507 40.1761 252.053 40.1761ZM252.587 38.6648C253 38.6648 253.357 38.5833 253.661 38.4205C253.964 38.2538 254.196 38.0341 254.359 37.7614C254.526 37.4886 254.609 37.1913 254.609 36.8693V35.8409C254.545 35.8939 254.435 35.9432 254.28 35.9886C254.128 36.0341 253.958 36.0739 253.768 36.108C253.579 36.142 253.392 36.1723 253.206 36.1989C253.02 36.2254 252.859 36.2481 252.723 36.267C252.416 36.3087 252.142 36.3769 251.899 36.4716C251.657 36.5663 251.465 36.6989 251.325 36.8693C251.185 37.036 251.115 37.2519 251.115 37.517C251.115 37.8958 251.253 38.1818 251.53 38.375C251.806 38.5682 252.159 38.6648 252.587 38.6648ZM68.0568 62.2727V50.2727H70.0795V51.7159H70.1989C70.3049 51.5038 70.4545 51.2784 70.6477 51.0398C70.8409 50.7973 71.1023 50.5909 71.4318 50.4205C71.7614 50.2462 72.1818 50.1591 72.6932 50.1591C73.3674 50.1591 73.9754 50.3314 74.517 50.6761C75.0625 51.017 75.4943 51.5227 75.8125 52.1932C76.1345 52.8598 76.2955 53.678 76.2955 54.6477C76.2955 55.6061 76.1383 56.4205 75.8239 57.0909C75.5095 57.7614 75.0814 58.2727 74.5398 58.625C73.9981 58.9773 73.3845 59.1534 72.6989 59.1534C72.1989 59.1534 71.7841 59.0701 71.4545 58.9034C71.125 58.7367 70.8598 58.536 70.6591 58.3011C70.4621 58.0625 70.3087 57.8371 70.1989 57.625H70.1136V62.2727H68.0568ZM70.0739 54.6364C70.0739 55.2008 70.1534 55.6951 70.3125 56.1193C70.4754 56.5436 70.7083 56.875 71.0114 57.1136C71.3182 57.3485 71.6894 57.4659 72.125 57.4659C72.5795 57.4659 72.9602 57.3447 73.267 57.1023C73.5739 56.8561 73.8049 56.5208 73.9602 56.0966C74.1193 55.6686 74.1989 55.1818 74.1989 54.6364C74.1989 54.0947 74.1212 53.6136 73.9659 53.1932C73.8106 52.7727 73.5795 52.4432 73.2727 52.2045C72.9659 51.9659 72.5833 51.8466 72.125 51.8466C71.6856 51.8466 71.3125 51.9621 71.0057 52.1932C70.6989 52.4242 70.4659 52.7481 70.3068 53.1648C70.1515 53.5814 70.0739 54.072 70.0739 54.6364ZM81.9205 59.1705C81.0455 59.1705 80.2898 58.9886 79.6534 58.625C79.0208 58.2576 78.5341 57.7386 78.1932 57.0682C77.8523 56.3939 77.6818 55.6004 77.6818 54.6875C77.6818 53.7898 77.8523 53.0019 78.1932 52.3239C78.5379 51.642 79.0189 51.1117 79.6364 50.733C80.2538 50.3504 80.9792 50.1591 81.8125 50.1591C82.3504 50.1591 82.858 50.2462 83.3352 50.4205C83.8163 50.5909 84.2405 50.8561 84.608 51.2159C84.9792 51.5758 85.2708 52.0341 85.483 52.5909C85.6951 53.1439 85.8011 53.803 85.8011 54.5682V55.1989H78.6477V53.8125H83.8295C83.8258 53.4186 83.7405 53.0682 83.5739 52.7614C83.4072 52.4508 83.1742 52.2064 82.875 52.0284C82.5795 51.8504 82.2348 51.7614 81.8409 51.7614C81.4205 51.7614 81.0511 51.8636 80.733 52.0682C80.4148 52.2689 80.1667 52.5341 79.9886 52.8636C79.8144 53.1894 79.7254 53.5473 79.7216 53.9375V55.1477C79.7216 55.6553 79.8144 56.0909 80 56.4545C80.1856 56.8144 80.4451 57.0909 80.7784 57.2841C81.1117 57.4735 81.5019 57.5682 81.9489 57.5682C82.2481 57.5682 82.5189 57.5265 82.7614 57.4432C83.0038 57.3561 83.214 57.2292 83.392 57.0625C83.5701 56.8958 83.7045 56.6894 83.7955 56.4432L85.7159 56.6591C85.5947 57.1667 85.3636 57.6098 85.0227 57.9886C84.6856 58.3636 84.2538 58.6553 83.7273 58.8636C83.2008 59.0682 82.5985 59.1705 81.9205 59.1705ZM89.598 47.3636V59H87.5412V47.3636H89.598ZM95.5199 59.1705C94.6676 59.1705 93.929 58.983 93.304 58.608C92.679 58.233 92.1941 57.7083 91.8494 57.0341C91.5085 56.3598 91.3381 55.572 91.3381 54.6705C91.3381 53.7689 91.5085 52.9792 91.8494 52.3011C92.1941 51.6231 92.679 51.0966 93.304 50.7216C93.929 50.3466 94.6676 50.1591 95.5199 50.1591C96.3722 50.1591 97.1108 50.3466 97.7358 50.7216C98.3608 51.0966 98.8438 51.6231 99.1847 52.3011C99.5294 52.9792 99.7017 53.7689 99.7017 54.6705C99.7017 55.572 99.5294 56.3598 99.1847 57.0341C98.8438 57.7083 98.3608 58.233 97.7358 58.608C97.1108 58.983 96.3722 59.1705 95.5199 59.1705ZM95.5312 57.5227C95.9934 57.5227 96.3797 57.3958 96.6903 57.142C97.0009 56.8845 97.232 56.5398 97.3835 56.108C97.5388 55.6761 97.6165 55.1951 97.6165 54.6648C97.6165 54.1307 97.5388 53.6477 97.3835 53.2159C97.232 52.7803 97.0009 52.4337 96.6903 52.1761C96.3797 51.9186 95.9934 51.7898 95.5312 51.7898C95.0578 51.7898 94.6638 51.9186 94.3494 52.1761C94.0388 52.4337 93.8059 52.7803 93.6506 53.2159C93.4991 53.6477 93.4233 54.1307 93.4233 54.6648C93.4233 55.1951 93.4991 55.6761 93.6506 56.108C93.8059 56.5398 94.0388 56.8845 94.3494 57.142C94.6638 57.3958 95.0578 57.5227 95.5312 57.5227ZM107.928 59.1761C107.375 59.1761 106.876 59.0777 106.433 58.8807C105.994 58.6799 105.645 58.3845 105.388 57.9943C105.134 57.6042 105.007 57.1231 105.007 56.5511C105.007 56.0587 105.098 55.6515 105.28 55.3295C105.462 55.0076 105.71 54.75 106.024 54.5568C106.339 54.3636 106.693 54.2178 107.087 54.1193C107.484 54.017 107.895 53.9432 108.32 53.8977C108.831 53.8447 109.246 53.7973 109.564 53.7557C109.882 53.7102 110.113 53.642 110.257 53.5511C110.405 53.4564 110.479 53.3106 110.479 53.1136V53.0795C110.479 52.6515 110.352 52.3201 110.098 52.0852C109.844 51.8504 109.479 51.733 109.001 51.733C108.498 51.733 108.098 51.8428 107.803 52.0625C107.511 52.2822 107.314 52.5417 107.212 52.8409L105.291 52.5682C105.443 52.0379 105.693 51.5947 106.041 51.2386C106.39 50.8788 106.816 50.6098 107.32 50.4318C107.823 50.25 108.38 50.1591 108.99 50.1591C109.411 50.1591 109.829 50.2083 110.246 50.3068C110.662 50.4053 111.043 50.5682 111.388 50.7955C111.732 51.0189 112.009 51.3239 112.217 51.7102C112.429 52.0966 112.536 52.5795 112.536 53.1591V59H110.558V57.8011H110.49C110.365 58.0436 110.189 58.2708 109.962 58.483C109.738 58.6913 109.456 58.8598 109.115 58.9886C108.778 59.1136 108.382 59.1761 107.928 59.1761ZM108.462 57.6648C108.875 57.6648 109.232 57.5833 109.536 57.4205C109.839 57.2538 110.071 57.0341 110.234 56.7614C110.401 56.4886 110.484 56.1913 110.484 55.8693V54.8409C110.42 54.8939 110.31 54.9432 110.155 54.9886C110.003 55.0341 109.833 55.0739 109.643 55.108C109.454 55.142 109.267 55.1723 109.081 55.1989C108.895 55.2254 108.734 55.2481 108.598 55.267C108.291 55.3087 108.017 55.3769 107.774 55.4716C107.532 55.5663 107.34 55.6989 107.2 55.8693C107.06 56.036 106.99 56.2519 106.99 56.517C106.99 56.8958 107.128 57.1818 107.405 57.375C107.681 57.5682 108.034 57.6648 108.462 57.6648ZM114.604 62.2727V50.2727H116.626V51.7159H116.746C116.852 51.5038 117.001 51.2784 117.195 51.0398C117.388 50.7973 117.649 50.5909 117.979 50.4205C118.308 50.2462 118.729 50.1591 119.24 50.1591C119.914 50.1591 120.522 50.3314 121.064 50.6761C121.609 51.017 122.041 51.5227 122.359 52.1932C122.681 52.8598 122.842 53.678 122.842 54.6477C122.842 55.6061 122.685 56.4205 122.371 57.0909C122.056 57.7614 121.628 58.2727 121.087 58.625C120.545 58.9773 119.931 59.1534 119.246 59.1534C118.746 59.1534 118.331 59.0701 118.001 58.9034C117.672 58.7367 117.407 58.536 117.206 58.3011C117.009 58.0625 116.856 57.8371 116.746 57.625H116.661V62.2727H114.604ZM116.621 54.6364C116.621 55.2008 116.7 55.6951 116.859 56.1193C117.022 56.5436 117.255 56.875 117.558 57.1136C117.865 57.3485 118.236 57.4659 118.672 57.4659C119.126 57.4659 119.507 57.3447 119.814 57.1023C120.121 56.8561 120.352 56.5208 120.507 56.0966C120.666 55.6686 120.746 55.1818 120.746 54.6364C120.746 54.0947 120.668 53.6136 120.513 53.1932C120.357 52.7727 120.126 52.4432 119.82 52.2045C119.513 51.9659 119.13 51.8466 118.672 51.8466C118.232 51.8466 117.859 51.9621 117.553 52.1932C117.246 52.4242 117.013 52.7481 116.854 53.1648C116.698 53.5814 116.621 54.072 116.621 54.6364ZM124.604 62.2727V50.2727H126.626V51.7159H126.746C126.852 51.5038 127.001 51.2784 127.195 51.0398C127.388 50.7973 127.649 50.5909 127.979 50.4205C128.308 50.2462 128.729 50.1591 129.24 50.1591C129.914 50.1591 130.522 50.3314 131.064 50.6761C131.609 51.017 132.041 51.5227 132.359 52.1932C132.681 52.8598 132.842 53.678 132.842 54.6477C132.842 55.6061 132.685 56.4205 132.371 57.0909C132.056 57.7614 131.628 58.2727 131.087 58.625C130.545 58.9773 129.931 59.1534 129.246 59.1534C128.746 59.1534 128.331 59.0701 128.001 58.9034C127.672 58.7367 127.407 58.536 127.206 58.3011C127.009 58.0625 126.856 57.8371 126.746 57.625H126.661V62.2727H124.604ZM126.621 54.6364C126.621 55.2008 126.7 55.6951 126.859 56.1193C127.022 56.5436 127.255 56.875 127.558 57.1136C127.865 57.3485 128.236 57.4659 128.672 57.4659C129.126 57.4659 129.507 57.3447 129.814 57.1023C130.121 56.8561 130.352 56.5208 130.507 56.0966C130.666 55.6686 130.746 55.1818 130.746 54.6364C130.746 54.0947 130.668 53.6136 130.513 53.1932C130.357 52.7727 130.126 52.4432 129.82 52.2045C129.513 51.9659 129.13 51.8466 128.672 51.8466C128.232 51.8466 127.859 51.9621 127.553 52.1932C127.246 52.4242 127.013 52.7481 126.854 53.1648C126.698 53.5814 126.621 54.072 126.621 54.6364Z" fill="#0A0A0A"/>
<path d="M138.527 59V47.3636H143.118C144 47.3636 144.752 47.5322 145.374 47.8693C145.995 48.2027 146.468 48.6667 146.794 49.2614C147.124 49.8523 147.288 50.5341 147.288 51.3068C147.288 52.0795 147.122 52.7614 146.788 53.3523C146.455 53.9432 145.972 54.4034 145.339 54.733C144.711 55.0625 143.949 55.2273 143.055 55.2273H140.129V53.2557H142.658C143.131 53.2557 143.521 53.1742 143.828 53.0114C144.139 52.8447 144.37 52.6155 144.521 52.3239C144.677 52.0284 144.754 51.6894 144.754 51.3068C144.754 50.9205 144.677 50.5833 144.521 50.2955C144.37 50.0038 144.139 49.7784 143.828 49.6193C143.518 49.4564 143.124 49.375 142.646 49.375H140.987V59H138.527ZM148.841 59V50.2727H151.188V51.7955H151.278C151.438 51.2538 151.705 50.8447 152.08 50.5682C152.455 50.2879 152.886 50.1477 153.375 50.1477C153.496 50.1477 153.627 50.1553 153.767 50.1705C153.907 50.1856 154.03 50.2064 154.136 50.233V52.3807C154.023 52.3466 153.866 52.3163 153.665 52.2898C153.464 52.2633 153.28 52.25 153.114 52.25C152.758 52.25 152.439 52.3277 152.159 52.483C151.883 52.6345 151.663 52.8466 151.5 53.1193C151.341 53.392 151.261 53.7064 151.261 54.0625V59H148.841ZM158.925 59.1705C158.042 59.1705 157.279 58.983 156.635 58.608C155.995 58.2292 155.5 57.7027 155.152 57.0284C154.804 56.3504 154.629 55.5644 154.629 54.6705C154.629 53.7689 154.804 52.9811 155.152 52.3068C155.5 51.6288 155.995 51.1023 156.635 50.7273C157.279 50.3485 158.042 50.1591 158.925 50.1591C159.807 50.1591 160.569 50.3485 161.209 50.7273C161.853 51.1023 162.349 51.6288 162.697 52.3068C163.046 52.9811 163.22 53.7689 163.22 54.6705C163.22 55.5644 163.046 56.3504 162.697 57.0284C162.349 57.7027 161.853 58.2292 161.209 58.608C160.569 58.983 159.807 59.1705 158.925 59.1705ZM158.936 57.2955C159.338 57.2955 159.673 57.1818 159.942 56.9545C160.211 56.7235 160.413 56.4091 160.55 56.0114C160.69 55.6136 160.76 55.161 160.76 54.6534C160.76 54.1458 160.69 53.6932 160.55 53.2955C160.413 52.8977 160.211 52.5833 159.942 52.3523C159.673 52.1212 159.338 52.0057 158.936 52.0057C158.531 52.0057 158.19 52.1212 157.913 52.3523C157.641 52.5833 157.434 52.8977 157.294 53.2955C157.158 53.6932 157.089 54.1458 157.089 54.6534C157.089 55.161 157.158 55.6136 157.294 56.0114C157.434 56.4091 157.641 56.7235 157.913 56.9545C158.19 57.1818 158.531 57.2955 158.936 57.2955ZM169.436 50.2727V52.0909H164.18V50.2727H169.436ZM165.374 48.1818H167.794V56.3182C167.794 56.5417 167.828 56.7159 167.896 56.8409C167.964 56.9621 168.059 57.0473 168.18 57.0966C168.305 57.1458 168.449 57.1705 168.612 57.1705C168.726 57.1705 168.839 57.161 168.953 57.142C169.067 57.1193 169.154 57.1023 169.214 57.0909L169.595 58.892C169.474 58.9299 169.304 58.9735 169.084 59.0227C168.864 59.0758 168.597 59.108 168.283 59.1193C167.699 59.142 167.188 59.0644 166.749 58.8864C166.313 58.7083 165.974 58.4318 165.732 58.0568C165.489 57.6818 165.37 57.2083 165.374 56.6364V48.1818ZM174.862 59.1705C173.968 59.1705 173.199 58.9811 172.555 58.6023C171.915 58.2197 171.423 57.6894 171.078 57.0114C170.737 56.3333 170.567 55.553 170.567 54.6705C170.567 53.7765 170.739 52.9924 171.084 52.3182C171.432 51.6402 171.927 51.1117 172.567 50.733C173.207 50.3504 173.968 50.1591 174.851 50.1591C175.612 50.1591 176.279 50.2973 176.851 50.5739C177.423 50.8504 177.875 51.2386 178.209 51.7386C178.542 52.2386 178.726 52.8258 178.76 53.5H176.476C176.411 53.0644 176.241 52.714 175.964 52.4489C175.692 52.1799 175.334 52.0455 174.891 52.0455C174.516 52.0455 174.188 52.1477 173.908 52.3523C173.631 52.553 173.415 52.8466 173.26 53.233C173.105 53.6193 173.027 54.0871 173.027 54.6364C173.027 55.1932 173.103 55.6667 173.254 56.0568C173.41 56.447 173.627 56.7443 173.908 56.9489C174.188 57.1534 174.516 57.2557 174.891 57.2557C175.167 57.2557 175.415 57.1989 175.635 57.0852C175.858 56.9716 176.042 56.8068 176.186 56.5909C176.334 56.3712 176.43 56.108 176.476 55.8011H178.76C178.722 56.4678 178.54 57.0549 178.214 57.5625C177.893 58.0663 177.447 58.4602 176.879 58.7443C176.311 59.0284 175.639 59.1705 174.862 59.1705ZM182.798 59.1648C182.241 59.1648 181.745 59.0682 181.31 58.875C180.874 58.678 180.529 58.3883 180.276 58.0057C180.026 57.6193 179.901 57.1383 179.901 56.5625C179.901 56.0777 179.99 55.6705 180.168 55.3409C180.346 55.0114 180.588 54.7462 180.895 54.5455C181.202 54.3447 181.55 54.1932 181.94 54.0909C182.334 53.9886 182.747 53.9167 183.179 53.875C183.687 53.822 184.096 53.7727 184.406 53.7273C184.717 53.678 184.942 53.6061 185.082 53.5114C185.223 53.4167 185.293 53.2765 185.293 53.0909V53.0568C185.293 52.697 185.179 52.4186 184.952 52.2216C184.728 52.0246 184.41 51.9261 183.997 51.9261C183.562 51.9261 183.215 52.0227 182.957 52.2159C182.7 52.4053 182.529 52.6439 182.446 52.9318L180.207 52.75C180.321 52.2197 180.545 51.7614 180.878 51.375C181.211 50.9848 181.641 50.6856 182.168 50.4773C182.698 50.2652 183.312 50.1591 184.009 50.1591C184.493 50.1591 184.957 50.2159 185.401 50.3295C185.848 50.4432 186.243 50.6193 186.588 50.858C186.937 51.0966 187.211 51.4034 187.412 51.7784C187.613 52.1496 187.713 52.5947 187.713 53.1136V59H185.418V57.7898H185.349C185.209 58.0625 185.022 58.303 184.787 58.5114C184.552 58.7159 184.27 58.8769 183.94 58.9943C183.611 59.108 183.23 59.1648 182.798 59.1648ZM183.491 57.4943C183.848 57.4943 184.162 57.4242 184.435 57.2841C184.707 57.1402 184.921 56.947 185.077 56.7045C185.232 56.4621 185.31 56.1875 185.31 55.8807V54.9545C185.234 55.0038 185.13 55.0492 184.997 55.0909C184.868 55.1288 184.723 55.1648 184.56 55.1989C184.397 55.2292 184.234 55.2576 184.071 55.2841C183.908 55.3068 183.76 55.3277 183.628 55.3466C183.344 55.3883 183.096 55.4545 182.884 55.5455C182.671 55.6364 182.507 55.7595 182.389 55.9148C182.272 56.0663 182.213 56.2557 182.213 56.483C182.213 56.8125 182.332 57.0644 182.571 57.2386C182.813 57.4091 183.12 57.4943 183.491 57.4943ZM189.591 59V50.2727H191.938V51.7955H192.028C192.188 51.2538 192.455 50.8447 192.83 50.5682C193.205 50.2879 193.636 50.1477 194.125 50.1477C194.246 50.1477 194.377 50.1553 194.517 50.1705C194.657 50.1856 194.78 50.2064 194.886 50.233V52.3807C194.773 52.3466 194.616 52.3163 194.415 52.2898C194.214 52.2633 194.03 52.25 193.864 52.25C193.508 52.25 193.189 52.3277 192.909 52.483C192.633 52.6345 192.413 52.8466 192.25 53.1193C192.091 53.392 192.011 53.7064 192.011 54.0625V59H189.591Z" fill="black"/>
<rect x="31" y="28" width="22" height="33" rx="3.63636" fill="#FFC500"/>
<rect x="37.1113" y="54.8889" width="9.77778" height="2.44444" rx="1.22222" fill="#0A0A0A"/>
<defs>
<linearGradient id="paint0_linear_200_1091" x1="-10.6332" y1="43.3585" x2="288.707" y2="61.6869" gradientUnits="userSpaceOnUse">
<stop stop-color="white"/>
<stop offset="0.604167" stop-color="white" stop-opacity="0"/>
</linearGradient>
</defs>
</svg>
