<svg width="448" height="246" viewBox="0 0 448 246" fill="none" xmlns="http://www.w3.org/2000/svg">
<g filter="url(#filter0_d_200_1091)">
<rect x="89" y="75" width="270" height="68" rx="34" fill="white" shape-rendering="crispEdges"/>
<rect x="84" y="70" width="280" height="78" rx="39" stroke="url(#paint0_linear_200_1091)" stroke-opacity="0.3" stroke-width="10" shape-rendering="crispEdges"/>
</g>
<path d="M148.642 105H146.392L150.489 93.3636H153.091L157.193 105H154.943L151.835 95.75H151.744L148.642 105ZM148.716 100.438H154.852V102.131H148.716V100.438ZM162.176 105.17C161.305 105.17 160.557 104.979 159.932 104.597C159.311 104.214 158.831 103.686 158.494 103.011C158.161 102.333 157.994 101.553 157.994 100.67C157.994 99.7841 158.165 99.0019 158.506 98.3239C158.847 97.642 159.328 97.1117 159.949 96.733C160.574 96.3504 161.313 96.1591 162.165 96.1591C162.873 96.1591 163.5 96.2898 164.045 96.5511C164.595 96.8087 165.032 97.1742 165.358 97.6477C165.684 98.1174 165.869 98.6667 165.915 99.2955H163.949C163.869 98.875 163.68 98.5246 163.381 98.2443C163.085 97.9602 162.689 97.8182 162.193 97.8182C161.773 97.8182 161.403 97.9318 161.085 98.1591C160.767 98.3826 160.519 98.7045 160.341 99.125C160.167 99.5455 160.08 100.049 160.08 100.636C160.08 101.231 160.167 101.742 160.341 102.17C160.515 102.595 160.759 102.922 161.074 103.153C161.392 103.381 161.765 103.494 162.193 103.494C162.496 103.494 162.767 103.437 163.006 103.324C163.248 103.206 163.451 103.038 163.614 102.818C163.777 102.598 163.888 102.331 163.949 102.017H165.915C165.866 102.634 165.684 103.182 165.369 103.659C165.055 104.133 164.627 104.504 164.085 104.773C163.544 105.038 162.907 105.17 162.176 105.17ZM171.467 105.17C170.592 105.17 169.837 104.989 169.2 104.625C168.568 104.258 168.081 103.739 167.74 103.068C167.399 102.394 167.229 101.6 167.229 100.688C167.229 99.7898 167.399 99.0019 167.74 98.3239C168.085 97.642 168.566 97.1117 169.183 96.733C169.801 96.3504 170.526 96.1591 171.359 96.1591C171.897 96.1591 172.405 96.2462 172.882 96.4205C173.363 96.5909 173.787 96.8561 174.155 97.2159C174.526 97.5758 174.818 98.0341 175.03 98.5909C175.242 99.1439 175.348 99.803 175.348 100.568V101.199H168.195V99.8125H173.376C173.373 99.4186 173.287 99.0682 173.121 98.7614C172.954 98.4508 172.721 98.2064 172.422 98.0284C172.126 97.8504 171.782 97.7614 171.388 97.7614C170.967 97.7614 170.598 97.8636 170.28 98.0682C169.962 98.2689 169.714 98.5341 169.536 98.8636C169.361 99.1894 169.272 99.5473 169.268 99.9375V101.148C169.268 101.655 169.361 102.091 169.547 102.455C169.732 102.814 169.992 103.091 170.325 103.284C170.659 103.473 171.049 103.568 171.496 103.568C171.795 103.568 172.066 103.527 172.308 103.443C172.551 103.356 172.761 103.229 172.939 103.062C173.117 102.896 173.251 102.689 173.342 102.443L175.263 102.659C175.142 103.167 174.911 103.61 174.57 103.989C174.232 104.364 173.801 104.655 173.274 104.864C172.748 105.068 172.145 105.17 171.467 105.17ZM183.986 98.5795L182.111 98.7841C182.058 98.5947 181.965 98.4167 181.832 98.25C181.704 98.0833 181.529 97.9489 181.31 97.8466C181.09 97.7443 180.821 97.6932 180.503 97.6932C180.075 97.6932 179.715 97.786 179.423 97.9716C179.135 98.1572 178.993 98.3977 178.997 98.6932C178.993 98.947 179.086 99.1534 179.276 99.3125C179.469 99.4716 179.787 99.6023 180.23 99.7045L181.719 100.023C182.545 100.201 183.158 100.483 183.56 100.869C183.965 101.256 184.17 101.761 184.173 102.386C184.17 102.936 184.009 103.42 183.69 103.841C183.376 104.258 182.938 104.583 182.378 104.818C181.817 105.053 181.173 105.17 180.446 105.17C179.378 105.17 178.518 104.947 177.866 104.5C177.215 104.049 176.827 103.422 176.702 102.619L178.707 102.426C178.798 102.82 178.991 103.117 179.287 103.318C179.582 103.519 179.967 103.619 180.44 103.619C180.929 103.619 181.321 103.519 181.616 103.318C181.916 103.117 182.065 102.869 182.065 102.574C182.065 102.324 181.969 102.117 181.776 101.955C181.586 101.792 181.291 101.667 180.889 101.58L179.401 101.267C178.563 101.093 177.944 100.799 177.543 100.386C177.141 99.9697 176.942 99.4432 176.946 98.8068C176.942 98.2689 177.088 97.803 177.384 97.4091C177.683 97.0114 178.098 96.7045 178.628 96.4886C179.162 96.2689 179.777 96.1591 180.474 96.1591C181.497 96.1591 182.302 96.3769 182.889 96.8125C183.48 97.2481 183.846 97.8371 183.986 98.5795ZM192.767 98.5795L190.892 98.7841C190.839 98.5947 190.746 98.4167 190.614 98.25C190.485 98.0833 190.311 97.9489 190.091 97.8466C189.871 97.7443 189.602 97.6932 189.284 97.6932C188.856 97.6932 188.496 97.786 188.205 97.9716C187.917 98.1572 187.775 98.3977 187.778 98.6932C187.775 98.947 187.867 99.1534 188.057 99.3125C188.25 99.4716 188.568 99.6023 189.011 99.7045L190.5 100.023C191.326 100.201 191.939 100.483 192.341 100.869C192.746 101.256 192.951 101.761 192.955 102.386C192.951 102.936 192.79 103.42 192.472 103.841C192.157 104.258 191.72 104.583 191.159 104.818C190.598 105.053 189.955 105.17 189.227 105.17C188.159 105.17 187.299 104.947 186.648 104.5C185.996 104.049 185.608 103.422 185.483 102.619L187.489 102.426C187.58 102.82 187.773 103.117 188.068 103.318C188.364 103.519 188.748 103.619 189.222 103.619C189.71 103.619 190.102 103.519 190.398 103.318C190.697 103.117 190.847 102.869 190.847 102.574C190.847 102.324 190.75 102.117 190.557 101.955C190.367 101.792 190.072 101.667 189.67 101.58L188.182 101.267C187.345 101.093 186.725 100.799 186.324 100.386C185.922 99.9697 185.723 99.4432 185.727 98.8068C185.723 98.2689 185.869 97.803 186.165 97.4091C186.464 97.0114 186.879 96.7045 187.409 96.4886C187.943 96.2689 188.559 96.1591 189.256 96.1591C190.278 96.1591 191.083 96.3769 191.67 96.8125C192.261 97.2481 192.627 97.8371 192.767 98.5795ZM198.514 105.17C197.639 105.17 196.884 104.989 196.247 104.625C195.615 104.258 195.128 103.739 194.787 103.068C194.446 102.394 194.276 101.6 194.276 100.688C194.276 99.7898 194.446 99.0019 194.787 98.3239C195.132 97.642 195.613 97.1117 196.23 96.733C196.848 96.3504 197.573 96.1591 198.406 96.1591C198.944 96.1591 199.452 96.2462 199.929 96.4205C200.41 96.5909 200.834 96.8561 201.202 97.2159C201.573 97.5758 201.865 98.0341 202.077 98.5909C202.289 99.1439 202.395 99.803 202.395 100.568V101.199H195.241V99.8125H200.423C200.42 99.4186 200.334 99.0682 200.168 98.7614C200.001 98.4508 199.768 98.2064 199.469 98.0284C199.173 97.8504 198.829 97.7614 198.435 97.7614C198.014 97.7614 197.645 97.8636 197.327 98.0682C197.009 98.2689 196.76 98.5341 196.582 98.8636C196.408 99.1894 196.319 99.5473 196.315 99.9375V101.148C196.315 101.655 196.408 102.091 196.594 102.455C196.779 102.814 197.039 103.091 197.372 103.284C197.705 103.473 198.096 103.568 198.543 103.568C198.842 103.568 199.113 103.527 199.355 103.443C199.598 103.356 199.808 103.229 199.986 103.062C200.164 102.896 200.298 102.689 200.389 102.443L202.31 102.659C202.188 103.167 201.957 103.61 201.616 103.989C201.279 104.364 200.848 104.655 200.321 104.864C199.795 105.068 199.192 105.17 198.514 105.17ZM212.462 96.2727V97.8636H207.445V96.2727H212.462ZM208.683 94.1818H210.74V102.375C210.74 102.652 210.782 102.864 210.865 103.011C210.952 103.155 211.066 103.254 211.206 103.307C211.346 103.36 211.501 103.386 211.672 103.386C211.801 103.386 211.918 103.377 212.024 103.358C212.134 103.339 212.217 103.322 212.274 103.307L212.621 104.915C212.511 104.953 212.354 104.994 212.149 105.04C211.948 105.085 211.702 105.112 211.411 105.119C210.895 105.134 210.431 105.057 210.018 104.886C209.606 104.712 209.278 104.443 209.036 104.08C208.797 103.716 208.679 103.261 208.683 102.716V94.1818ZM219.744 101.33V96.2727H221.801V105H219.807V103.449H219.716C219.519 103.937 219.195 104.337 218.744 104.648C218.297 104.958 217.746 105.114 217.091 105.114C216.519 105.114 216.013 104.987 215.574 104.733C215.138 104.475 214.797 104.102 214.551 103.614C214.305 103.121 214.182 102.527 214.182 101.83V96.2727H216.239V101.511C216.239 102.064 216.39 102.504 216.693 102.83C216.996 103.155 217.394 103.318 217.886 103.318C218.189 103.318 218.483 103.244 218.767 103.097C219.051 102.949 219.284 102.729 219.466 102.438C219.652 102.142 219.744 101.773 219.744 101.33ZM227.155 105.153C226.469 105.153 225.856 104.977 225.314 104.625C224.772 104.273 224.344 103.761 224.03 103.091C223.715 102.42 223.558 101.606 223.558 100.648C223.558 99.678 223.717 98.8598 224.036 98.1932C224.357 97.5227 224.791 97.017 225.337 96.6761C225.882 96.3314 226.49 96.1591 227.161 96.1591C227.672 96.1591 228.092 96.2462 228.422 96.4205C228.751 96.5909 229.013 96.7973 229.206 97.0398C229.399 97.2784 229.549 97.5038 229.655 97.7159H229.74V93.3636H231.803V105H229.78V103.625H229.655C229.549 103.837 229.395 104.062 229.195 104.301C228.994 104.536 228.729 104.737 228.399 104.903C228.07 105.07 227.655 105.153 227.155 105.153ZM227.729 103.466C228.164 103.466 228.536 103.348 228.842 103.114C229.149 102.875 229.382 102.544 229.541 102.119C229.7 101.695 229.78 101.201 229.78 100.636C229.78 100.072 229.7 99.5814 229.541 99.1648C229.386 98.7481 229.155 98.4242 228.848 98.1932C228.545 97.9621 228.172 97.8466 227.729 97.8466C227.27 97.8466 226.888 97.9659 226.581 98.2045C226.274 98.4432 226.043 98.7727 225.888 99.1932C225.732 99.6136 225.655 100.095 225.655 100.636C225.655 101.182 225.732 101.669 225.888 102.097C226.047 102.521 226.28 102.856 226.587 103.102C226.897 103.345 227.278 103.466 227.729 103.466ZM237.801 105.17C236.949 105.17 236.21 104.983 235.585 104.608C234.96 104.233 234.475 103.708 234.131 103.034C233.79 102.36 233.619 101.572 233.619 100.67C233.619 99.7689 233.79 98.9792 234.131 98.3011C234.475 97.6231 234.96 97.0966 235.585 96.7216C236.21 96.3466 236.949 96.1591 237.801 96.1591C238.653 96.1591 239.392 96.3466 240.017 96.7216C240.642 97.0966 241.125 97.6231 241.466 98.3011C241.811 98.9792 241.983 99.7689 241.983 100.67C241.983 101.572 241.811 102.36 241.466 103.034C241.125 103.708 240.642 104.233 240.017 104.608C239.392 104.983 238.653 105.17 237.801 105.17ZM237.812 103.523C238.275 103.523 238.661 103.396 238.972 103.142C239.282 102.884 239.513 102.54 239.665 102.108C239.82 101.676 239.898 101.195 239.898 100.665C239.898 100.131 239.82 99.6477 239.665 99.2159C239.513 98.7803 239.282 98.4337 238.972 98.1761C238.661 97.9186 238.275 97.7898 237.812 97.7898C237.339 97.7898 236.945 97.9186 236.631 98.1761C236.32 98.4337 236.087 98.7803 235.932 99.2159C235.78 99.6477 235.705 100.131 235.705 100.665C235.705 101.195 235.78 101.676 235.932 102.108C236.087 102.54 236.32 102.884 236.631 103.142C236.945 103.396 237.339 103.523 237.812 103.523ZM253.521 108.273V103.625H253.436C253.33 103.837 253.177 104.062 252.976 104.301C252.775 104.536 252.51 104.737 252.18 104.903C251.851 105.07 251.436 105.153 250.936 105.153C250.25 105.153 249.637 104.977 249.095 104.625C248.554 104.273 248.125 103.761 247.811 103.091C247.497 102.42 247.339 101.606 247.339 100.648C247.339 99.678 247.499 98.8598 247.817 98.1932C248.139 97.5227 248.572 97.017 249.118 96.6761C249.663 96.3314 250.271 96.1591 250.942 96.1591C251.453 96.1591 251.874 96.2462 252.203 96.4205C252.533 96.5909 252.794 96.7973 252.987 97.0398C253.18 97.2784 253.33 97.5038 253.436 97.7159H253.561V96.2727H255.584V108.273H253.521ZM251.51 103.466C251.946 103.466 252.317 103.348 252.624 103.114C252.93 102.875 253.163 102.544 253.322 102.119C253.482 101.695 253.561 101.201 253.561 100.636C253.561 100.072 253.482 99.5814 253.322 99.1648C253.167 98.7481 252.936 98.4242 252.629 98.1932C252.326 97.9621 251.953 97.8466 251.51 97.8466C251.052 97.8466 250.669 97.9659 250.362 98.2045C250.055 98.4432 249.824 98.7727 249.669 99.1932C249.514 99.6136 249.436 100.095 249.436 100.636C249.436 101.182 249.514 101.669 249.669 102.097C249.828 102.521 250.061 102.856 250.368 103.102C250.679 103.345 251.059 103.466 251.51 103.466ZM263.26 101.33V96.2727H265.317V105H263.322V103.449H263.232C263.035 103.937 262.711 104.337 262.26 104.648C261.813 104.958 261.262 105.114 260.607 105.114C260.035 105.114 259.529 104.987 259.089 104.733C258.654 104.475 258.313 104.102 258.067 103.614C257.821 103.121 257.697 102.527 257.697 101.83V96.2727H259.754V101.511C259.754 102.064 259.906 102.504 260.209 102.83C260.512 103.155 260.91 103.318 261.402 103.318C261.705 103.318 261.999 103.244 262.283 103.097C262.567 102.949 262.8 102.729 262.982 102.438C263.167 102.142 263.26 101.773 263.26 101.33ZM271.295 105.17C270.42 105.17 269.665 104.989 269.028 104.625C268.396 104.258 267.909 103.739 267.568 103.068C267.227 102.394 267.057 101.6 267.057 100.688C267.057 99.7898 267.227 99.0019 267.568 98.3239C267.913 97.642 268.394 97.1117 269.011 96.733C269.629 96.3504 270.354 96.1591 271.188 96.1591C271.725 96.1591 272.233 96.2462 272.71 96.4205C273.191 96.5909 273.616 96.8561 273.983 97.2159C274.354 97.5758 274.646 98.0341 274.858 98.5909C275.07 99.1439 275.176 99.803 275.176 100.568V101.199H268.023V99.8125H273.205C273.201 99.4186 273.116 99.0682 272.949 98.7614C272.782 98.4508 272.549 98.2064 272.25 98.0284C271.955 97.8504 271.61 97.7614 271.216 97.7614C270.795 97.7614 270.426 97.8636 270.108 98.0682C269.79 98.2689 269.542 98.5341 269.364 98.8636C269.189 99.1894 269.1 99.5473 269.097 99.9375V101.148C269.097 101.655 269.189 102.091 269.375 102.455C269.561 102.814 269.82 103.091 270.153 103.284C270.487 103.473 270.877 103.568 271.324 103.568C271.623 103.568 271.894 103.527 272.136 103.443C272.379 103.356 272.589 103.229 272.767 103.062C272.945 102.896 273.08 102.689 273.17 102.443L275.091 102.659C274.97 103.167 274.739 103.61 274.398 103.989C274.061 104.364 273.629 104.655 273.102 104.864C272.576 105.068 271.973 105.17 271.295 105.17ZM280.885 108.273V96.2727H282.908V97.7159H283.027C283.133 97.5038 283.283 97.2784 283.476 97.0398C283.669 96.7973 283.93 96.5909 284.26 96.4205C284.589 96.2462 285.01 96.1591 285.521 96.1591C286.196 96.1591 286.804 96.3314 287.345 96.6761C287.891 97.017 288.322 97.5227 288.641 98.1932C288.963 98.8598 289.124 99.678 289.124 100.648C289.124 101.606 288.966 102.42 288.652 103.091C288.338 103.761 287.91 104.273 287.368 104.625C286.826 104.977 286.213 105.153 285.527 105.153C285.027 105.153 284.612 105.07 284.283 104.903C283.953 104.737 283.688 104.536 283.487 104.301C283.29 104.062 283.137 103.837 283.027 103.625H282.942V108.273H280.885ZM282.902 100.636C282.902 101.201 282.982 101.695 283.141 102.119C283.304 102.544 283.536 102.875 283.839 103.114C284.146 103.348 284.518 103.466 284.953 103.466C285.408 103.466 285.788 103.345 286.095 103.102C286.402 102.856 286.633 102.521 286.788 102.097C286.947 101.669 287.027 101.182 287.027 100.636C287.027 100.095 286.949 99.6136 286.794 99.1932C286.639 98.7727 286.408 98.4432 286.101 98.2045C285.794 97.9659 285.411 97.8466 284.953 97.8466C284.514 97.8466 284.141 97.9621 283.834 98.1932C283.527 98.4242 283.294 98.7481 283.135 99.1648C282.98 99.5814 282.902 100.072 282.902 100.636ZM290.885 105V96.2727H292.879V97.7273H292.97C293.129 97.2235 293.402 96.8352 293.788 96.5625C294.179 96.286 294.624 96.1477 295.124 96.1477C295.237 96.1477 295.364 96.1534 295.504 96.1648C295.648 96.1723 295.768 96.1856 295.862 96.2045V98.0966C295.775 98.0663 295.637 98.0398 295.447 98.017C295.262 97.9905 295.082 97.9773 294.908 97.9773C294.533 97.9773 294.196 98.0587 293.896 98.2216C293.601 98.3807 293.368 98.6023 293.197 98.8864C293.027 99.1705 292.942 99.4981 292.942 99.8693V105H290.885ZM300.733 105.17C299.858 105.17 299.102 104.989 298.466 104.625C297.833 104.258 297.347 103.739 297.006 103.068C296.665 102.394 296.494 101.6 296.494 100.688C296.494 99.7898 296.665 99.0019 297.006 98.3239C297.35 97.642 297.831 97.1117 298.449 96.733C299.066 96.3504 299.792 96.1591 300.625 96.1591C301.163 96.1591 301.67 96.2462 302.148 96.4205C302.629 96.5909 303.053 96.8561 303.42 97.2159C303.792 97.5758 304.083 98.0341 304.295 98.5909C304.508 99.1439 304.614 99.803 304.614 100.568V101.199H297.46V99.8125H302.642C302.638 99.4186 302.553 99.0682 302.386 98.7614C302.22 98.4508 301.987 98.2064 301.688 98.0284C301.392 97.8504 301.047 97.7614 300.653 97.7614C300.233 97.7614 299.864 97.8636 299.545 98.0682C299.227 98.2689 298.979 98.5341 298.801 98.8636C298.627 99.1894 298.538 99.5473 298.534 99.9375V101.148C298.534 101.655 298.627 102.091 298.812 102.455C298.998 102.814 299.258 103.091 299.591 103.284C299.924 103.473 300.314 103.568 300.761 103.568C301.061 103.568 301.331 103.527 301.574 103.443C301.816 103.356 302.027 103.229 302.205 103.062C302.383 102.896 302.517 102.689 302.608 102.443L304.528 102.659C304.407 103.167 304.176 103.61 303.835 103.989C303.498 104.364 303.066 104.655 302.54 104.864C302.013 105.068 301.411 105.17 300.733 105.17ZM310.161 105.17C309.289 105.17 308.541 104.979 307.916 104.597C307.295 104.214 306.816 103.686 306.479 103.011C306.145 102.333 305.979 101.553 305.979 100.67C305.979 99.7841 306.149 99.0019 306.49 98.3239C306.831 97.642 307.312 97.1117 307.933 96.733C308.558 96.3504 309.297 96.1591 310.149 96.1591C310.857 96.1591 311.484 96.2898 312.03 96.5511C312.579 96.8087 313.017 97.1742 313.342 97.6477C313.668 98.1174 313.854 98.6667 313.899 99.2955H311.933C311.854 98.875 311.664 98.5246 311.365 98.2443C311.07 97.9602 310.674 97.8182 310.178 97.8182C309.757 97.8182 309.388 97.9318 309.07 98.1591C308.751 98.3826 308.503 98.7045 308.325 99.125C308.151 99.5455 308.064 100.049 308.064 100.636C308.064 101.231 308.151 101.742 308.325 102.17C308.5 102.595 308.744 102.922 309.058 103.153C309.376 103.381 309.75 103.494 310.178 103.494C310.481 103.494 310.751 103.437 310.99 103.324C311.232 103.206 311.435 103.038 311.598 102.818C311.761 102.598 311.873 102.331 311.933 102.017H313.899C313.85 102.634 313.668 103.182 313.354 103.659C313.039 104.133 312.611 104.504 312.07 104.773C311.528 105.038 310.892 105.17 310.161 105.17ZM315.588 105V96.2727H317.645V105H315.588ZM316.622 95.0341C316.296 95.0341 316.016 94.9261 315.781 94.7102C315.546 94.4905 315.429 94.2273 315.429 93.9205C315.429 93.6098 315.546 93.3466 315.781 93.1307C316.016 92.911 316.296 92.8011 316.622 92.8011C316.952 92.8011 317.232 92.911 317.463 93.1307C317.698 93.3466 317.815 93.6098 317.815 93.9205C317.815 94.2273 317.698 94.4905 317.463 94.7102C317.232 94.9261 316.952 95.0341 316.622 95.0341ZM326.658 98.5795L324.783 98.7841C324.73 98.5947 324.637 98.4167 324.504 98.25C324.375 98.0833 324.201 97.9489 323.982 97.8466C323.762 97.7443 323.493 97.6932 323.175 97.6932C322.747 97.6932 322.387 97.786 322.095 97.9716C321.807 98.1572 321.665 98.3977 321.669 98.6932C321.665 98.947 321.758 99.1534 321.947 99.3125C322.141 99.4716 322.459 99.6023 322.902 99.7045L324.391 100.023C325.216 100.201 325.83 100.483 326.232 100.869C326.637 101.256 326.841 101.761 326.845 102.386C326.841 102.936 326.68 103.42 326.362 103.841C326.048 104.258 325.61 104.583 325.05 104.818C324.489 105.053 323.845 105.17 323.118 105.17C322.05 105.17 321.19 104.947 320.538 104.5C319.887 104.049 319.499 103.422 319.374 102.619L321.379 102.426C321.47 102.82 321.663 103.117 321.959 103.318C322.254 103.519 322.639 103.619 323.112 103.619C323.601 103.619 323.993 103.519 324.288 103.318C324.588 103.117 324.737 102.869 324.737 102.574C324.737 102.324 324.641 102.117 324.447 101.955C324.258 101.792 323.963 101.667 323.561 101.58L322.072 101.267C321.235 101.093 320.616 100.799 320.214 100.386C319.813 99.9697 319.614 99.4432 319.618 98.8068C319.614 98.2689 319.76 97.803 320.055 97.4091C320.355 97.0114 320.769 96.7045 321.3 96.4886C321.834 96.2689 322.449 96.1591 323.146 96.1591C324.169 96.1591 324.974 96.3769 325.561 96.8125C326.152 97.2481 326.518 97.8371 326.658 98.5795ZM331.053 105.176C330.5 105.176 330.001 105.078 329.558 104.881C329.119 104.68 328.77 104.384 328.513 103.994C328.259 103.604 328.132 103.123 328.132 102.551C328.132 102.059 328.223 101.652 328.405 101.33C328.587 101.008 328.835 100.75 329.149 100.557C329.464 100.364 329.818 100.218 330.212 100.119C330.609 100.017 331.02 99.9432 331.445 99.8977C331.956 99.8447 332.371 99.7973 332.689 99.7557C333.007 99.7102 333.238 99.642 333.382 99.5511C333.53 99.4564 333.604 99.3106 333.604 99.1136V99.0795C333.604 98.6515 333.477 98.3201 333.223 98.0852C332.969 97.8504 332.604 97.733 332.126 97.733C331.623 97.733 331.223 97.8428 330.928 98.0625C330.636 98.2822 330.439 98.5417 330.337 98.8409L328.416 98.5682C328.568 98.0379 328.818 97.5947 329.166 97.2386C329.515 96.8788 329.941 96.6098 330.445 96.4318C330.948 96.25 331.505 96.1591 332.115 96.1591C332.536 96.1591 332.954 96.2083 333.371 96.3068C333.787 96.4053 334.168 96.5682 334.513 96.7955C334.857 97.0189 335.134 97.3239 335.342 97.7102C335.554 98.0966 335.661 98.5795 335.661 99.1591V105H333.683V103.801H333.615C333.49 104.044 333.314 104.271 333.087 104.483C332.863 104.691 332.581 104.86 332.24 104.989C331.903 105.114 331.507 105.176 331.053 105.176ZM331.587 103.665C332 103.665 332.357 103.583 332.661 103.42C332.964 103.254 333.196 103.034 333.359 102.761C333.526 102.489 333.609 102.191 333.609 101.869V100.841C333.545 100.894 333.435 100.943 333.28 100.989C333.128 101.034 332.958 101.074 332.768 101.108C332.579 101.142 332.392 101.172 332.206 101.199C332.02 101.225 331.859 101.248 331.723 101.267C331.416 101.309 331.142 101.377 330.899 101.472C330.657 101.566 330.465 101.699 330.325 101.869C330.185 102.036 330.115 102.252 330.115 102.517C330.115 102.896 330.253 103.182 330.53 103.375C330.806 103.568 331.159 103.665 331.587 103.665ZM147.057 127.273V115.273H149.08V116.716H149.199C149.305 116.504 149.455 116.278 149.648 116.04C149.841 115.797 150.102 115.591 150.432 115.42C150.761 115.246 151.182 115.159 151.693 115.159C152.367 115.159 152.975 115.331 153.517 115.676C154.063 116.017 154.494 116.523 154.812 117.193C155.134 117.86 155.295 118.678 155.295 119.648C155.295 120.606 155.138 121.42 154.824 122.091C154.509 122.761 154.081 123.273 153.54 123.625C152.998 123.977 152.384 124.153 151.699 124.153C151.199 124.153 150.784 124.07 150.455 123.903C150.125 123.737 149.86 123.536 149.659 123.301C149.462 123.062 149.309 122.837 149.199 122.625H149.114V127.273H147.057ZM149.074 119.636C149.074 120.201 149.153 120.695 149.312 121.119C149.475 121.544 149.708 121.875 150.011 122.114C150.318 122.348 150.689 122.466 151.125 122.466C151.58 122.466 151.96 122.345 152.267 122.102C152.574 121.856 152.805 121.521 152.96 121.097C153.119 120.669 153.199 120.182 153.199 119.636C153.199 119.095 153.121 118.614 152.966 118.193C152.811 117.773 152.58 117.443 152.273 117.205C151.966 116.966 151.583 116.847 151.125 116.847C150.686 116.847 150.312 116.962 150.006 117.193C149.699 117.424 149.466 117.748 149.307 118.165C149.152 118.581 149.074 119.072 149.074 119.636ZM160.92 124.17C160.045 124.17 159.29 123.989 158.653 123.625C158.021 123.258 157.534 122.739 157.193 122.068C156.852 121.394 156.682 120.6 156.682 119.688C156.682 118.79 156.852 118.002 157.193 117.324C157.538 116.642 158.019 116.112 158.636 115.733C159.254 115.35 159.979 115.159 160.812 115.159C161.35 115.159 161.858 115.246 162.335 115.42C162.816 115.591 163.241 115.856 163.608 116.216C163.979 116.576 164.271 117.034 164.483 117.591C164.695 118.144 164.801 118.803 164.801 119.568V120.199H157.648V118.812H162.83C162.826 118.419 162.741 118.068 162.574 117.761C162.407 117.451 162.174 117.206 161.875 117.028C161.58 116.85 161.235 116.761 160.841 116.761C160.42 116.761 160.051 116.864 159.733 117.068C159.415 117.269 159.167 117.534 158.989 117.864C158.814 118.189 158.725 118.547 158.722 118.938V120.148C158.722 120.655 158.814 121.091 159 121.455C159.186 121.814 159.445 122.091 159.778 122.284C160.112 122.473 160.502 122.568 160.949 122.568C161.248 122.568 161.519 122.527 161.761 122.443C162.004 122.356 162.214 122.229 162.392 122.062C162.57 121.896 162.705 121.689 162.795 121.443L164.716 121.659C164.595 122.167 164.364 122.61 164.023 122.989C163.686 123.364 163.254 123.655 162.727 123.864C162.201 124.068 161.598 124.17 160.92 124.17ZM168.598 112.364V124H166.541V112.364H168.598ZM174.52 124.17C173.668 124.17 172.929 123.983 172.304 123.608C171.679 123.233 171.194 122.708 170.849 122.034C170.509 121.36 170.338 120.572 170.338 119.67C170.338 118.769 170.509 117.979 170.849 117.301C171.194 116.623 171.679 116.097 172.304 115.722C172.929 115.347 173.668 115.159 174.52 115.159C175.372 115.159 176.111 115.347 176.736 115.722C177.361 116.097 177.844 116.623 178.185 117.301C178.529 117.979 178.702 118.769 178.702 119.67C178.702 120.572 178.529 121.36 178.185 122.034C177.844 122.708 177.361 123.233 176.736 123.608C176.111 123.983 175.372 124.17 174.52 124.17ZM174.531 122.523C174.993 122.523 175.38 122.396 175.69 122.142C176.001 121.884 176.232 121.54 176.384 121.108C176.539 120.676 176.616 120.195 176.616 119.665C176.616 119.131 176.539 118.648 176.384 118.216C176.232 117.78 176.001 117.434 175.69 117.176C175.38 116.919 174.993 116.79 174.531 116.79C174.058 116.79 173.664 116.919 173.349 117.176C173.039 117.434 172.806 117.78 172.651 118.216C172.499 118.648 172.423 119.131 172.423 119.665C172.423 120.195 172.499 120.676 172.651 121.108C172.806 121.54 173.039 121.884 173.349 122.142C173.664 122.396 174.058 122.523 174.531 122.523ZM186.928 124.176C186.375 124.176 185.876 124.078 185.433 123.881C184.994 123.68 184.645 123.384 184.388 122.994C184.134 122.604 184.007 122.123 184.007 121.551C184.007 121.059 184.098 120.652 184.28 120.33C184.462 120.008 184.71 119.75 185.024 119.557C185.339 119.364 185.693 119.218 186.087 119.119C186.484 119.017 186.895 118.943 187.32 118.898C187.831 118.845 188.246 118.797 188.564 118.756C188.882 118.71 189.113 118.642 189.257 118.551C189.405 118.456 189.479 118.311 189.479 118.114V118.08C189.479 117.652 189.352 117.32 189.098 117.085C188.844 116.85 188.479 116.733 188.001 116.733C187.498 116.733 187.098 116.843 186.803 117.062C186.511 117.282 186.314 117.542 186.212 117.841L184.291 117.568C184.443 117.038 184.693 116.595 185.041 116.239C185.39 115.879 185.816 115.61 186.32 115.432C186.823 115.25 187.38 115.159 187.99 115.159C188.411 115.159 188.829 115.208 189.246 115.307C189.662 115.405 190.043 115.568 190.388 115.795C190.732 116.019 191.009 116.324 191.217 116.71C191.429 117.097 191.536 117.58 191.536 118.159V124H189.558V122.801H189.49C189.365 123.044 189.189 123.271 188.962 123.483C188.738 123.691 188.456 123.86 188.115 123.989C187.778 124.114 187.382 124.176 186.928 124.176ZM187.462 122.665C187.875 122.665 188.232 122.583 188.536 122.42C188.839 122.254 189.071 122.034 189.234 121.761C189.401 121.489 189.484 121.191 189.484 120.869V119.841C189.42 119.894 189.31 119.943 189.155 119.989C189.003 120.034 188.833 120.074 188.643 120.108C188.454 120.142 188.267 120.172 188.081 120.199C187.895 120.225 187.734 120.248 187.598 120.267C187.291 120.309 187.017 120.377 186.774 120.472C186.532 120.566 186.34 120.699 186.2 120.869C186.06 121.036 185.99 121.252 185.99 121.517C185.99 121.896 186.128 122.182 186.405 122.375C186.681 122.568 187.034 122.665 187.462 122.665ZM193.604 127.273V115.273H195.626V116.716H195.746C195.852 116.504 196.001 116.278 196.195 116.04C196.388 115.797 196.649 115.591 196.979 115.42C197.308 115.246 197.729 115.159 198.24 115.159C198.914 115.159 199.522 115.331 200.064 115.676C200.609 116.017 201.041 116.523 201.359 117.193C201.681 117.86 201.842 118.678 201.842 119.648C201.842 120.606 201.685 121.42 201.371 122.091C201.056 122.761 200.628 123.273 200.087 123.625C199.545 123.977 198.931 124.153 198.246 124.153C197.746 124.153 197.331 124.07 197.001 123.903C196.672 123.737 196.407 123.536 196.206 123.301C196.009 123.062 195.856 122.837 195.746 122.625H195.661V127.273H193.604ZM195.621 119.636C195.621 120.201 195.7 120.695 195.859 121.119C196.022 121.544 196.255 121.875 196.558 122.114C196.865 122.348 197.236 122.466 197.672 122.466C198.126 122.466 198.507 122.345 198.814 122.102C199.121 121.856 199.352 121.521 199.507 121.097C199.666 120.669 199.746 120.182 199.746 119.636C199.746 119.095 199.668 118.614 199.513 118.193C199.357 117.773 199.126 117.443 198.82 117.205C198.513 116.966 198.13 116.847 197.672 116.847C197.232 116.847 196.859 116.962 196.553 117.193C196.246 117.424 196.013 117.748 195.854 118.165C195.698 118.581 195.621 119.072 195.621 119.636ZM203.604 127.273V115.273H205.626V116.716H205.746C205.852 116.504 206.001 116.278 206.195 116.04C206.388 115.797 206.649 115.591 206.979 115.42C207.308 115.246 207.729 115.159 208.24 115.159C208.914 115.159 209.522 115.331 210.064 115.676C210.609 116.017 211.041 116.523 211.359 117.193C211.681 117.86 211.842 118.678 211.842 119.648C211.842 120.606 211.685 121.42 211.371 122.091C211.056 122.761 210.628 123.273 210.087 123.625C209.545 123.977 208.931 124.153 208.246 124.153C207.746 124.153 207.331 124.07 207.001 123.903C206.672 123.737 206.407 123.536 206.206 123.301C206.009 123.062 205.856 122.837 205.746 122.625H205.661V127.273H203.604ZM205.621 119.636C205.621 120.201 205.7 120.695 205.859 121.119C206.022 121.544 206.255 121.875 206.558 122.114C206.865 122.348 207.236 122.466 207.672 122.466C208.126 122.466 208.507 122.345 208.814 122.102C209.121 121.856 209.352 121.521 209.507 121.097C209.666 120.669 209.746 120.182 209.746 119.636C209.746 119.095 209.668 118.614 209.513 118.193C209.357 117.773 209.126 117.443 208.82 117.205C208.513 116.966 208.13 116.847 207.672 116.847C207.232 116.847 206.859 116.962 206.553 117.193C206.246 117.424 206.013 117.748 205.854 118.165C205.698 118.581 205.621 119.072 205.621 119.636Z" fill="#0A0A0A"/>
<path d="M217.527 124V112.364H222.118C223 112.364 223.752 112.532 224.374 112.869C224.995 113.203 225.468 113.667 225.794 114.261C226.124 114.852 226.288 115.534 226.288 116.307C226.288 117.08 226.122 117.761 225.788 118.352C225.455 118.943 224.972 119.403 224.339 119.733C223.711 120.062 222.949 120.227 222.055 120.227H219.129V118.256H221.658C222.131 118.256 222.521 118.174 222.828 118.011C223.139 117.845 223.37 117.616 223.521 117.324C223.677 117.028 223.754 116.689 223.754 116.307C223.754 115.92 223.677 115.583 223.521 115.295C223.37 115.004 223.139 114.778 222.828 114.619C222.518 114.456 222.124 114.375 221.646 114.375H219.987V124H217.527ZM227.841 124V115.273H230.188V116.795H230.278C230.438 116.254 230.705 115.845 231.08 115.568C231.455 115.288 231.886 115.148 232.375 115.148C232.496 115.148 232.627 115.155 232.767 115.17C232.907 115.186 233.03 115.206 233.136 115.233V117.381C233.023 117.347 232.866 117.316 232.665 117.29C232.464 117.263 232.28 117.25 232.114 117.25C231.758 117.25 231.439 117.328 231.159 117.483C230.883 117.634 230.663 117.847 230.5 118.119C230.341 118.392 230.261 118.706 230.261 119.062V124H227.841ZM237.925 124.17C237.042 124.17 236.279 123.983 235.635 123.608C234.995 123.229 234.5 122.703 234.152 122.028C233.804 121.35 233.629 120.564 233.629 119.67C233.629 118.769 233.804 117.981 234.152 117.307C234.5 116.629 234.995 116.102 235.635 115.727C236.279 115.348 237.042 115.159 237.925 115.159C238.807 115.159 239.569 115.348 240.209 115.727C240.853 116.102 241.349 116.629 241.697 117.307C242.046 117.981 242.22 118.769 242.22 119.67C242.22 120.564 242.046 121.35 241.697 122.028C241.349 122.703 240.853 123.229 240.209 123.608C239.569 123.983 238.807 124.17 237.925 124.17ZM237.936 122.295C238.338 122.295 238.673 122.182 238.942 121.955C239.211 121.723 239.413 121.409 239.55 121.011C239.69 120.614 239.76 120.161 239.76 119.653C239.76 119.146 239.69 118.693 239.55 118.295C239.413 117.898 239.211 117.583 238.942 117.352C238.673 117.121 238.338 117.006 237.936 117.006C237.531 117.006 237.19 117.121 236.913 117.352C236.641 117.583 236.434 117.898 236.294 118.295C236.158 118.693 236.089 119.146 236.089 119.653C236.089 120.161 236.158 120.614 236.294 121.011C236.434 121.409 236.641 121.723 236.913 121.955C237.19 122.182 237.531 122.295 237.936 122.295ZM248.436 115.273V117.091H243.18V115.273H248.436ZM244.374 113.182H246.794V121.318C246.794 121.542 246.828 121.716 246.896 121.841C246.964 121.962 247.059 122.047 247.18 122.097C247.305 122.146 247.449 122.17 247.612 122.17C247.726 122.17 247.839 122.161 247.953 122.142C248.067 122.119 248.154 122.102 248.214 122.091L248.595 123.892C248.474 123.93 248.304 123.973 248.084 124.023C247.864 124.076 247.597 124.108 247.283 124.119C246.699 124.142 246.188 124.064 245.749 123.886C245.313 123.708 244.974 123.432 244.732 123.057C244.489 122.682 244.37 122.208 244.374 121.636V113.182ZM253.862 124.17C252.968 124.17 252.199 123.981 251.555 123.602C250.915 123.22 250.423 122.689 250.078 122.011C249.737 121.333 249.567 120.553 249.567 119.67C249.567 118.777 249.739 117.992 250.084 117.318C250.432 116.64 250.927 116.112 251.567 115.733C252.207 115.35 252.968 115.159 253.851 115.159C254.612 115.159 255.279 115.297 255.851 115.574C256.423 115.85 256.875 116.239 257.209 116.739C257.542 117.239 257.726 117.826 257.76 118.5H255.476C255.411 118.064 255.241 117.714 254.964 117.449C254.692 117.18 254.334 117.045 253.891 117.045C253.516 117.045 253.188 117.148 252.908 117.352C252.631 117.553 252.415 117.847 252.26 118.233C252.105 118.619 252.027 119.087 252.027 119.636C252.027 120.193 252.103 120.667 252.254 121.057C252.41 121.447 252.627 121.744 252.908 121.949C253.188 122.153 253.516 122.256 253.891 122.256C254.167 122.256 254.415 122.199 254.635 122.085C254.858 121.972 255.042 121.807 255.186 121.591C255.334 121.371 255.43 121.108 255.476 120.801H257.76C257.722 121.468 257.54 122.055 257.214 122.562C256.893 123.066 256.447 123.46 255.879 123.744C255.311 124.028 254.639 124.17 253.862 124.17ZM261.798 124.165C261.241 124.165 260.745 124.068 260.31 123.875C259.874 123.678 259.529 123.388 259.276 123.006C259.026 122.619 258.901 122.138 258.901 121.562C258.901 121.078 258.99 120.67 259.168 120.341C259.346 120.011 259.588 119.746 259.895 119.545C260.202 119.345 260.55 119.193 260.94 119.091C261.334 118.989 261.747 118.917 262.179 118.875C262.687 118.822 263.096 118.773 263.406 118.727C263.717 118.678 263.942 118.606 264.082 118.511C264.223 118.417 264.293 118.277 264.293 118.091V118.057C264.293 117.697 264.179 117.419 263.952 117.222C263.728 117.025 263.41 116.926 262.997 116.926C262.562 116.926 262.215 117.023 261.957 117.216C261.7 117.405 261.529 117.644 261.446 117.932L259.207 117.75C259.321 117.22 259.545 116.761 259.878 116.375C260.211 115.985 260.641 115.686 261.168 115.477C261.698 115.265 262.312 115.159 263.009 115.159C263.493 115.159 263.957 115.216 264.401 115.33C264.848 115.443 265.243 115.619 265.588 115.858C265.937 116.097 266.211 116.403 266.412 116.778C266.613 117.15 266.713 117.595 266.713 118.114V124H264.418V122.79H264.349C264.209 123.062 264.022 123.303 263.787 123.511C263.552 123.716 263.27 123.877 262.94 123.994C262.611 124.108 262.23 124.165 261.798 124.165ZM262.491 122.494C262.848 122.494 263.162 122.424 263.435 122.284C263.707 122.14 263.921 121.947 264.077 121.705C264.232 121.462 264.31 121.187 264.31 120.881V119.955C264.234 120.004 264.13 120.049 263.997 120.091C263.868 120.129 263.723 120.165 263.56 120.199C263.397 120.229 263.234 120.258 263.071 120.284C262.908 120.307 262.76 120.328 262.628 120.347C262.344 120.388 262.096 120.455 261.884 120.545C261.671 120.636 261.507 120.759 261.389 120.915C261.272 121.066 261.213 121.256 261.213 121.483C261.213 121.812 261.332 122.064 261.571 122.239C261.813 122.409 262.12 122.494 262.491 122.494ZM268.591 124V115.273H270.938V116.795H271.028C271.188 116.254 271.455 115.845 271.83 115.568C272.205 115.288 272.636 115.148 273.125 115.148C273.246 115.148 273.377 115.155 273.517 115.17C273.657 115.186 273.78 115.206 273.886 115.233V117.381C273.773 117.347 273.616 117.316 273.415 117.29C273.214 117.263 273.03 117.25 272.864 117.25C272.508 117.25 272.189 117.328 271.909 117.483C271.633 117.634 271.413 117.847 271.25 118.119C271.091 118.392 271.011 118.706 271.011 119.062V124H268.591Z" fill="black"/>
<rect x="110" y="93" width="22" height="33" rx="3.63636" fill="#FFC500"/>
<rect x="116.111" y="119.889" width="9.77778" height="2.44444" rx="1.22222" fill="#0A0A0A"/>
<defs>
<filter id="filter0_d_200_1091" x="0" y="0" width="448" height="246" filterUnits="userSpaceOnUse" color-interpolation-filters="sRGB">
<feFlood flood-opacity="0" result="BackgroundImageFix"/>
<feColorMatrix in="SourceAlpha" type="matrix" values="0 0 0 0 0 0 0 0 0 0 0 0 0 0 0 0 0 0 127 0" result="hardAlpha"/>
<feOffset dy="14"/>
<feGaussianBlur stdDeviation="39.5"/>
<feComposite in2="hardAlpha" operator="out"/>
<feColorMatrix type="matrix" values="0 0 0 0 0 0 0 0 0 0 0 0 0 0 0 0 0 0 0.6 0"/>
<feBlend mode="normal" in2="BackgroundImageFix" result="effect1_dropShadow_200_1091"/>
<feBlend mode="normal" in="SourceGraphic" in2="effect1_dropShadow_200_1091" result="shape"/>
</filter>
<linearGradient id="paint0_linear_200_1091" x1="68.3668" y1="108.358" x2="367.707" y2="126.687" gradientUnits="userSpaceOnUse">
<stop stop-color="white"/>
<stop offset="0.604167" stop-color="white" stop-opacity="0"/>
</linearGradient>
</defs>
</svg>
