<svg width="46" height="47" viewBox="0 0 46 47" fill="none" xmlns="http://www.w3.org/2000/svg">
<circle cx="23" cy="23.5127" r="22.5" stroke="#727272"/>
<g clip-path="url(#clip0_200_1267)">
<path d="M23 13.5127C17.477 13.5127 13 17.9897 13 23.5127C13 28.5037 16.657 32.6407 21.438 33.3917V26.4027H18.898V23.5127H21.438V21.3097C21.438 18.8037 22.93 17.4197 25.215 17.4197C26.309 17.4197 27.453 17.6147 27.453 17.6147V20.0747H26.193C24.95 20.0747 24.563 20.8457 24.563 21.6367V23.5127H27.336L26.893 26.4027H24.563V33.3917C29.343 32.6417 33 28.5027 33 23.5127C33 17.9897 28.523 13.5127 23 13.5127Z" fill="#0A0A0A"/>
</g>
<defs>
<clipPath id="clip0_200_1267">
<rect width="24" height="24" fill="white" transform="translate(11 11.5127)"/>
</clipPath>
</defs>
</svg>
