<svg width="159" height="48" viewBox="0 0 159 48" fill="none" xmlns="http://www.w3.org/2000/svg">
<rect x="0.5" y="1.0127" width="158" height="46" rx="22.5" stroke="#727272"/>
<path d="M56.5966 30L53.3125 18.3636H55.5795L57.6761 26.9148H57.7841L60.0227 18.3636H62.0852L64.3295 26.9205H64.4318L66.5284 18.3636H68.7955L65.5114 30H63.4318L61.1023 21.8352H61.0114L58.6761 30H56.5966ZM72.223 24.8864V30H70.1662V18.3636H72.1776V22.7557H72.2798C72.4844 22.2633 72.8007 21.875 73.2287 21.5909C73.6605 21.303 74.2098 21.1591 74.8764 21.1591C75.4825 21.1591 76.0109 21.286 76.4616 21.5398C76.9124 21.7936 77.2609 22.1648 77.5071 22.6534C77.7571 23.142 77.8821 23.7386 77.8821 24.4432V30H75.8253V24.7614C75.8253 24.1742 75.6738 23.7178 75.3707 23.392C75.0715 23.0625 74.651 22.8977 74.1094 22.8977C73.7457 22.8977 73.42 22.9773 73.1321 23.1364C72.848 23.2917 72.6245 23.517 72.4616 23.8125C72.3026 24.108 72.223 24.4659 72.223 24.8864ZM82.4901 30.1761C81.937 30.1761 81.4389 30.0777 80.9957 29.8807C80.5563 29.6799 80.2079 29.3845 79.9503 28.9943C79.6965 28.6042 79.5696 28.1231 79.5696 27.5511C79.5696 27.0587 79.6605 26.6515 79.8423 26.3295C80.0241 26.0076 80.2723 25.75 80.5866 25.5568C80.901 25.3636 81.2552 25.2178 81.6491 25.1193C82.0469 25.017 82.4579 24.9432 82.8821 24.8977C83.3935 24.8447 83.8082 24.7973 84.1264 24.7557C84.4446 24.7102 84.6757 24.642 84.8196 24.5511C84.9673 24.4564 85.0412 24.3106 85.0412 24.1136V24.0795C85.0412 23.6515 84.9143 23.3201 84.6605 23.0852C84.4067 22.8504 84.0412 22.733 83.5639 22.733C83.0601 22.733 82.6605 22.8428 82.3651 23.0625C82.0734 23.2822 81.8764 23.5417 81.7741 23.8409L79.8537 23.5682C80.0052 23.0379 80.2552 22.5947 80.6037 22.2386C80.9522 21.8788 81.3783 21.6098 81.8821 21.4318C82.3859 21.25 82.9427 21.1591 83.5526 21.1591C83.973 21.1591 84.3916 21.2083 84.8082 21.3068C85.2249 21.4053 85.6056 21.5682 85.9503 21.7955C86.295 22.0189 86.5715 22.3239 86.7798 22.7102C86.992 23.0966 87.098 23.5795 87.098 24.1591V30H85.1207V28.8011H85.0526C84.9276 29.0436 84.7514 29.2708 84.5241 29.483C84.3007 29.6913 84.0185 29.8598 83.6776 29.9886C83.3404 30.1136 82.9446 30.1761 82.4901 30.1761ZM83.0241 28.6648C83.437 28.6648 83.795 28.5833 84.098 28.4205C84.401 28.2538 84.634 28.0341 84.7969 27.7614C84.9635 27.4886 85.0469 27.1913 85.0469 26.8693V25.8409C84.9825 25.8939 84.8726 25.9432 84.7173 25.9886C84.5658 26.0341 84.3954 26.0739 84.206 26.108C84.0166 26.142 83.8291 26.1723 83.6435 26.1989C83.4579 26.2254 83.2969 26.2481 83.1605 26.267C82.8537 26.3087 82.5791 26.3769 82.3366 26.4716C82.0942 26.5663 81.9029 26.6989 81.7628 26.8693C81.6226 27.036 81.5526 27.2519 81.5526 27.517C81.5526 27.8958 81.6908 28.1818 81.9673 28.375C82.2438 28.5682 82.5961 28.6648 83.0241 28.6648ZM93.5241 21.2727V22.8636H88.5071V21.2727H93.5241ZM89.7457 19.1818H91.8026V27.375C91.8026 27.6515 91.8442 27.8636 91.9276 28.0114C92.0147 28.1553 92.1283 28.2538 92.2685 28.3068C92.4086 28.3598 92.5639 28.3864 92.7344 28.3864C92.8632 28.3864 92.9806 28.3769 93.0866 28.358C93.1965 28.339 93.2798 28.322 93.3366 28.3068L93.6832 29.9148C93.5734 29.9527 93.4162 29.9943 93.2116 30.0398C93.0109 30.0852 92.7647 30.1117 92.473 30.1193C91.9579 30.1345 91.4938 30.0568 91.081 29.8864C90.6681 29.7121 90.3404 29.4432 90.098 29.0795C89.8594 28.7159 89.742 28.2614 89.7457 27.7159V19.1818ZM102.017 23.5795L100.142 23.7841C100.089 23.5947 99.9962 23.4167 99.8636 23.25C99.7348 23.0833 99.5606 22.9489 99.3409 22.8466C99.1212 22.7443 98.8523 22.6932 98.5341 22.6932C98.1061 22.6932 97.7462 22.786 97.4545 22.9716C97.1667 23.1572 97.0246 23.3977 97.0284 23.6932C97.0246 23.947 97.1174 24.1534 97.3068 24.3125C97.5 24.4716 97.8182 24.6023 98.2614 24.7045L99.75 25.0227C100.576 25.2008 101.189 25.483 101.591 25.8693C101.996 26.2557 102.201 26.7614 102.205 27.3864C102.201 27.9356 102.04 28.4205 101.722 28.8409C101.407 29.2576 100.97 29.5833 100.409 29.8182C99.8485 30.053 99.2045 30.1705 98.4773 30.1705C97.4091 30.1705 96.5492 29.947 95.8977 29.5C95.2462 29.0492 94.858 28.4223 94.733 27.6193L96.7386 27.4261C96.8295 27.8201 97.0227 28.1174 97.3182 28.3182C97.6136 28.5189 97.9981 28.6193 98.4716 28.6193C98.9602 28.6193 99.3523 28.5189 99.6477 28.3182C99.947 28.1174 100.097 27.8693 100.097 27.5739C100.097 27.3239 100 27.1174 99.8068 26.9545C99.6174 26.7917 99.322 26.6667 98.9205 26.5795L97.4318 26.267C96.5947 26.0928 95.9754 25.7992 95.5739 25.3864C95.1723 24.9697 94.9735 24.4432 94.9773 23.8068C94.9735 23.2689 95.1193 22.803 95.4148 22.4091C95.714 22.0114 96.1288 21.7045 96.6591 21.4886C97.1932 21.2689 97.8087 21.1591 98.5057 21.1591C99.5284 21.1591 100.333 21.3769 100.92 21.8125C101.511 22.2481 101.877 22.8371 102.017 23.5795ZM105.486 30H103.236L107.332 18.3636H109.935L114.037 30H111.787L108.679 20.75H108.588L105.486 30ZM105.56 25.4375H111.696V27.1307H105.56V25.4375ZM115.479 33.2727V21.2727H117.501V22.7159H117.621C117.727 22.5038 117.876 22.2784 118.07 22.0398C118.263 21.7973 118.524 21.5909 118.854 21.4205C119.183 21.2462 119.604 21.1591 120.115 21.1591C120.789 21.1591 121.397 21.3314 121.939 21.6761C122.484 22.017 122.916 22.5227 123.234 23.1932C123.556 23.8598 123.717 24.678 123.717 25.6477C123.717 26.6061 123.56 27.4205 123.246 28.0909C122.931 28.7614 122.503 29.2727 121.962 29.625C121.42 29.9773 120.806 30.1534 120.121 30.1534C119.621 30.1534 119.206 30.0701 118.876 29.9034C118.547 29.7367 118.282 29.536 118.081 29.3011C117.884 29.0625 117.731 28.8371 117.621 28.625H117.536V33.2727H115.479ZM117.496 25.6364C117.496 26.2008 117.575 26.6951 117.734 27.1193C117.897 27.5436 118.13 27.875 118.433 28.1136C118.74 28.3485 119.111 28.4659 119.547 28.4659C120.001 28.4659 120.382 28.3447 120.689 28.1023C120.996 27.8561 121.227 27.5208 121.382 27.0966C121.541 26.6686 121.621 26.1818 121.621 25.6364C121.621 25.0947 121.543 24.6136 121.388 24.1932C121.232 23.7727 121.001 23.4432 120.695 23.2045C120.388 22.9659 120.005 22.8466 119.547 22.8466C119.107 22.8466 118.734 22.9621 118.428 23.1932C118.121 23.4242 117.888 23.7481 117.729 24.1648C117.573 24.5814 117.496 25.072 117.496 25.6364ZM125.479 33.2727V21.2727H127.501V22.7159H127.621C127.727 22.5038 127.876 22.2784 128.07 22.0398C128.263 21.7973 128.524 21.5909 128.854 21.4205C129.183 21.2462 129.604 21.1591 130.115 21.1591C130.789 21.1591 131.397 21.3314 131.939 21.6761C132.484 22.017 132.916 22.5227 133.234 23.1932C133.556 23.8598 133.717 24.678 133.717 25.6477C133.717 26.6061 133.56 27.4205 133.246 28.0909C132.931 28.7614 132.503 29.2727 131.962 29.625C131.42 29.9773 130.806 30.1534 130.121 30.1534C129.621 30.1534 129.206 30.0701 128.876 29.9034C128.547 29.7367 128.282 29.536 128.081 29.3011C127.884 29.0625 127.731 28.8371 127.621 28.625H127.536V33.2727H125.479ZM127.496 25.6364C127.496 26.2008 127.575 26.6951 127.734 27.1193C127.897 27.5436 128.13 27.875 128.433 28.1136C128.74 28.3485 129.111 28.4659 129.547 28.4659C130.001 28.4659 130.382 28.3447 130.689 28.1023C130.996 27.8561 131.227 27.5208 131.382 27.0966C131.541 26.6686 131.621 26.1818 131.621 25.6364C131.621 25.0947 131.543 24.6136 131.388 24.1932C131.232 23.7727 131.001 23.4432 130.695 23.2045C130.388 22.9659 130.005 22.8466 129.547 22.8466C129.107 22.8466 128.734 22.9621 128.428 23.1932C128.121 23.4242 127.888 23.7481 127.729 24.1648C127.573 24.5814 127.496 25.072 127.496 25.6364Z" fill="#0A0A0A"/>
<g clip-path="url(#clip0_814_96)">
<path d="M27.252 29.0067L27.976 29.4297C29.197 30.1418 30.5856 30.5156 31.999 30.5127C33.5813 30.5127 35.128 30.0435 36.4436 29.1644C37.7592 28.2854 38.7846 27.036 39.3901 25.5742C39.9956 24.1124 40.154 22.5038 39.8453 20.952C39.5366 19.4001 38.7747 17.9747 37.6559 16.8558C36.5371 15.737 35.1116 14.9751 33.5598 14.6664C32.0079 14.3577 30.3994 14.5162 28.9376 15.1217C27.4758 15.7272 26.2263 16.7525 25.3473 18.0681C24.4682 19.3837 23.999 20.9304 23.999 22.5127C23.999 23.9487 24.376 25.3257 25.083 26.5367L25.505 27.2607L24.852 29.6617L27.252 29.0067ZM22.003 32.5127L23.355 27.5447C22.4642 26.0175 21.9961 24.2807 21.999 22.5127C21.999 16.9897 26.476 12.5127 31.999 12.5127C37.522 12.5127 41.999 16.9897 41.999 22.5127C41.999 28.0357 37.522 32.5127 31.999 32.5127C30.2318 32.5155 28.4957 32.0479 26.969 31.1577L22.003 32.5127ZM28.39 17.8207C28.524 17.8107 28.659 17.8107 28.793 17.8167C28.847 17.8207 28.901 17.8267 28.955 17.8327C29.114 17.8507 29.289 17.9477 29.348 18.0817C29.646 18.7577 29.936 19.4387 30.216 20.1217C30.278 20.2737 30.241 20.4687 30.123 20.6587C30.0419 20.7872 29.9541 20.9113 29.86 21.0307C29.747 21.1757 29.504 21.4417 29.504 21.4417C29.504 21.4417 29.405 21.5597 29.443 21.7067C29.457 21.7627 29.503 21.8437 29.545 21.9117L29.604 22.0067C29.86 22.4337 30.204 22.8667 30.624 23.2747C30.744 23.3907 30.861 23.5097 30.987 23.6207C31.455 24.0337 31.985 24.3707 32.557 24.6207L32.562 24.6227C32.647 24.6597 32.69 24.6797 32.814 24.7327C32.876 24.7587 32.94 24.7817 33.005 24.7987C33.0722 24.8158 33.1429 24.8126 33.2083 24.7894C33.2736 24.7663 33.3306 24.7243 33.372 24.6687C34.096 23.7917 34.162 23.7347 34.168 23.7347V23.7367C34.2183 23.6898 34.2781 23.6542 34.3433 23.6323C34.4085 23.6104 34.4776 23.6027 34.546 23.6097C34.606 23.6137 34.667 23.6247 34.723 23.6497C35.254 23.8927 36.123 24.2717 36.123 24.2717L36.705 24.5327C36.803 24.5797 36.892 24.6907 36.895 24.7977C36.899 24.8647 36.905 24.9727 36.882 25.1707C36.85 25.4297 36.772 25.7407 36.694 25.9037C36.6406 26.0149 36.5697 26.1169 36.484 26.2057C36.3831 26.3116 36.2727 26.408 36.154 26.4937C36.113 26.5246 36.0713 26.5546 36.029 26.5837C35.9047 26.6626 35.7769 26.736 35.646 26.8037C35.3886 26.9405 35.1042 27.019 34.813 27.0337C34.628 27.0437 34.443 27.0577 34.257 27.0477C34.249 27.0477 33.689 26.9607 33.689 26.9607C32.2673 26.5867 30.9524 25.8862 29.849 24.9147C29.623 24.7157 29.414 24.5017 29.2 24.2887C28.31 23.4037 27.638 22.4487 27.23 21.5467C27.0212 21.104 26.9084 20.6221 26.899 20.1327C26.8949 19.5255 27.0934 18.9344 27.463 18.4527C27.536 18.3587 27.605 18.2607 27.724 18.1477C27.851 18.0277 27.931 17.9637 28.018 17.9197C28.1337 17.8617 28.2599 17.8277 28.389 17.8197L28.39 17.8207Z" fill="#0A0A0A"/>
</g>
<defs>
<clipPath id="clip0_814_96">
<rect width="24" height="24" fill="white" transform="translate(20 10.5127)"/>
</clipPath>
</defs>
</svg>
