<svg width="46" height="47" viewBox="0 0 46 47" fill="none" xmlns="http://www.w3.org/2000/svg">
<g clip-path="url(#clip0_200_1262)">
<path d="M23 13.5127C25.717 13.5127 26.056 13.5227 27.122 13.5727C28.187 13.6227 28.912 13.7897 29.55 14.0377C30.21 14.2917 30.766 14.6357 31.322 15.1907C31.8305 15.6906 32.224 16.2953 32.475 16.9627C32.722 17.5997 32.89 18.3257 32.94 19.3907C32.987 20.4567 33 20.7957 33 23.5127C33 26.2297 32.99 26.5687 32.94 27.6347C32.89 28.6997 32.722 29.4247 32.475 30.0627C32.2247 30.7305 31.8311 31.3353 31.322 31.8347C30.822 32.343 30.2173 32.7364 29.55 32.9877C28.913 33.2347 28.187 33.4027 27.122 33.4527C26.056 33.4997 25.717 33.5127 23 33.5127C20.283 33.5127 19.944 33.5027 18.878 33.4527C17.813 33.4027 17.088 33.2347 16.45 32.9877C15.7823 32.7372 15.1775 32.3436 14.678 31.8347C14.1694 31.3349 13.7759 30.7302 13.525 30.0627C13.277 29.4257 13.11 28.6997 13.06 27.6347C13.013 26.5687 13 26.2297 13 23.5127C13 20.7957 13.01 20.4567 13.06 19.3907C13.11 18.3247 13.277 17.6007 13.525 16.9627C13.7752 16.2949 14.1688 15.69 14.678 15.1907C15.1777 14.6819 15.7824 14.2884 16.45 14.0377C17.088 13.7897 17.812 13.6227 18.878 13.5727C19.944 13.5257 20.283 13.5127 23 13.5127ZM23 18.5127C21.6739 18.5127 20.4021 19.0395 19.4645 19.9772C18.5268 20.9148 18 22.1866 18 23.5127C18 24.8388 18.5268 26.1105 19.4645 27.0482C20.4021 27.9859 21.6739 28.5127 23 28.5127C24.3261 28.5127 25.5979 27.9859 26.5355 27.0482C27.4732 26.1105 28 24.8388 28 23.5127C28 22.1866 27.4732 20.9148 26.5355 19.9772C25.5979 19.0395 24.3261 18.5127 23 18.5127V18.5127ZM29.5 18.2627C29.5 17.9312 29.3683 17.6132 29.1339 17.3788C28.8995 17.1444 28.5815 17.0127 28.25 17.0127C27.9185 17.0127 27.6005 17.1444 27.3661 17.3788C27.1317 17.6132 27 17.9312 27 18.2627C27 18.5942 27.1317 18.9122 27.3661 19.1466C27.6005 19.381 27.9185 19.5127 28.25 19.5127C28.5815 19.5127 28.8995 19.381 29.1339 19.1466C29.3683 18.9122 29.5 18.5942 29.5 18.2627ZM23 20.5127C23.7956 20.5127 24.5587 20.8288 25.1213 21.3914C25.6839 21.954 26 22.717 26 23.5127C26 24.3083 25.6839 25.0714 25.1213 25.634C24.5587 26.1966 23.7956 26.5127 23 26.5127C22.2044 26.5127 21.4413 26.1966 20.8787 25.634C20.3161 25.0714 20 24.3083 20 23.5127C20 22.717 20.3161 21.954 20.8787 21.3914C21.4413 20.8288 22.2044 20.5127 23 20.5127V20.5127Z" fill="#0A0A0A"/>
</g>
<circle cx="23" cy="23.5127" r="22.5" stroke="#727272"/>
<defs>
<clipPath id="clip0_200_1262">
<rect width="24" height="24" fill="white" transform="translate(11 11.5127)"/>
</clipPath>
</defs>
</svg>
