<svg width="20" height="20" viewBox="0 0 20 20" fill="none" xmlns="http://www.w3.org/2000/svg">
<path d="M6.07519 17.3532L1.66603 18.3332L2.64603 13.924C2.00063 12.7168 1.66396 11.3687 1.66603 9.99984C1.66603 5.39734 5.39686 1.6665 9.99936 1.6665C14.6019 1.6665 18.3327 5.39734 18.3327 9.99984C18.3327 14.6023 14.6019 18.3332 9.99936 18.3332C8.63049 18.3352 7.28237 17.9986 6.07519 17.3532ZM6.31686 15.5923L6.86103 15.884C7.82648 16.4 8.90469 16.6688 9.99936 16.6665C11.3179 16.6665 12.6068 16.2755 13.7032 15.543C14.7995 14.8104 15.654 13.7692 16.1586 12.5511C16.6631 11.3329 16.7952 9.99244 16.5379 8.69924C16.2807 7.40603 15.6458 6.21814 14.7134 5.28579C13.7811 4.35344 12.5932 3.7185 11.3 3.46127C10.0068 3.20403 8.66631 3.33606 7.44814 3.84064C6.22996 4.34522 5.18877 5.19971 4.45623 6.29604C3.72369 7.39236 3.33269 8.6813 3.33269 9.99984C3.33269 11.1115 3.60352 12.1815 4.11602 13.1382L4.40686 13.6823L3.86102 16.1382L6.31686 15.5923Z" fill="white"/>
</svg>
