<svg width="108" height="20" viewBox="0 0 108 20" fill="none" xmlns="http://www.w3.org/2000/svg">
<path fill-rule="evenodd" clip-rule="evenodd" d="M82.1302 10.449L81.078 7.46244L80.0013 10.449H82.1302ZM85.9753 19.9237L85.7703 19.4273L83.7866 14.6201H78.3503L78.3476 14.6255H76.5814V16.5333H72.8218L79.29 0.409378L79.4284 0.0632324H82.6924L82.8308 0.409378L90.2044 18.7927L90.658 19.9224H85.9753V19.9237Z" fill="#0A0A0A"/>
<path fill-rule="evenodd" clip-rule="evenodd" d="M0 19.0689V0.919086V0.0644531H0.864857H7.58279C9.68042 0.0644531 11.3056 0.823828 12.4488 1.98838C13.7495 3.31394 14.4025 5.15469 14.4025 6.98602C14.4025 8.81604 13.7508 10.6488 12.4515 11.9662C11.307 13.1268 9.68179 13.8808 7.58279 13.8808H4.40576V19.0676V19.9222H3.54088H0.864857H0V19.0689ZM4.40439 4.41812V9.58214H7.58143C8.3594 9.58214 8.9432 9.31648 9.33964 8.90995C9.81348 8.42294 10.0497 7.72259 10.0497 7.01421C10.0497 6.29239 9.81348 5.58535 9.33964 5.0943C8.94457 4.6851 8.36073 4.41946 7.58143 4.41946H4.40439V4.41812Z" fill="#0A0A0A"/>
<path fill-rule="evenodd" clip-rule="evenodd" d="M25.1107 19.6123L18.9752 12.3124V19.0689V19.9236H18.1104H15.4859H14.6211V19.0689V0.919086V0.0644531H15.4859H22.1767C26.7413 0.0644531 29.0235 3.39711 29.0235 6.70027C29.0235 8.24183 28.5145 9.74984 27.503 10.9291C26.8486 11.6939 25.9905 12.3164 24.9329 12.7176L29.8682 18.5216L31.0601 19.9222H29.2096H25.7719H25.3714L25.1107 19.6123ZM18.9739 4.41812V9.01058H19.0811H22.1767C22.9696 9.01058 23.5602 8.76371 23.9594 8.38537C24.4183 7.95068 24.645 7.32815 24.645 6.70027C24.645 6.08579 24.4169 5.46997 23.9594 5.0393C23.5602 4.66363 22.9683 4.41677 22.1767 4.41677H18.9739V4.41812Z" fill="#0A0A0A"/>
<path fill-rule="evenodd" clip-rule="evenodd" d="M43.1343 12.1393C43.4045 11.4859 43.5565 10.7587 43.5565 9.97656C43.5565 9.19435 43.4045 8.46719 43.1343 7.8138C42.848 7.12017 42.4244 6.49763 41.9055 5.97171L41.9042 5.97305C41.3678 5.44311 40.7284 5.01646 40.0266 4.72531C39.3476 4.44357 38.6118 4.28927 37.8527 4.28927C37.094 4.28927 36.3647 4.44357 35.7009 4.72264C35.0071 5.01379 34.3799 5.43909 33.8572 5.96769L33.8531 5.9744C33.325 6.49631 32.8973 7.12017 32.6067 7.8138H32.6053C32.3283 8.47523 32.1749 9.20643 32.1749 9.97788C32.1749 10.7493 32.3296 11.4805 32.6053 12.142H32.6067C32.8973 12.8356 33.325 13.4595 33.8531 13.9814L33.8572 13.9881C34.3799 14.5167 35.0085 14.942 35.7009 15.2331C36.3647 15.5122 37.094 15.6665 37.8527 15.6665C38.6104 15.6665 39.3476 15.5109 40.0266 15.2304C40.7311 14.938 41.3706 14.514 41.9014 13.9894C42.4216 13.4581 42.8466 12.8343 43.1343 12.1393ZM28.6177 13.7332C28.1344 12.5713 27.8628 11.3034 27.8628 9.97521C27.8628 8.64695 28.1357 7.37912 28.6177 6.21725C29.127 4.99499 29.8697 3.89483 30.7753 2.97178L30.7777 2.96909C31.6929 2.05141 32.7983 1.30545 34.0267 0.79428C35.2135 0.301895 36.5088 0.0268555 37.8527 0.0268555C39.2078 0.0268555 40.4977 0.299211 41.6763 0.786232C42.9116 1.2974 44.021 2.0447 44.9496 2.9624L44.9564 2.97178C45.862 3.89483 46.6046 4.99364 47.1137 6.21725C47.597 7.37912 47.87 8.64695 47.87 9.97521C47.87 11.3034 47.597 12.5713 47.1137 13.7332C46.6046 14.9567 45.862 16.0556 44.9564 16.9786L44.9523 16.9813C44.0249 17.9124 42.9225 18.657 41.6978 19.1642C40.5127 19.6552 39.2147 19.9236 37.8527 19.9236C36.502 19.9236 35.1984 19.6512 34.0052 19.1561C32.7833 18.6476 31.6847 17.9057 30.7753 16.9786C29.8697 16.0556 29.1257 14.9567 28.6177 13.7332Z" fill="#0A0A0A"/>
<path fill-rule="evenodd" clip-rule="evenodd" d="M56.6164 4.21014V19.1468V20.0001H55.7528H53.1026H52.2377V19.1468V4.21014H47.5399H46.6753V3.35687V0.919086V0.0644531H47.5399H61.2882H62.1531V0.919086V3.35687V4.21014H61.2882H56.6164Z" fill="#0A0A0A"/>
<path fill-rule="evenodd" clip-rule="evenodd" d="M60.4369 13.717C59.9672 12.5605 59.6997 11.3007 59.6997 9.98324C59.6997 8.6456 59.9658 7.37507 60.4342 6.2132C60.9325 4.97484 61.6616 3.86799 62.5385 2.9436L62.5494 2.93418C63.4427 2.02187 64.5222 1.27457 65.7266 0.763401C66.8751 0.275037 68.1405 0 69.4642 0C71.7413 0 73.7858 0.709735 75.4084 1.97893C75.8372 2.31435 76.2379 2.69002 76.6031 3.10056L74.6128 7.96405L74.5435 7.76951C74.1346 6.6224 73.4709 5.75971 72.6346 5.18146C71.7547 4.57368 70.6659 4.26912 69.4642 4.26912C68.7284 4.26912 68.0264 4.42207 67.391 4.69577C66.7163 4.98692 66.1093 5.41087 65.603 5.93278L65.6044 5.93413C65.0871 6.4681 64.6674 7.096 64.3838 7.79902C64.1163 8.4591 63.967 9.19165 63.967 9.98324C63.967 10.7507 64.1163 11.4725 64.3852 12.1272C64.6701 12.8248 65.0885 13.4514 65.6003 13.9813C66.1052 14.5033 66.7136 14.9286 67.3896 15.2197C68.0264 15.4934 68.727 15.6463 69.4628 15.6463C70.6807 15.6463 71.7994 15.3002 72.7064 14.6562C73.5931 14.0256 74.2897 13.1012 74.6942 11.9246L74.8923 11.349H75.5048H78.0829H78.4672L79.1149 11.608L78.9126 12.4022C78.3408 14.6481 77.1271 16.5359 75.4679 17.8587C73.8306 19.1641 71.7656 19.9155 69.4615 19.9155C68.1295 19.9155 66.8588 19.6431 65.7021 19.1521C64.5047 18.6436 63.4307 17.8976 62.5399 16.9746L62.536 16.9705C61.6616 16.0461 60.9339 14.942 60.4369 13.717Z" fill="#0A0A0A"/>
<path fill-rule="evenodd" clip-rule="evenodd" d="M102.05 19.6123L95.9148 12.3124V19.0689V19.9236H95.0498H92.4269H91.562V19.0689V0.919086V0.0644531H92.4269H99.1177C103.682 0.0644531 105.964 3.39711 105.964 6.70027C105.964 8.24183 105.455 9.74984 104.444 10.9291C103.791 11.6925 102.933 12.3164 101.874 12.7176L106.809 18.5216L108 19.9222H106.151H102.713H102.312L102.05 19.6123ZM95.9148 4.41812V9.01058H96.0207H99.1177C99.9105 9.01058 100.503 8.76371 100.9 8.38537C101.359 7.95068 101.586 7.32815 101.586 6.70027C101.586 6.08579 101.358 5.46997 100.9 5.0393C100.501 4.66363 99.9092 4.41677 99.1177 4.41677H95.9148V4.41812Z" fill="#0A0A0A"/>
<path fill-rule="evenodd" clip-rule="evenodd" d="M90.3998 0.0483398V14.6777L83.9302 0.0483398H90.3998Z" fill="#0A0A0A"/>
</svg>
