<svg width="147" height="28" viewBox="0 0 147 28" fill="none" xmlns="http://www.w3.org/2000/svg">
<path fill-rule="evenodd" clip-rule="evenodd" d="M111.789 14.6189L110.357 10.5871L108.891 14.6189H111.789ZM117.023 27.4098L116.744 26.7396L114.044 20.25H106.644L106.64 20.2572H104.236V22.8328H99.1191L107.923 1.06544L108.112 0.598145H112.554L112.743 1.06544L122.779 25.8829L123.396 27.408H117.023V27.4098Z" fill="#0A0A0A"/>
<path fill-rule="evenodd" clip-rule="evenodd" d="M0 26.2557V1.75336V0.599609H1.17717H10.321C13.1761 0.599609 15.3882 1.62477 16.9442 3.19691C18.7146 4.98641 19.6035 7.47142 19.6035 9.94373C19.6035 12.4142 18.7164 14.8884 16.9479 16.667C15.39 18.2337 13.178 19.2517 10.321 19.2517H5.99672V26.2539V27.4076H4.81953H1.17717H0V26.2557ZM5.99487 6.47705V13.4485H10.3192C11.3781 13.4485 12.1727 13.0898 12.7123 12.541C13.3572 11.8836 13.6788 10.9381 13.6788 9.98178C13.6788 9.00732 13.3572 8.05282 12.7123 7.3899C12.1746 6.83748 11.3799 6.47887 10.3192 6.47887H5.99487V6.47705Z" fill="#0A0A0A"/>
<path fill-rule="evenodd" clip-rule="evenodd" d="M34.1789 26.9892L25.8278 17.1343V26.2557V27.4094H24.6507H21.0785H19.9014V26.2557V1.75336V0.599609H21.0785H30.1854C36.3984 0.599609 39.5046 5.0987 39.5046 9.55796C39.5046 11.6391 38.8118 13.6749 37.435 15.2669C36.5443 16.2993 35.3764 17.1398 33.9368 17.6813L40.6544 25.5167L42.2767 27.4076H39.758H35.0789H34.5337L34.1789 26.9892ZM25.826 6.47705V12.6769H25.972H30.1854C31.2646 12.6769 32.0685 12.3436 32.6118 11.8328C33.2364 11.246 33.5451 10.4056 33.5451 9.55796C33.5451 8.72842 33.2346 7.89706 32.6118 7.31566C32.0685 6.8085 31.2628 6.47523 30.1854 6.47523H25.826V6.47705Z" fill="#0A0A0A"/>
<path fill-rule="evenodd" clip-rule="evenodd" d="M58.71 16.9006C59.0778 16.0185 59.2847 15.0369 59.2847 13.9809C59.2847 12.9249 59.0778 11.9433 58.71 11.0612C58.3203 10.1248 57.7438 9.28438 57.0375 8.57438L57.0357 8.5762C56.3057 7.86077 55.4353 7.28479 54.4802 6.89174C53.5559 6.5114 52.5544 6.30309 51.5212 6.30309C50.4885 6.30309 49.4959 6.5114 48.5924 6.88814C47.648 7.28119 46.7944 7.85534 46.0829 8.56895L46.0774 8.57802C45.3585 9.2826 44.7764 10.1248 44.3808 11.0612H44.3789C44.0018 11.9541 43.7931 12.9413 43.7931 13.9827C43.7931 15.0242 44.0037 16.0113 44.3789 16.9042H44.3808C44.7764 17.8407 45.3585 18.6829 46.0774 19.3874L46.0829 19.3965C46.7944 20.1101 47.6499 20.6843 48.5924 21.0773C49.4959 21.4541 50.4885 21.6623 51.5212 21.6623C52.5525 21.6623 53.5559 21.4522 54.4802 21.0737C55.439 20.6788 56.3094 20.1065 57.032 19.3983C57.74 18.681 58.3185 17.8388 58.71 16.9006ZM38.9514 19.0524C38.2935 17.4838 37.9238 15.7722 37.9238 13.9791C37.9238 12.186 38.2953 10.4744 38.9514 8.90586C39.6446 7.25581 40.6554 5.77059 41.888 4.52448L41.8914 4.52084C43.137 3.28197 44.6415 2.27493 46.3136 1.58485C47.9289 0.920131 49.692 0.548828 51.5212 0.548828C53.3657 0.548828 55.1214 0.916508 56.7255 1.57399C58.4069 2.26406 59.917 3.27292 61.1808 4.51181L61.1901 4.52448C62.4227 5.77059 63.4335 7.25399 64.1264 8.90586C64.7843 10.4744 65.1558 12.186 65.1558 13.9791C65.1558 15.7722 64.7843 17.4838 64.1264 19.0524C63.4335 20.7042 62.4227 22.1876 61.1901 23.4337L61.1845 23.4373C59.9222 24.6943 58.4217 25.6996 56.7548 26.3842C55.1418 27.0471 53.375 27.4094 51.5212 27.4094C49.6827 27.4094 47.9085 27.0417 46.2843 26.3733C44.6211 25.6869 43.1259 24.6853 41.888 23.4337C40.6554 22.1876 39.6427 20.7042 38.9514 19.0524Z" fill="#0A0A0A"/>
<path fill-rule="evenodd" clip-rule="evenodd" d="M77.0612 6.19629V26.3607V27.5127H75.8858H72.2786H71.1013V26.3607V6.19629H64.7072H63.5303V5.04437V1.75336V0.599609H64.7072H83.42H84.5973V1.75336V5.04437V6.19629H83.42H77.0612Z" fill="#0A0A0A"/>
<path fill-rule="evenodd" clip-rule="evenodd" d="M82.2612 19.0307C81.6219 17.4694 81.2578 15.7687 81.2578 13.9901C81.2578 12.1843 81.62 10.469 82.2575 8.90051C82.9358 7.22873 83.9281 5.73448 85.1217 4.48655L85.1366 4.47384C86.3525 3.24222 87.8217 2.23336 89.4611 1.54329C91.0244 0.883996 92.7466 0.512695 94.5484 0.512695C97.6477 0.512695 100.431 1.47084 102.639 3.18426C103.223 3.63706 103.768 4.14422 104.265 4.69846L101.556 11.2642L101.462 11.0015C100.905 9.45293 100.002 8.28831 98.8636 7.50767C97.6659 6.68716 96.1841 6.27601 94.5484 6.27601C93.5468 6.27601 92.5913 6.4825 91.7265 6.85199C90.8082 7.24504 89.982 7.81737 89.2928 8.52195L89.2947 8.52377C88.5907 9.24463 88.0194 10.0923 87.6334 11.0414C87.2693 11.9325 87.0661 12.9214 87.0661 13.9901C87.0661 15.0261 87.2693 16.0005 87.6352 16.8844C88.0231 17.8262 88.5926 18.6721 89.2891 19.3875C89.9764 20.0921 90.8045 20.6663 91.7246 21.0593C92.5913 21.4288 93.545 21.6352 94.5465 21.6352C96.2041 21.6352 97.7269 21.1679 98.9613 20.2986C100.168 19.4473 101.116 18.1993 101.667 16.6109L101.937 15.8339H102.77H106.279H106.802L107.684 16.1834L107.409 17.2557C106.63 20.2877 104.978 22.8361 102.72 24.622C100.492 26.3843 97.6808 27.3986 94.5446 27.3986C92.7318 27.3986 91.0021 27.0309 89.4277 26.368C87.798 25.6815 86.3361 24.6745 85.1236 23.4284L85.1184 23.4229C83.9281 22.175 82.9377 20.6843 82.2612 19.0307Z" fill="#0A0A0A"/>
<path fill-rule="evenodd" clip-rule="evenodd" d="M138.903 26.9892L130.552 17.1343V26.2557V27.4094H129.374H125.804H124.627V26.2557V1.75336V0.599609H125.804H134.911C141.124 0.599609 144.23 5.0987 144.23 9.55796C144.23 11.6391 143.537 13.6749 142.161 15.2669C141.272 16.2975 140.104 17.1398 138.662 17.6813L145.38 25.5167L147.001 27.4076H144.484H139.804H139.259L138.903 26.9892ZM130.552 6.47705V12.6769H130.696H134.911C135.99 12.6769 136.796 12.3436 137.337 11.8328C137.962 11.246 138.271 10.4056 138.271 9.55796C138.271 8.72842 137.96 7.89706 137.337 7.31566C136.794 6.8085 135.988 6.47523 134.911 6.47523H130.552V6.47705Z" fill="#0A0A0A"/>
<path fill-rule="evenodd" clip-rule="evenodd" d="M123.045 0.577637V20.3273L114.239 0.577637H123.045Z" fill="#0A0A0A"/>
</svg>
