<svg width="136" height="25" viewBox="0 0 136 25" fill="none" xmlns="http://www.w3.org/2000/svg">
<path fill-rule="evenodd" clip-rule="evenodd" d="M103.423 13.0609L102.098 9.32777L100.742 13.0609H103.423ZM108.265 24.9044L105.509 18.2749H98.6633L98.6599 18.2816H96.4359V20.6664H91.7015L99.8467 0.511436L100.021 0.078754H104.131L104.305 0.511436L114.162 24.9027H108.265V24.9044Z" fill="white"/>
<path fill-rule="evenodd" clip-rule="evenodd" d="M0 0.0804754H9.5487C12.1902 0.0804754 14.2367 1.02969 15.6763 2.48539C17.3142 4.14233 18.1365 6.44326 18.1365 8.73244C18.1365 11.02 17.3159 13.3108 15.6797 14.9577C14.2384 16.4084 12.1919 17.3509 9.5487 17.3509H5.54799V24.9027H0V0.0804754ZM5.54627 5.52255V11.9776H9.54698C10.5266 11.9776 11.2618 11.6455 11.761 11.1373C12.3577 10.5286 12.6552 9.65315 12.6552 8.76767C12.6552 7.8654 12.3577 6.9816 11.761 6.36778C11.2635 5.85628 10.5283 5.52424 9.54698 5.52424H5.54627V5.52255Z" fill="white"/>
<path fill-rule="evenodd" clip-rule="evenodd" d="M23.8951 15.3904V24.9044H18.4121V0.0804754H27.9266C33.6746 0.0804754 36.5484 4.2463 36.5484 8.37524C36.5484 10.3022 35.9074 12.1872 34.6337 13.6613C33.8096 14.6173 32.7291 15.3954 31.3973 15.8969L39.1131 24.9027H31.9495L23.8951 15.3904ZM23.8934 11.2631H27.9266C28.925 11.2631 29.6688 10.9546 30.1714 10.4816C30.7493 9.93826 31.0348 9.16009 31.0348 8.37524C31.0348 7.60715 30.7476 6.83737 30.1714 6.29904C29.6688 5.82945 28.9233 5.52087 27.9266 5.52087H23.8934V11.2631Z" fill="white"/>
<path fill-rule="evenodd" clip-rule="evenodd" d="M54.3172 15.1741C54.6574 14.3574 54.8488 13.4484 54.8488 12.4707C54.8488 11.4929 54.6574 10.584 54.3172 9.76725C53.9566 8.90021 53.4232 8.12204 52.7698 7.46463L52.7681 7.46632C52.0928 6.80388 51.2875 6.27057 50.4038 5.90663C49.5487 5.55446 48.6221 5.36159 47.6663 5.36159C46.7108 5.36159 45.7925 5.55446 44.9566 5.9033C44.083 6.26723 43.2931 6.79886 42.635 7.45961L42.6298 7.468C41.9648 8.12039 41.4262 8.90021 41.0602 9.76725H41.0584C40.7096 10.594 40.5164 11.508 40.5164 12.4723C40.5164 13.4367 40.7113 14.3507 41.0584 15.1775H41.0602C41.4262 16.0445 41.9648 16.8243 42.6298 17.4767L42.635 17.4851C43.2931 18.1459 44.0847 18.6775 44.9566 19.0414C45.7925 19.3903 46.7108 19.5831 47.6663 19.5831C48.6204 19.5831 49.5487 19.3886 50.4038 19.0381C51.2909 18.6725 52.0962 18.1425 52.7647 17.4868C53.4198 16.8227 53.9549 16.0428 54.3172 15.1741ZM36.0371 17.1665C35.4284 15.7141 35.0864 14.1293 35.0864 12.469C35.0864 10.8087 35.4301 9.22389 36.0371 7.77156C36.6784 6.24373 37.6136 4.86853 38.754 3.71473L38.7571 3.71135C39.9095 2.56426 41.3014 1.63181 42.8484 0.992848C44.3428 0.377366 45.974 0.0335673 47.6663 0.0335673C49.3728 0.0335673 50.9971 0.374012 52.4811 0.982788C54.0367 1.62175 55.4338 2.55587 56.6031 3.70299L56.6117 3.71473C57.752 4.86853 58.6872 6.24205 59.3282 7.77156C59.9369 9.22389 60.2806 10.8087 60.2806 12.469C60.2806 14.1293 59.9369 15.7141 59.3282 17.1665C58.6872 18.6959 57.752 20.0694 56.6117 21.2233L56.6065 21.2266C55.4386 22.3905 54.0504 23.3213 52.5083 23.9552C51.016 24.569 49.3814 24.9045 47.6663 24.9045C45.9654 24.9045 44.3239 24.564 42.8213 23.9451C41.2825 23.3095 39.8992 22.3821 38.754 21.2233C37.6136 20.0694 36.6767 18.6959 36.0371 17.1665Z" fill="white"/>
<path fill-rule="evenodd" clip-rule="evenodd" d="M71.2947 5.26259V25H65.7808V5.26259H58.7763V0.0804754H78.2669V5.26259H71.2947Z" fill="white"/>
<path fill-rule="evenodd" clip-rule="evenodd" d="M76.1061 17.1463C75.5146 15.7007 75.1778 14.1259 75.1778 12.4791C75.1778 10.807 75.5129 9.21883 76.1026 7.7665C76.7302 6.21855 77.6482 4.83499 78.7525 3.67949L78.7663 3.66773C79.8912 2.52734 81.2505 1.59321 82.7672 0.954251C84.2135 0.343797 85.8069 0 87.4738 0C90.3412 0 92.9158 0.887168 94.9591 2.47367C95.4991 2.89293 96.0036 3.36252 96.4635 3.87571L93.9572 9.95507L93.8699 9.71189C93.3551 8.278 92.5192 7.19964 91.4661 6.47683C90.3581 5.71709 88.9871 5.3364 87.4738 5.3364C86.5472 5.3364 85.6632 5.52759 84.8631 5.86972C84.0135 6.23365 83.2491 6.76359 82.6115 7.41598L82.6133 7.41766C81.962 8.08512 81.4333 8.87 81.0762 9.74877C80.7394 10.5739 80.5514 11.4896 80.5514 12.4791C80.5514 13.4383 80.7394 14.3406 81.078 15.159C81.4368 16.0311 81.9637 16.8143 82.6081 17.4767C83.2439 18.1291 84.01 18.6607 84.8614 19.0246C85.6632 19.3667 86.5455 19.5579 87.4721 19.5579C89.0056 19.5579 90.4144 19.1252 91.5565 18.3203C92.6732 17.532 93.5503 16.3765 94.0597 14.9057L94.3092 14.1863H98.8109L99.6265 14.5099L99.3718 15.5028C98.6518 18.3102 97.1234 20.6698 95.034 22.3234C92.9722 23.9552 90.3718 24.8943 87.4704 24.8943C85.7931 24.8943 84.1929 24.5539 82.7363 23.9401C81.2285 23.3045 79.8761 22.372 78.7542 21.2182L78.7494 21.2132C77.6482 20.0577 76.732 18.6775 76.1061 17.1463Z" fill="white"/>
<path fill-rule="evenodd" clip-rule="evenodd" d="M128.508 24.5153L120.782 15.3904V24.9044H115.301V0.0804754H124.815C130.563 0.0804754 133.437 4.2463 133.437 8.37524C133.437 10.3022 132.796 12.1872 131.523 13.6613C130.7 14.6156 129.62 15.3954 128.286 15.8969L136 24.9027H128.838L128.508 24.5153ZM120.782 11.2631H124.815C125.814 11.2631 126.559 10.9546 127.06 10.4816C127.638 9.93826 127.924 9.16009 127.924 8.37524C127.924 7.60715 127.637 6.83737 127.06 6.29904C126.558 5.82945 125.812 5.52087 124.815 5.52087H120.782V11.2631Z" fill="white"/>
<path fill-rule="evenodd" clip-rule="evenodd" d="M113.837 0.0604641V18.3472L105.69 0.0604641H113.837Z" fill="white"/>
</svg>
