<svg width="394" height="225" viewBox="0 0 394 225" fill="none" xmlns="http://www.w3.org/2000/svg">
<g filter="url(#filter0_d_200_1088)">
<rect x="89" y="75" width="216" height="47" rx="23.5" fill="white" shape-rendering="crispEdges"/>
<rect x="84" y="70" width="226" height="57" rx="28.5" stroke="url(#paint0_linear_200_1088)" stroke-opacity="0.3" stroke-width="10" shape-rendering="crispEdges"/>
</g>
<path d="M117.148 104V92.3636H121.511C122.405 92.3636 123.155 92.5303 123.761 92.8636C124.371 93.197 124.831 93.6553 125.142 94.2386C125.456 94.8182 125.614 95.4773 125.614 96.2159C125.614 96.9621 125.456 97.625 125.142 98.2045C124.828 98.7841 124.364 99.2405 123.75 99.5739C123.136 99.9034 122.381 100.068 121.483 100.068H118.591V98.3352H121.199C121.722 98.3352 122.15 98.2443 122.483 98.0625C122.816 97.8807 123.063 97.6307 123.222 97.3125C123.384 96.9943 123.466 96.6288 123.466 96.2159C123.466 95.803 123.384 95.4394 123.222 95.125C123.063 94.8106 122.814 94.5663 122.477 94.392C122.144 94.214 121.714 94.125 121.188 94.125H119.256V104H117.148ZM127.354 104V95.2727H129.348V96.7273H129.439C129.598 96.2235 129.871 95.8352 130.257 95.5625C130.647 95.286 131.092 95.1477 131.592 95.1477C131.706 95.1477 131.833 95.1534 131.973 95.1648C132.117 95.1723 132.236 95.1856 132.331 95.2045V97.0966C132.244 97.0663 132.106 97.0398 131.916 97.017C131.731 96.9905 131.551 96.9773 131.376 96.9773C131.001 96.9773 130.664 97.0587 130.365 97.2216C130.07 97.3807 129.837 97.6023 129.666 97.8864C129.496 98.1705 129.411 98.4981 129.411 98.8693V104H127.354ZM137.145 104.17C136.293 104.17 135.554 103.983 134.929 103.608C134.304 103.233 133.819 102.708 133.474 102.034C133.134 101.36 132.963 100.572 132.963 99.6705C132.963 98.7689 133.134 97.9792 133.474 97.3011C133.819 96.6231 134.304 96.0966 134.929 95.7216C135.554 95.3466 136.293 95.1591 137.145 95.1591C137.997 95.1591 138.736 95.3466 139.361 95.7216C139.986 96.0966 140.469 96.6231 140.81 97.3011C141.154 97.9792 141.327 98.7689 141.327 99.6705C141.327 100.572 141.154 101.36 140.81 102.034C140.469 102.708 139.986 103.233 139.361 103.608C138.736 103.983 137.997 104.17 137.145 104.17ZM137.156 102.523C137.618 102.523 138.005 102.396 138.315 102.142C138.626 101.884 138.857 101.54 139.009 101.108C139.164 100.676 139.241 100.195 139.241 99.6648C139.241 99.1307 139.164 98.6477 139.009 98.2159C138.857 97.7803 138.626 97.4337 138.315 97.1761C138.005 96.9186 137.618 96.7898 137.156 96.7898C136.683 96.7898 136.289 96.9186 135.974 97.1761C135.664 97.4337 135.431 97.7803 135.276 98.2159C135.124 98.6477 135.048 99.1307 135.048 99.6648C135.048 100.195 135.124 100.676 135.276 101.108C135.431 101.54 135.664 101.884 135.974 102.142C136.289 102.396 136.683 102.523 137.156 102.523ZM147.43 95.2727V96.8636H142.413V95.2727H147.43ZM143.652 93.1818H145.709V101.375C145.709 101.652 145.75 101.864 145.834 102.011C145.921 102.155 146.035 102.254 146.175 102.307C146.315 102.36 146.47 102.386 146.641 102.386C146.769 102.386 146.887 102.377 146.993 102.358C147.103 102.339 147.186 102.322 147.243 102.307L147.589 103.915C147.48 103.953 147.322 103.994 147.118 104.04C146.917 104.085 146.671 104.112 146.379 104.119C145.864 104.134 145.4 104.057 144.987 103.886C144.574 103.712 144.247 103.443 144.004 103.08C143.766 102.716 143.648 102.261 143.652 101.716V93.1818ZM152.92 104.17C152.045 104.17 151.29 103.989 150.653 103.625C150.021 103.258 149.534 102.739 149.193 102.068C148.852 101.394 148.682 100.6 148.682 99.6875C148.682 98.7898 148.852 98.0019 149.193 97.3239C149.538 96.642 150.019 96.1117 150.636 95.733C151.254 95.3504 151.979 95.1591 152.812 95.1591C153.35 95.1591 153.858 95.2462 154.335 95.4205C154.816 95.5909 155.241 95.8561 155.608 96.2159C155.979 96.5758 156.271 97.0341 156.483 97.5909C156.695 98.1439 156.801 98.803 156.801 99.5682V100.199H149.648V98.8125H154.83C154.826 98.4186 154.741 98.0682 154.574 97.7614C154.407 97.4508 154.174 97.2064 153.875 97.0284C153.58 96.8504 153.235 96.7614 152.841 96.7614C152.42 96.7614 152.051 96.8636 151.733 97.0682C151.415 97.2689 151.167 97.5341 150.989 97.8636C150.814 98.1894 150.725 98.5473 150.722 98.9375V100.148C150.722 100.655 150.814 101.091 151 101.455C151.186 101.814 151.445 102.091 151.778 102.284C152.112 102.473 152.502 102.568 152.949 102.568C153.248 102.568 153.519 102.527 153.761 102.443C154.004 102.356 154.214 102.229 154.392 102.062C154.57 101.896 154.705 101.689 154.795 101.443L156.716 101.659C156.595 102.167 156.364 102.61 156.023 102.989C155.686 103.364 155.254 103.655 154.727 103.864C154.201 104.068 153.598 104.17 152.92 104.17ZM162.348 104.17C161.477 104.17 160.729 103.979 160.104 103.597C159.482 103.214 159.003 102.686 158.666 102.011C158.333 101.333 158.166 100.553 158.166 99.6705C158.166 98.7841 158.337 98.0019 158.678 97.3239C159.018 96.642 159.5 96.1117 160.121 95.733C160.746 95.3504 161.484 95.1591 162.337 95.1591C163.045 95.1591 163.672 95.2898 164.217 95.5511C164.767 95.8087 165.204 96.1742 165.53 96.6477C165.856 97.1174 166.041 97.6667 166.087 98.2955H164.121C164.041 97.875 163.852 97.5246 163.553 97.2443C163.257 96.9602 162.861 96.8182 162.365 96.8182C161.945 96.8182 161.575 96.9318 161.257 97.1591C160.939 97.3826 160.691 97.7045 160.513 98.125C160.339 98.5455 160.251 99.0492 160.251 99.6364C160.251 100.231 160.339 100.742 160.513 101.17C160.687 101.595 160.931 101.922 161.246 102.153C161.564 102.381 161.937 102.494 162.365 102.494C162.668 102.494 162.939 102.437 163.178 102.324C163.42 102.206 163.623 102.038 163.786 101.818C163.948 101.598 164.06 101.331 164.121 101.017H166.087C166.037 101.634 165.856 102.182 165.541 102.659C165.227 103.133 164.799 103.504 164.257 103.773C163.715 104.038 163.079 104.17 162.348 104.17ZM161.757 103.955H162.871L162.78 104.438C163.136 104.491 163.437 104.627 163.683 104.847C163.933 105.07 164.058 105.39 164.058 105.807C164.062 106.345 163.821 106.777 163.337 107.102C162.852 107.428 162.161 107.591 161.263 107.591L161.24 106.58C161.676 106.58 162.022 106.521 162.28 106.403C162.537 106.29 162.668 106.108 162.672 105.858C162.679 105.616 162.589 105.438 162.399 105.324C162.214 105.214 161.918 105.138 161.513 105.097L161.757 103.955ZM170.287 104.176C169.734 104.176 169.236 104.078 168.793 103.881C168.353 103.68 168.005 103.384 167.747 102.994C167.493 102.604 167.366 102.123 167.366 101.551C167.366 101.059 167.457 100.652 167.639 100.33C167.821 100.008 168.069 99.75 168.384 99.5568C168.698 99.3636 169.052 99.2178 169.446 99.1193C169.844 99.017 170.255 98.9432 170.679 98.8977C171.19 98.8447 171.605 98.7973 171.923 98.7557C172.241 98.7102 172.473 98.642 172.616 98.5511C172.764 98.4564 172.838 98.3106 172.838 98.1136V98.0795C172.838 97.6515 172.711 97.3201 172.457 97.0852C172.204 96.8504 171.838 96.733 171.361 96.733C170.857 96.733 170.457 96.8428 170.162 97.0625C169.87 97.2822 169.673 97.5417 169.571 97.8409L167.651 97.5682C167.802 97.0379 168.052 96.5947 168.401 96.2386C168.749 95.8788 169.175 95.6098 169.679 95.4318C170.183 95.25 170.74 95.1591 171.349 95.1591C171.77 95.1591 172.188 95.2083 172.605 95.3068C173.022 95.4053 173.402 95.5682 173.747 95.7955C174.092 96.0189 174.368 96.3239 174.577 96.7102C174.789 97.0966 174.895 97.5795 174.895 98.1591V104H172.918V102.801H172.849C172.724 103.044 172.548 103.271 172.321 103.483C172.098 103.691 171.815 103.86 171.474 103.989C171.137 104.114 170.741 104.176 170.287 104.176ZM170.821 102.665C171.234 102.665 171.592 102.583 171.895 102.42C172.198 102.254 172.431 102.034 172.594 101.761C172.76 101.489 172.844 101.191 172.844 100.869V99.8409C172.779 99.8939 172.67 99.9432 172.514 99.9886C172.363 100.034 172.192 100.074 172.003 100.108C171.813 100.142 171.626 100.172 171.44 100.199C171.255 100.225 171.094 100.248 170.957 100.267C170.651 100.309 170.376 100.377 170.134 100.472C169.891 100.566 169.7 100.699 169.56 100.869C169.42 101.036 169.349 101.252 169.349 101.517C169.349 101.896 169.488 102.182 169.764 102.375C170.041 102.568 170.393 102.665 170.821 102.665ZM169.77 94.2102L168.526 94.1818C168.526 93.5076 168.7 92.9792 169.048 92.5966C169.397 92.214 169.827 92.0227 170.338 92.0227C170.584 92.0227 170.798 92.0644 170.98 92.1477C171.162 92.2273 171.329 92.3201 171.48 92.4261C171.635 92.5322 171.787 92.6269 171.935 92.7102C172.082 92.7898 172.245 92.8295 172.423 92.8295C172.639 92.8295 172.81 92.7481 172.935 92.5852C173.063 92.4223 173.13 92.214 173.134 91.9602L174.355 92.0114C174.351 92.6894 174.175 93.2159 173.827 93.5909C173.478 93.9621 173.05 94.1496 172.543 94.1534C172.27 94.1572 172.041 94.1174 171.855 94.0341C171.67 93.9508 171.507 93.8561 171.366 93.75C171.23 93.6439 171.092 93.5511 170.952 93.4716C170.812 93.3883 170.647 93.3466 170.457 93.3466C170.257 93.3466 170.092 93.4261 169.963 93.5852C169.834 93.7443 169.77 93.9527 169.77 94.2102ZM180.77 104.17C179.918 104.17 179.179 103.983 178.554 103.608C177.929 103.233 177.444 102.708 177.099 102.034C176.759 101.36 176.588 100.572 176.588 99.6705C176.588 98.7689 176.759 97.9792 177.099 97.3011C177.444 96.6231 177.929 96.0966 178.554 95.7216C179.179 95.3466 179.918 95.1591 180.77 95.1591C181.622 95.1591 182.361 95.3466 182.986 95.7216C183.611 96.0966 184.094 96.6231 184.435 97.3011C184.779 97.9792 184.952 98.7689 184.952 99.6705C184.952 100.572 184.779 101.36 184.435 102.034C184.094 102.708 183.611 103.233 182.986 103.608C182.361 103.983 181.622 104.17 180.77 104.17ZM180.781 102.523C181.243 102.523 181.63 102.396 181.94 102.142C182.251 101.884 182.482 101.54 182.634 101.108C182.789 100.676 182.866 100.195 182.866 99.6648C182.866 99.1307 182.789 98.6477 182.634 98.2159C182.482 97.7803 182.251 97.4337 181.94 97.1761C181.63 96.9186 181.243 96.7898 180.781 96.7898C180.308 96.7898 179.914 96.9186 179.599 97.1761C179.289 97.4337 179.056 97.7803 178.901 98.2159C178.749 98.6477 178.673 99.1307 178.673 99.6648C178.673 100.195 178.749 100.676 178.901 101.108C179.056 101.54 179.289 101.884 179.599 102.142C179.914 102.396 180.308 102.523 180.781 102.523ZM190.643 104V102.477L194.683 98.517C195.07 98.1269 195.392 97.7803 195.649 97.4773C195.907 97.1742 196.1 96.8807 196.229 96.5966C196.357 96.3125 196.422 96.0095 196.422 95.6875C196.422 95.3201 196.339 95.0057 196.172 94.7443C196.005 94.4792 195.776 94.2746 195.484 94.1307C195.193 93.9867 194.861 93.9148 194.49 93.9148C194.107 93.9148 193.772 93.9943 193.484 94.1534C193.196 94.3087 192.973 94.5303 192.814 94.8182C192.659 95.1061 192.581 95.4489 192.581 95.8466H190.575C190.575 95.108 190.744 94.4659 191.081 93.9205C191.418 93.375 191.882 92.9527 192.473 92.6534C193.068 92.3542 193.75 92.2045 194.518 92.2045C195.299 92.2045 195.984 92.3504 196.575 92.642C197.166 92.9337 197.625 93.3333 197.95 93.8409C198.28 94.3485 198.445 94.928 198.445 95.5795C198.445 96.0152 198.361 96.4432 198.195 96.8636C198.028 97.2841 197.734 97.75 197.314 98.2614C196.897 98.7727 196.312 99.392 195.558 100.119L193.553 102.159V102.239H198.621V104H190.643ZM200.121 101.841V100.165L205.058 92.3636H206.456V94.75H205.604L202.28 100.017V100.108H209.172V101.841H200.121ZM205.672 104V101.33L205.695 100.58V92.3636H207.683V104H205.672ZM213.067 98.8864V104H211.01V92.3636H213.021V96.7557H213.124C213.328 96.2633 213.644 95.875 214.072 95.5909C214.504 95.303 215.054 95.1591 215.72 95.1591C216.326 95.1591 216.855 95.286 217.305 95.5398C217.756 95.7936 218.105 96.1648 218.351 96.6534C218.601 97.142 218.726 97.7386 218.726 98.4432V104H216.669V98.7614C216.669 98.1742 216.518 97.7178 216.214 97.392C215.915 97.0625 215.495 96.8977 214.953 96.8977C214.589 96.8977 214.264 96.9773 213.976 97.1364C213.692 97.2917 213.468 97.517 213.305 97.8125C213.146 98.108 213.067 98.4659 213.067 98.8864ZM224.791 107.273V95.2727H226.814V96.7159H226.933C227.039 96.5038 227.189 96.2784 227.382 96.0398C227.575 95.7973 227.837 95.5909 228.166 95.4205C228.496 95.2462 228.916 95.1591 229.428 95.1591C230.102 95.1591 230.71 95.3314 231.251 95.6761C231.797 96.017 232.229 96.5227 232.547 97.1932C232.869 97.8598 233.03 98.678 233.03 99.6477C233.03 100.606 232.873 101.42 232.558 102.091C232.244 102.761 231.816 103.273 231.274 103.625C230.732 103.977 230.119 104.153 229.433 104.153C228.933 104.153 228.518 104.07 228.189 103.903C227.859 103.737 227.594 103.536 227.393 103.301C227.196 103.062 227.043 102.837 226.933 102.625H226.848V107.273H224.791ZM226.808 99.6364C226.808 100.201 226.888 100.695 227.047 101.119C227.21 101.544 227.443 101.875 227.746 102.114C228.053 102.348 228.424 102.466 228.859 102.466C229.314 102.466 229.695 102.345 230.001 102.102C230.308 101.856 230.539 101.521 230.695 101.097C230.854 100.669 230.933 100.182 230.933 99.6364C230.933 99.0947 230.856 98.6136 230.7 98.1932C230.545 97.7727 230.314 97.4432 230.007 97.2045C229.7 96.9659 229.318 96.8466 228.859 96.8466C228.42 96.8466 228.047 96.9621 227.74 97.1932C227.433 97.4242 227.2 97.7481 227.041 98.1648C226.886 98.5814 226.808 99.072 226.808 99.6364ZM238.598 104.17C237.746 104.17 237.007 103.983 236.382 103.608C235.757 103.233 235.272 102.708 234.928 102.034C234.587 101.36 234.416 100.572 234.416 99.6705C234.416 98.7689 234.587 97.9792 234.928 97.3011C235.272 96.6231 235.757 96.0966 236.382 95.7216C237.007 95.3466 237.746 95.1591 238.598 95.1591C239.45 95.1591 240.189 95.3466 240.814 95.7216C241.439 96.0966 241.922 96.6231 242.263 97.3011C242.607 97.9792 242.78 98.7689 242.78 99.6705C242.78 100.572 242.607 101.36 242.263 102.034C241.922 102.708 241.439 103.233 240.814 103.608C240.189 103.983 239.45 104.17 238.598 104.17ZM238.609 102.523C239.071 102.523 239.458 102.396 239.768 102.142C240.079 101.884 240.31 101.54 240.462 101.108C240.617 100.676 240.695 100.195 240.695 99.6648C240.695 99.1307 240.617 98.6477 240.462 98.2159C240.31 97.7803 240.079 97.4337 239.768 97.1761C239.458 96.9186 239.071 96.7898 238.609 96.7898C238.136 96.7898 237.742 96.9186 237.428 97.1761C237.117 97.4337 236.884 97.7803 236.729 98.2159C236.577 98.6477 236.501 99.1307 236.501 99.6648C236.501 100.195 236.577 100.676 236.729 101.108C236.884 101.54 237.117 101.884 237.428 102.142C237.742 102.396 238.136 102.523 238.609 102.523ZM244.526 104V95.2727H246.52V96.7273H246.611C246.77 96.2235 247.043 95.8352 247.429 95.5625C247.819 95.286 248.264 95.1477 248.764 95.1477C248.878 95.1477 249.005 95.1534 249.145 95.1648C249.289 95.1723 249.408 95.1856 249.503 95.2045V97.0966C249.416 97.0663 249.277 97.0398 249.088 97.017C248.902 96.9905 248.723 96.9773 248.548 96.9773C248.173 96.9773 247.836 97.0587 247.537 97.2216C247.241 97.3807 247.009 97.6023 246.838 97.8864C246.668 98.1705 246.582 98.4981 246.582 98.8693V104H244.526ZM258.077 104.153C257.391 104.153 256.777 103.977 256.236 103.625C255.694 103.273 255.266 102.761 254.952 102.091C254.637 101.42 254.48 100.606 254.48 99.6477C254.48 98.678 254.639 97.8598 254.957 97.1932C255.279 96.5227 255.713 96.017 256.259 95.6761C256.804 95.3314 257.412 95.1591 258.082 95.1591C258.594 95.1591 259.014 95.2462 259.344 95.4205C259.673 95.5909 259.935 95.7973 260.128 96.0398C260.321 96.2784 260.471 96.5038 260.577 96.7159H260.662V92.3636H262.724V104H260.702V102.625H260.577C260.471 102.837 260.317 103.062 260.116 103.301C259.916 103.536 259.651 103.737 259.321 103.903C258.991 104.07 258.577 104.153 258.077 104.153ZM258.651 102.466C259.086 102.466 259.457 102.348 259.764 102.114C260.071 101.875 260.304 101.544 260.463 101.119C260.622 100.695 260.702 100.201 260.702 99.6364C260.702 99.072 260.622 98.5814 260.463 98.1648C260.308 97.7481 260.077 97.4242 259.77 97.1932C259.467 96.9621 259.094 96.8466 258.651 96.8466C258.192 96.8466 257.81 96.9659 257.503 97.2045C257.196 97.4432 256.965 97.7727 256.81 98.1932C256.654 98.6136 256.577 99.0947 256.577 99.6364C256.577 100.182 256.654 100.669 256.81 101.097C256.969 101.521 257.202 101.856 257.509 102.102C257.819 102.345 258.2 102.466 258.651 102.466ZM264.916 104V95.2727H266.973V104H264.916ZM265.95 94.0341C265.625 94.0341 265.344 93.9261 265.109 93.7102C264.875 93.4905 264.757 93.2273 264.757 92.9205C264.757 92.6098 264.875 92.3466 265.109 92.1307C265.344 91.911 265.625 91.8011 265.95 91.8011C266.28 91.8011 266.56 91.911 266.791 92.1307C267.026 92.3466 267.143 92.6098 267.143 92.9205C267.143 93.2273 267.026 93.4905 266.791 93.7102C266.56 93.9261 266.28 94.0341 265.95 94.0341ZM271.599 104.176C271.046 104.176 270.548 104.078 270.105 103.881C269.666 103.68 269.317 103.384 269.06 102.994C268.806 102.604 268.679 102.123 268.679 101.551C268.679 101.059 268.77 100.652 268.952 100.33C269.134 100.008 269.382 99.75 269.696 99.5568C270.01 99.3636 270.365 99.2178 270.759 99.1193C271.156 99.017 271.567 98.9432 271.991 98.8977C272.503 98.8447 272.918 98.7973 273.236 98.7557C273.554 98.7102 273.785 98.642 273.929 98.5511C274.077 98.4564 274.151 98.3106 274.151 98.1136V98.0795C274.151 97.6515 274.024 97.3201 273.77 97.0852C273.516 96.8504 273.151 96.733 272.673 96.733C272.17 96.733 271.77 96.8428 271.474 97.0625C271.183 97.2822 270.986 97.5417 270.884 97.8409L268.963 97.5682C269.115 97.0379 269.365 96.5947 269.713 96.2386C270.062 95.8788 270.488 95.6098 270.991 95.4318C271.495 95.25 272.052 95.1591 272.662 95.1591C273.082 95.1591 273.501 95.2083 273.918 95.3068C274.334 95.4053 274.715 95.5682 275.06 95.7955C275.404 96.0189 275.681 96.3239 275.889 96.7102C276.101 97.0966 276.207 97.5795 276.207 98.1591V104H274.23V102.801H274.162C274.037 103.044 273.861 103.271 273.634 103.483C273.41 103.691 273.128 103.86 272.787 103.989C272.45 104.114 272.054 104.176 271.599 104.176ZM272.134 102.665C272.546 102.665 272.904 102.583 273.207 102.42C273.51 102.254 273.743 102.034 273.906 101.761C274.073 101.489 274.156 101.191 274.156 100.869V99.8409C274.092 99.8939 273.982 99.9432 273.827 99.9886C273.675 100.034 273.505 100.074 273.315 100.108C273.126 100.142 272.938 100.172 272.753 100.199C272.567 100.225 272.406 100.248 272.27 100.267C271.963 100.309 271.688 100.377 271.446 100.472C271.204 100.566 271.012 100.699 270.872 100.869C270.732 101.036 270.662 101.252 270.662 101.517C270.662 101.896 270.8 102.182 271.077 102.375C271.353 102.568 271.705 102.665 272.134 102.665Z" fill="#0A0A0A"/>
<defs>
<filter id="filter0_d_200_1088" x="0" y="0" width="394" height="225" filterUnits="userSpaceOnUse" color-interpolation-filters="sRGB">
<feFlood flood-opacity="0" result="BackgroundImageFix"/>
<feColorMatrix in="SourceAlpha" type="matrix" values="0 0 0 0 0 0 0 0 0 0 0 0 0 0 0 0 0 0 127 0" result="hardAlpha"/>
<feOffset dy="14"/>
<feGaussianBlur stdDeviation="39.5"/>
<feComposite in2="hardAlpha" operator="out"/>
<feColorMatrix type="matrix" values="0 0 0 0 0 0 0 0 0 0 0 0 0 0 0 0 0 0 0.6 0"/>
<feBlend mode="normal" in2="BackgroundImageFix" result="effect1_dropShadow_200_1088"/>
<feBlend mode="normal" in="SourceGraphic" in2="effect1_dropShadow_200_1088" result="shape"/>
</filter>
<linearGradient id="paint0_linear_200_1088" x1="353.49" y1="90" x2="89.5861" y2="80.9354" gradientUnits="userSpaceOnUse">
<stop offset="0.0933684" stop-color="white"/>
<stop offset="0.604167" stop-color="white" stop-opacity="0"/>
</linearGradient>
</defs>
</svg>
