<svg width="267" height="164" viewBox="0 0 267 164" fill="none" xmlns="http://www.w3.org/2000/svg">
<g filter="url(#filter0_b_505_91)">
<rect x="160" y="24" width="83" height="83" rx="41.5" fill="url(#paint0_linear_505_91)"/>
<rect x="160.367" y="24.3673" width="82.2655" height="82.2655" rx="41.1327" stroke="url(#paint1_linear_505_91)" stroke-opacity="0.37" stroke-width="0.734513"/>
</g>
<rect x="152.367" y="16.3673" width="98.2655" height="98.2655" rx="49.1327" stroke="#FFC500" stroke-opacity="0.5" stroke-width="0.734513"/>
<rect x="144.367" y="8.36726" width="114.265" height="114.265" rx="57.1327" stroke="#FFC500" stroke-opacity="0.2" stroke-width="0.734513"/>
<rect x="136.367" y="0.367257" width="130.265" height="130.265" rx="65.1327" stroke="#FFC500" stroke-opacity="0.1" stroke-width="0.734513"/>
<g clip-path="url(#clip0_505_91)">
<path d="M201.133 44.9949L216.725 48.4597C217.592 48.6532 218.211 49.4217 218.211 50.3116V69.2619C218.211 73.0683 216.307 76.6242 213.14 78.7342L201.133 86.7397L189.126 78.7342C185.957 76.6223 184.056 73.0683 184.056 69.2638V50.3116C184.056 49.4217 184.674 48.6532 185.541 48.4597L201.133 44.9949ZM209.581 58.6986L200.188 68.0893L194.822 62.7231L192.139 65.4062L200.19 73.4573L212.266 61.3816L209.581 58.6986Z" fill="#FFC500"/>
<path fill-rule="evenodd" clip-rule="evenodd" d="M200.895 86.5808L201.133 86.7395L213.14 78.7339C216.307 76.6239 218.21 73.068 218.21 69.2617V50.3114C218.21 49.4215 217.591 48.653 216.724 48.4595L201.133 44.9946L200.985 45.0275V67.292L209.58 58.6983L212.265 61.3814L200.985 72.6617V86.5808H200.895Z" fill="white"/>
</g>
<rect x="10" y="107" width="216" height="47" rx="23.5" fill="white"/>
<rect x="5" y="102" width="226" height="57" rx="28.5" stroke="url(#paint2_linear_505_91)" stroke-opacity="0.3" stroke-width="10"/>
<path d="M38.1477 136V124.364H42.5114C43.4053 124.364 44.1553 124.53 44.7614 124.864C45.3712 125.197 45.8314 125.655 46.142 126.239C46.4564 126.818 46.6136 127.477 46.6136 128.216C46.6136 128.962 46.4564 129.625 46.142 130.205C45.8277 130.784 45.3636 131.241 44.75 131.574C44.1364 131.903 43.3807 132.068 42.483 132.068H39.5909V130.335H42.1989C42.7216 130.335 43.1496 130.244 43.483 130.062C43.8163 129.881 44.0625 129.631 44.2216 129.312C44.3845 128.994 44.4659 128.629 44.4659 128.216C44.4659 127.803 44.3845 127.439 44.2216 127.125C44.0625 126.811 43.8144 126.566 43.4773 126.392C43.1439 126.214 42.714 126.125 42.1875 126.125H40.2557V136H38.1477ZM48.3537 136V127.273H50.348V128.727H50.4389C50.598 128.223 50.8707 127.835 51.2571 127.562C51.6473 127.286 52.0923 127.148 52.5923 127.148C52.706 127.148 52.8329 127.153 52.973 127.165C53.117 127.172 53.2363 127.186 53.331 127.205V129.097C53.2438 129.066 53.1056 129.04 52.9162 129.017C52.7306 128.991 52.5507 128.977 52.3764 128.977C52.0014 128.977 51.6643 129.059 51.3651 129.222C51.0696 129.381 50.8366 129.602 50.6662 129.886C50.4957 130.17 50.4105 130.498 50.4105 130.869V136H48.3537ZM58.1449 136.17C57.2926 136.17 56.554 135.983 55.929 135.608C55.304 135.233 54.8191 134.708 54.4744 134.034C54.1335 133.36 53.9631 132.572 53.9631 131.67C53.9631 130.769 54.1335 129.979 54.4744 129.301C54.8191 128.623 55.304 128.097 55.929 127.722C56.554 127.347 57.2926 127.159 58.1449 127.159C58.9972 127.159 59.7358 127.347 60.3608 127.722C60.9858 128.097 61.4688 128.623 61.8097 129.301C62.1544 129.979 62.3267 130.769 62.3267 131.67C62.3267 132.572 62.1544 133.36 61.8097 134.034C61.4688 134.708 60.9858 135.233 60.3608 135.608C59.7358 135.983 58.9972 136.17 58.1449 136.17ZM58.1562 134.523C58.6184 134.523 59.0047 134.396 59.3153 134.142C59.6259 133.884 59.857 133.54 60.0085 133.108C60.1638 132.676 60.2415 132.195 60.2415 131.665C60.2415 131.131 60.1638 130.648 60.0085 130.216C59.857 129.78 59.6259 129.434 59.3153 129.176C59.0047 128.919 58.6184 128.79 58.1562 128.79C57.6828 128.79 57.2888 128.919 56.9744 129.176C56.6638 129.434 56.4309 129.78 56.2756 130.216C56.1241 130.648 56.0483 131.131 56.0483 131.665C56.0483 132.195 56.1241 132.676 56.2756 133.108C56.4309 133.54 56.6638 133.884 56.9744 134.142C57.2888 134.396 57.6828 134.523 58.1562 134.523ZM68.4304 127.273V128.864H63.4134V127.273H68.4304ZM64.652 125.182H66.7088V133.375C66.7088 133.652 66.7505 133.864 66.8338 134.011C66.9209 134.155 67.0346 134.254 67.1747 134.307C67.3149 134.36 67.4702 134.386 67.6406 134.386C67.7694 134.386 67.8868 134.377 67.9929 134.358C68.1027 134.339 68.1861 134.322 68.2429 134.307L68.5895 135.915C68.4796 135.953 68.3224 135.994 68.1179 136.04C67.9171 136.085 67.6709 136.112 67.3793 136.119C66.8641 136.134 66.4001 136.057 65.9872 135.886C65.5743 135.712 65.2467 135.443 65.0043 135.08C64.7656 134.716 64.6482 134.261 64.652 133.716V125.182ZM73.9205 136.17C73.0455 136.17 72.2898 135.989 71.6534 135.625C71.0208 135.258 70.5341 134.739 70.1932 134.068C69.8523 133.394 69.6818 132.6 69.6818 131.688C69.6818 130.79 69.8523 130.002 70.1932 129.324C70.5379 128.642 71.0189 128.112 71.6364 127.733C72.2538 127.35 72.9792 127.159 73.8125 127.159C74.3504 127.159 74.858 127.246 75.3352 127.42C75.8163 127.591 76.2405 127.856 76.608 128.216C76.9792 128.576 77.2708 129.034 77.483 129.591C77.6951 130.144 77.8011 130.803 77.8011 131.568V132.199H70.6477V130.812H75.8295C75.8258 130.419 75.7405 130.068 75.5739 129.761C75.4072 129.451 75.1742 129.206 74.875 129.028C74.5795 128.85 74.2348 128.761 73.8409 128.761C73.4205 128.761 73.0511 128.864 72.733 129.068C72.4148 129.269 72.1667 129.534 71.9886 129.864C71.8144 130.189 71.7254 130.547 71.7216 130.938V132.148C71.7216 132.655 71.8144 133.091 72 133.455C72.1856 133.814 72.4451 134.091 72.7784 134.284C73.1117 134.473 73.5019 134.568 73.9489 134.568C74.2481 134.568 74.5189 134.527 74.7614 134.443C75.0038 134.356 75.214 134.229 75.392 134.062C75.5701 133.896 75.7045 133.689 75.7955 133.443L77.7159 133.659C77.5947 134.167 77.3636 134.61 77.0227 134.989C76.6856 135.364 76.2538 135.655 75.7273 135.864C75.2008 136.068 74.5985 136.17 73.9205 136.17ZM83.348 136.17C82.4768 136.17 81.7287 135.979 81.1037 135.597C80.4825 135.214 80.0033 134.686 79.6662 134.011C79.3329 133.333 79.1662 132.553 79.1662 131.67C79.1662 130.784 79.3366 130.002 79.6776 129.324C80.0185 128.642 80.4995 128.112 81.1207 127.733C81.7457 127.35 82.4844 127.159 83.3366 127.159C84.045 127.159 84.6719 127.29 85.2173 127.551C85.7666 127.809 86.2041 128.174 86.5298 128.648C86.8556 129.117 87.0412 129.667 87.0866 130.295H85.1207C85.0412 129.875 84.8518 129.525 84.5526 129.244C84.2571 128.96 83.8613 128.818 83.3651 128.818C82.9446 128.818 82.5753 128.932 82.2571 129.159C81.9389 129.383 81.6908 129.705 81.5128 130.125C81.3385 130.545 81.2514 131.049 81.2514 131.636C81.2514 132.231 81.3385 132.742 81.5128 133.17C81.687 133.595 81.9313 133.922 82.2457 134.153C82.5639 134.381 82.937 134.494 83.3651 134.494C83.6681 134.494 83.9389 134.437 84.1776 134.324C84.42 134.206 84.6226 134.038 84.7855 133.818C84.9484 133.598 85.0601 133.331 85.1207 133.017H87.0866C87.0374 133.634 86.8556 134.182 86.5412 134.659C86.2268 135.133 85.7988 135.504 85.2571 135.773C84.7154 136.038 84.0791 136.17 83.348 136.17ZM82.7571 135.955H83.8707L83.7798 136.438C84.1359 136.491 84.437 136.627 84.6832 136.847C84.9332 137.07 85.0582 137.39 85.0582 137.807C85.062 138.345 84.8215 138.777 84.3366 139.102C83.8518 139.428 83.1605 139.591 82.2628 139.591L82.2401 138.58C82.6757 138.58 83.0223 138.521 83.2798 138.403C83.5374 138.29 83.6681 138.108 83.6719 137.858C83.6795 137.616 83.5885 137.438 83.3991 137.324C83.2135 137.214 82.9181 137.138 82.5128 137.097L82.7571 135.955ZM91.2869 136.176C90.7339 136.176 90.2358 136.078 89.7926 135.881C89.3532 135.68 89.0047 135.384 88.7472 134.994C88.4934 134.604 88.3665 134.123 88.3665 133.551C88.3665 133.059 88.4574 132.652 88.6392 132.33C88.821 132.008 89.0691 131.75 89.3835 131.557C89.6979 131.364 90.0521 131.218 90.446 131.119C90.8438 131.017 91.2547 130.943 91.679 130.898C92.1903 130.845 92.6051 130.797 92.9233 130.756C93.2415 130.71 93.4725 130.642 93.6165 130.551C93.7642 130.456 93.8381 130.311 93.8381 130.114V130.08C93.8381 129.652 93.7112 129.32 93.4574 129.085C93.2036 128.85 92.8381 128.733 92.3608 128.733C91.857 128.733 91.4574 128.843 91.1619 129.062C90.8703 129.282 90.6733 129.542 90.571 129.841L88.6506 129.568C88.8021 129.038 89.0521 128.595 89.4006 128.239C89.7491 127.879 90.1752 127.61 90.679 127.432C91.1828 127.25 91.7396 127.159 92.3494 127.159C92.7699 127.159 93.1884 127.208 93.6051 127.307C94.0218 127.405 94.4025 127.568 94.7472 127.795C95.0919 128.019 95.3684 128.324 95.5767 128.71C95.7888 129.097 95.8949 129.58 95.8949 130.159V136H93.9176V134.801H93.8494C93.7244 135.044 93.5483 135.271 93.321 135.483C93.0975 135.691 92.8153 135.86 92.4744 135.989C92.1373 136.114 91.7415 136.176 91.2869 136.176ZM91.821 134.665C92.2339 134.665 92.5919 134.583 92.8949 134.42C93.1979 134.254 93.4309 134.034 93.5938 133.761C93.7604 133.489 93.8438 133.191 93.8438 132.869V131.841C93.7794 131.894 93.6695 131.943 93.5142 131.989C93.3627 132.034 93.1922 132.074 93.0028 132.108C92.8134 132.142 92.6259 132.172 92.4403 132.199C92.2547 132.225 92.0938 132.248 91.9574 132.267C91.6506 132.309 91.3759 132.377 91.1335 132.472C90.8911 132.566 90.6998 132.699 90.5597 132.869C90.4195 133.036 90.3494 133.252 90.3494 133.517C90.3494 133.896 90.4877 134.182 90.7642 134.375C91.0407 134.568 91.393 134.665 91.821 134.665ZM90.7699 126.21L89.5256 126.182C89.5256 125.508 89.6998 124.979 90.0483 124.597C90.3968 124.214 90.8267 124.023 91.3381 124.023C91.5843 124.023 91.7983 124.064 91.9801 124.148C92.1619 124.227 92.3286 124.32 92.4801 124.426C92.6354 124.532 92.7869 124.627 92.9347 124.71C93.0824 124.79 93.2453 124.83 93.4233 124.83C93.6392 124.83 93.8097 124.748 93.9347 124.585C94.0634 124.422 94.1297 124.214 94.1335 123.96L95.3551 124.011C95.3513 124.689 95.1752 125.216 94.8267 125.591C94.4782 125.962 94.0502 126.15 93.5426 126.153C93.2699 126.157 93.0407 126.117 92.8551 126.034C92.6695 125.951 92.5066 125.856 92.3665 125.75C92.2301 125.644 92.0919 125.551 91.9517 125.472C91.8116 125.388 91.6468 125.347 91.4574 125.347C91.2566 125.347 91.0919 125.426 90.9631 125.585C90.8343 125.744 90.7699 125.953 90.7699 126.21ZM101.77 136.17C100.918 136.17 100.179 135.983 99.554 135.608C98.929 135.233 98.4441 134.708 98.0994 134.034C97.7585 133.36 97.5881 132.572 97.5881 131.67C97.5881 130.769 97.7585 129.979 98.0994 129.301C98.4441 128.623 98.929 128.097 99.554 127.722C100.179 127.347 100.918 127.159 101.77 127.159C102.622 127.159 103.361 127.347 103.986 127.722C104.611 128.097 105.094 128.623 105.435 129.301C105.779 129.979 105.952 130.769 105.952 131.67C105.952 132.572 105.779 133.36 105.435 134.034C105.094 134.708 104.611 135.233 103.986 135.608C103.361 135.983 102.622 136.17 101.77 136.17ZM101.781 134.523C102.243 134.523 102.63 134.396 102.94 134.142C103.251 133.884 103.482 133.54 103.634 133.108C103.789 132.676 103.866 132.195 103.866 131.665C103.866 131.131 103.789 130.648 103.634 130.216C103.482 129.78 103.251 129.434 102.94 129.176C102.63 128.919 102.243 128.79 101.781 128.79C101.308 128.79 100.914 128.919 100.599 129.176C100.289 129.434 100.056 129.78 99.9006 130.216C99.7491 130.648 99.6733 131.131 99.6733 131.665C99.6733 132.195 99.7491 132.676 99.9006 133.108C100.056 133.54 100.289 133.884 100.599 134.142C100.914 134.396 101.308 134.523 101.781 134.523ZM111.643 136V134.477L115.683 130.517C116.07 130.127 116.392 129.78 116.649 129.477C116.907 129.174 117.1 128.881 117.229 128.597C117.357 128.312 117.422 128.009 117.422 127.688C117.422 127.32 117.339 127.006 117.172 126.744C117.005 126.479 116.776 126.275 116.484 126.131C116.193 125.987 115.861 125.915 115.49 125.915C115.107 125.915 114.772 125.994 114.484 126.153C114.196 126.309 113.973 126.53 113.814 126.818C113.659 127.106 113.581 127.449 113.581 127.847H111.575C111.575 127.108 111.744 126.466 112.081 125.92C112.418 125.375 112.882 124.953 113.473 124.653C114.068 124.354 114.75 124.205 115.518 124.205C116.299 124.205 116.984 124.35 117.575 124.642C118.166 124.934 118.625 125.333 118.95 125.841C119.28 126.348 119.445 126.928 119.445 127.58C119.445 128.015 119.361 128.443 119.195 128.864C119.028 129.284 118.734 129.75 118.314 130.261C117.897 130.773 117.312 131.392 116.558 132.119L114.553 134.159V134.239H119.621V136H111.643ZM121.121 133.841V132.165L126.058 124.364H127.456V126.75H126.604L123.28 132.017V132.108H130.172V133.841H121.121ZM126.672 136V133.33L126.695 132.58V124.364H128.683V136H126.672ZM134.067 130.886V136H132.01V124.364H134.021V128.756H134.124C134.328 128.263 134.644 127.875 135.072 127.591C135.504 127.303 136.054 127.159 136.72 127.159C137.326 127.159 137.855 127.286 138.305 127.54C138.756 127.794 139.105 128.165 139.351 128.653C139.601 129.142 139.726 129.739 139.726 130.443V136H137.669V130.761C137.669 130.174 137.518 129.718 137.214 129.392C136.915 129.062 136.495 128.898 135.953 128.898C135.589 128.898 135.264 128.977 134.976 129.136C134.692 129.292 134.468 129.517 134.305 129.812C134.146 130.108 134.067 130.466 134.067 130.886ZM145.791 139.273V127.273H147.814V128.716H147.933C148.039 128.504 148.189 128.278 148.382 128.04C148.575 127.797 148.837 127.591 149.166 127.42C149.496 127.246 149.916 127.159 150.428 127.159C151.102 127.159 151.71 127.331 152.251 127.676C152.797 128.017 153.229 128.523 153.547 129.193C153.869 129.86 154.03 130.678 154.03 131.648C154.03 132.606 153.873 133.42 153.558 134.091C153.244 134.761 152.816 135.273 152.274 135.625C151.732 135.977 151.119 136.153 150.433 136.153C149.933 136.153 149.518 136.07 149.189 135.903C148.859 135.737 148.594 135.536 148.393 135.301C148.196 135.062 148.043 134.837 147.933 134.625H147.848V139.273H145.791ZM147.808 131.636C147.808 132.201 147.888 132.695 148.047 133.119C148.21 133.544 148.443 133.875 148.746 134.114C149.053 134.348 149.424 134.466 149.859 134.466C150.314 134.466 150.695 134.345 151.001 134.102C151.308 133.856 151.539 133.521 151.695 133.097C151.854 132.669 151.933 132.182 151.933 131.636C151.933 131.095 151.856 130.614 151.7 130.193C151.545 129.773 151.314 129.443 151.007 129.205C150.7 128.966 150.318 128.847 149.859 128.847C149.42 128.847 149.047 128.962 148.74 129.193C148.433 129.424 148.2 129.748 148.041 130.165C147.886 130.581 147.808 131.072 147.808 131.636ZM159.598 136.17C158.746 136.17 158.007 135.983 157.382 135.608C156.757 135.233 156.272 134.708 155.928 134.034C155.587 133.36 155.416 132.572 155.416 131.67C155.416 130.769 155.587 129.979 155.928 129.301C156.272 128.623 156.757 128.097 157.382 127.722C158.007 127.347 158.746 127.159 159.598 127.159C160.45 127.159 161.189 127.347 161.814 127.722C162.439 128.097 162.922 128.623 163.263 129.301C163.607 129.979 163.78 130.769 163.78 131.67C163.78 132.572 163.607 133.36 163.263 134.034C162.922 134.708 162.439 135.233 161.814 135.608C161.189 135.983 160.45 136.17 159.598 136.17ZM159.609 134.523C160.071 134.523 160.458 134.396 160.768 134.142C161.079 133.884 161.31 133.54 161.462 133.108C161.617 132.676 161.695 132.195 161.695 131.665C161.695 131.131 161.617 130.648 161.462 130.216C161.31 129.78 161.079 129.434 160.768 129.176C160.458 128.919 160.071 128.79 159.609 128.79C159.136 128.79 158.742 128.919 158.428 129.176C158.117 129.434 157.884 129.78 157.729 130.216C157.577 130.648 157.501 131.131 157.501 131.665C157.501 132.195 157.577 132.676 157.729 133.108C157.884 133.54 158.117 133.884 158.428 134.142C158.742 134.396 159.136 134.523 159.609 134.523ZM165.526 136V127.273H167.52V128.727H167.611C167.77 128.223 168.043 127.835 168.429 127.562C168.819 127.286 169.264 127.148 169.764 127.148C169.878 127.148 170.005 127.153 170.145 127.165C170.289 127.172 170.408 127.186 170.503 127.205V129.097C170.416 129.066 170.277 129.04 170.088 129.017C169.902 128.991 169.723 128.977 169.548 128.977C169.173 128.977 168.836 129.059 168.537 129.222C168.241 129.381 168.009 129.602 167.838 129.886C167.668 130.17 167.582 130.498 167.582 130.869V136H165.526ZM179.077 136.153C178.391 136.153 177.777 135.977 177.236 135.625C176.694 135.273 176.266 134.761 175.952 134.091C175.637 133.42 175.48 132.606 175.48 131.648C175.48 130.678 175.639 129.86 175.957 129.193C176.279 128.523 176.713 128.017 177.259 127.676C177.804 127.331 178.412 127.159 179.082 127.159C179.594 127.159 180.014 127.246 180.344 127.42C180.673 127.591 180.935 127.797 181.128 128.04C181.321 128.278 181.471 128.504 181.577 128.716H181.662V124.364H183.724V136H181.702V134.625H181.577C181.471 134.837 181.317 135.062 181.116 135.301C180.916 135.536 180.651 135.737 180.321 135.903C179.991 136.07 179.577 136.153 179.077 136.153ZM179.651 134.466C180.086 134.466 180.457 134.348 180.764 134.114C181.071 133.875 181.304 133.544 181.463 133.119C181.622 132.695 181.702 132.201 181.702 131.636C181.702 131.072 181.622 130.581 181.463 130.165C181.308 129.748 181.077 129.424 180.77 129.193C180.467 128.962 180.094 128.847 179.651 128.847C179.192 128.847 178.81 128.966 178.503 129.205C178.196 129.443 177.965 129.773 177.81 130.193C177.654 130.614 177.577 131.095 177.577 131.636C177.577 132.182 177.654 132.669 177.81 133.097C177.969 133.521 178.202 133.856 178.509 134.102C178.819 134.345 179.2 134.466 179.651 134.466ZM185.916 136V127.273H187.973V136H185.916ZM186.95 126.034C186.625 126.034 186.344 125.926 186.109 125.71C185.875 125.491 185.757 125.227 185.757 124.92C185.757 124.61 185.875 124.347 186.109 124.131C186.344 123.911 186.625 123.801 186.95 123.801C187.28 123.801 187.56 123.911 187.791 124.131C188.026 124.347 188.143 124.61 188.143 124.92C188.143 125.227 188.026 125.491 187.791 125.71C187.56 125.926 187.28 126.034 186.95 126.034ZM192.599 136.176C192.046 136.176 191.548 136.078 191.105 135.881C190.666 135.68 190.317 135.384 190.06 134.994C189.806 134.604 189.679 134.123 189.679 133.551C189.679 133.059 189.77 132.652 189.952 132.33C190.134 132.008 190.382 131.75 190.696 131.557C191.01 131.364 191.365 131.218 191.759 131.119C192.156 131.017 192.567 130.943 192.991 130.898C193.503 130.845 193.918 130.797 194.236 130.756C194.554 130.71 194.785 130.642 194.929 130.551C195.077 130.456 195.151 130.311 195.151 130.114V130.08C195.151 129.652 195.024 129.32 194.77 129.085C194.516 128.85 194.151 128.733 193.673 128.733C193.17 128.733 192.77 128.843 192.474 129.062C192.183 129.282 191.986 129.542 191.884 129.841L189.963 129.568C190.115 129.038 190.365 128.595 190.713 128.239C191.062 127.879 191.488 127.61 191.991 127.432C192.495 127.25 193.052 127.159 193.662 127.159C194.082 127.159 194.501 127.208 194.918 127.307C195.334 127.405 195.715 127.568 196.06 127.795C196.404 128.019 196.681 128.324 196.889 128.71C197.101 129.097 197.207 129.58 197.207 130.159V136H195.23V134.801H195.162C195.037 135.044 194.861 135.271 194.634 135.483C194.41 135.691 194.128 135.86 193.787 135.989C193.45 136.114 193.054 136.176 192.599 136.176ZM193.134 134.665C193.546 134.665 193.904 134.583 194.207 134.42C194.51 134.254 194.743 134.034 194.906 133.761C195.073 133.489 195.156 133.191 195.156 132.869V131.841C195.092 131.894 194.982 131.943 194.827 131.989C194.675 132.034 194.505 132.074 194.315 132.108C194.126 132.142 193.938 132.172 193.753 132.199C193.567 132.225 193.406 132.248 193.27 132.267C192.963 132.309 192.688 132.377 192.446 132.472C192.204 132.566 192.012 132.699 191.872 132.869C191.732 133.036 191.662 133.252 191.662 133.517C191.662 133.896 191.8 134.182 192.077 134.375C192.353 134.568 192.705 134.665 193.134 134.665Z" fill="#0A0A0A"/>
<defs>
<filter id="filter0_b_505_91" x="148.982" y="12.9823" width="105.035" height="105.035" filterUnits="userSpaceOnUse" color-interpolation-filters="sRGB">
<feFlood flood-opacity="0" result="BackgroundImageFix"/>
<feGaussianBlur in="BackgroundImage" stdDeviation="5.50885"/>
<feComposite in2="SourceAlpha" operator="in" result="effect1_backgroundBlur_505_91"/>
<feBlend mode="normal" in="SourceGraphic" in2="effect1_backgroundBlur_505_91" result="shape"/>
</filter>
<linearGradient id="paint0_linear_505_91" x1="160" y1="73.3302" x2="252.651" y2="74.4234" gradientUnits="userSpaceOnUse">
<stop stop-color="#FFC500"/>
<stop offset="0.0001" stop-color="#FFC500" stop-opacity="0.11"/>
<stop offset="1" stop-color="#313131" stop-opacity="0"/>
</linearGradient>
<linearGradient id="paint1_linear_505_91" x1="153.657" y1="64.7169" x2="277.332" y2="68.0895" gradientUnits="userSpaceOnUse">
<stop stop-color="white"/>
<stop offset="1" stop-color="white" stop-opacity="0"/>
</linearGradient>
<linearGradient id="paint2_linear_505_91" x1="274.49" y1="122" x2="10.5861" y2="112.935" gradientUnits="userSpaceOnUse">
<stop offset="0.0933684" stop-color="white"/>
<stop offset="0.604167" stop-color="white" stop-opacity="0"/>
</linearGradient>
<clipPath id="clip0_505_91">
<rect width="45.5398" height="45.5398" fill="white" transform="translate(178.363 43.0974)"/>
</clipPath>
</defs>
</svg>
