<svg id="eHYEn2fLORX1" xmlns="http://www.w3.org/2000/svg" xmlns:xlink="http://www.w3.org/1999/xlink" viewBox="0 0 131 131" shape-rendering="geometricPrecision" text-rendering="geometricPrecision"><style><![CDATA[#eHYEn2fLORX5_ts {animation: eHYEn2fLORX5_ts__ts 3000ms linear infinite normal forwards}@keyframes eHYEn2fLORX5_ts__ts { 0% {transform: translate(65.500051px,65.500051px) scale(1,1)} 33.333333% {transform: translate(65.500051px,65.500051px) scale(1.04,1.04)} 66.666667% {transform: translate(65.500051px,65.500051px) scale(1.04,1.04)} 100% {transform: translate(65.500051px,65.500051px) scale(1,1)}} #eHYEn2fLORX6_ts {animation: eHYEn2fLORX6_ts__ts 3000ms linear infinite normal forwards}@keyframes eHYEn2fLORX6_ts__ts { 0% {transform: translate(65.49976px,65.49976px) scale(1,1)} 33.333333% {transform: translate(65.49976px,65.49976px) scale(1,1)} 66.666667% {transform: translate(65.49976px,65.49976px) scale(1.04,1.04)} 100% {transform: translate(65.49976px,65.49976px) scale(1,1)}} #eHYEn2fLORX7_ts {animation: eHYEn2fLORX7_ts__ts 3000ms linear infinite normal forwards}@keyframes eHYEn2fLORX7_ts__ts { 0% {transform: translate(65.499757px,65.499757px) scale(1,1)} 33.333333% {transform: translate(65.499757px,65.499757px) scale(1,1)} 66.666667% {transform: translate(65.499757px,65.499757px) scale(1.04,1.04)} 100% {transform: translate(65.499757px,65.499757px) scale(1,1)}}]]></style><defs><linearGradient id="eHYEn2fLORX3-fill" x1="0" y1="49.3302" x2="92.651" y2="50.4234" spreadMethod="pad" gradientUnits="userSpaceOnUse" gradientTransform="translate(0 0)"><stop id="eHYEn2fLORX3-fill-0" offset="0%" stop-color="#ffc500"/><stop id="eHYEn2fLORX3-fill-1" offset="0.01%" stop-color="rgba(255,197,0,0.11)"/><stop id="eHYEn2fLORX3-fill-2" offset="100%" stop-color="rgba(49,49,49,0)"/></linearGradient><linearGradient id="eHYEn2fLORX4-stroke" x1="-6.7101" y1="40.3496" x2="116.9647" y2="43.7222" spreadMethod="pad" gradientUnits="userSpaceOnUse" gradientTransform="translate(0 0)"><stop id="eHYEn2fLORX4-stroke-0" offset="0%" stop-color="#fff"/><stop id="eHYEn2fLORX4-stroke-1" offset="100%" stop-color="rgba(255,255,255,0)"/></linearGradient></defs><g><rect width="83" height="83" rx="41.5" ry="41.5" transform="translate(24 24)" fill="url(#eHYEn2fLORX3-fill)"/><rect width="82.2655" height="82.2655" rx="41.1327" ry="41.1327" transform="translate(24.3673 24.3673)" fill="none" stroke="url(#eHYEn2fLORX4-stroke)" stroke-width="0.734513" stroke-opacity="0.3"/></g><g id="eHYEn2fLORX5_ts" transform="translate(65.500051,65.500051) scale(1,1)"><rect width="98.2655" height="98.2655" rx="49.1327" ry="49.1327" transform="translate(-49.132751,-49.132751)" fill="none" stroke="#ffc500" stroke-width="0.734513" stroke-opacity="0.5"/></g><g id="eHYEn2fLORX6_ts" transform="translate(65.49976,65.49976) scale(1,1)"><rect width="114.265" height="114.265" rx="57.1327" ry="57.1327" transform="translate(-57.1325,-57.1325)" fill="none" stroke="#ffc500" stroke-width="0.734513" stroke-opacity="0.2"/></g><g id="eHYEn2fLORX7_ts" transform="translate(65.499757,65.499757) scale(1,1)"><rect width="130.265" height="130.265" rx="65.1327" ry="65.1327" transform="translate(-65.1325,-65.1325)" fill="none" stroke="#ffc500" stroke-width="0.734513" stroke-opacity="0.1"/></g><g clip-path="url(#eHYEn2fLORX12)"><g><path d="M65.1331,44.9949l15.5917,3.4648c.8671.1935,1.4857.962,1.4857,1.8519v18.9503c0,3.8064-1.9032,7.3623-5.0701,9.4723L65.1331,86.7397L53.1258,78.7342c-3.1688-2.1119-5.0701-5.6659-5.0701-9.4704v-18.9522c0-.8899.6185-1.6584,1.4857-1.8519l15.5917-3.4648Zm8.4476,13.7037l-9.3926,9.3907-5.3661-5.3662-2.683,2.6831l8.051,8.0511L76.2657,61.3816l-2.685-2.683Z" fill="#ffc500"/><path d="M64.8945,86.5808l.2381.1587l12.0073-8.0056c3.1669-2.11,5.0701-5.6659,5.0701-9.4722v-18.9503c0-.8899-.6186-1.6584-1.4857-1.8519L65.1326,44.9946l-.1478.0329v22.2645l8.5954-8.5937l2.6849,2.6831L64.9848,72.6617v13.9191h-.0903Z" clip-rule="evenodd" fill="#fff" fill-rule="evenodd"/></g></g></svg>